cltworkhorse.glyphspackage
{
glyphname = exclam;
kernLeft = KO_exclam;
layers = (
{
layerId = m01;
shapes = (
{
closed = 1;
nodes = (
(156,212,l),
(175,540,l),
(175,680,l),
(75,680,l),
(75,540,l),
(94,212,l)
);
},
{
pos = (21,0);
ref = period;
}
);
width = 250;
},
{
layerId = "E9FB66CC-5D7A-47B2-9A25-A0E8EEF5BB81";
shapes = (
{
closed = 1;
nodes = (
(178,220,l),
(209,532,l),
(209,692,l),
(64,692,l),
(64,532,l),
(96,220,l)
);
},
{
pos = (19,0);
ref = period;
}
);
width = 274;
},
{
layerId = "980A8AF2-BF11-492D-9410-496A94B21BD3";
shapes = (
{
closed = 1;
nodes = (
(157,212,l),
(222,540,l),
(242,680,l),
(142,680,l),
(122,540,l),
(95,212,l)
);
},
{
pos = (21,0);
ref = period;
}
);
width = 253;
},
{
layerId = "829AF10C-3E33-4291-B5B6-8F7CF12D6A62";
shapes = (
{
closed = 1;
nodes = (
(176,220,l),
(251,532,l),
(273,692,l),
(128,692,l),
(106,532,l),
(94,220,l)
);
},
{
pos = (19,0);
ref = period;
}
);
width = 275;
}
);
metricLeft = l;
metricRight = l;
unicode = 33;
userData = {
KernOnSpecialSpacing = {
L = "spaced-off";
};
};
}
{
glyphname = numbersign;
layers = (
{
layerId = m01;
shapes = (
{
closed = 1;
nodes = (
(165,0,l),
(308,680,l),
(236,680,l),
(92,0,l)
);
},
{
closed = 1;
nodes = (
(547,177,l),
(560,244,l),
(40,244,l),
(26,177,l)
);
},
{
closed = 1;
nodes = (
(392,0,l),
(532,680,l),
(460,680,l),
(320,0,l)
);
},
{
closed = 1;
nodes = (
(589,440,l),
(602,506,l),
(81,506,l),
(67,440,l)
);
}
);
width = 626;
},
{
layerId = "E9FB66CC-5D7A-47B2-9A25-A0E8EEF5BB81";
shapes = (
{
closed = 1;
nodes = (
(199,0,l),
(346,690,l),
(234,690,l),
(86,0,l)
);
},
{
closed = 1;
nodes = (
(591,159,l),
(608,254,l),
(28,254,l),
(10,159,l)
);
},
{
closed = 1;
nodes = (
(436,0,l),
(580,690,l),
(468,690,l),
(324,0,l)
);
},
{
closed = 1;
nodes = (
(633,430,l),
(650,525,l),
(69,525,l),
(51,430,l)
);
}
);
width = 660;
},
{
layerId = "980A8AF2-BF11-492D-9410-496A94B21BD3";
shapes = (
{
closed = 1;
nodes = (
(152,0,l),
(295,680,l),
(223,680,l),
(79,0,l)
);
},
{
closed = 1;
nodes = (
(534,177,l),
(547,244,l),
(27,244,l),
(13,177,l)
);
},
{
closed = 1;
nodes = (
(379,0,l),
(519,680,l),
(447,680,l),
(307,0,l)
);
},
{
closed = 1;
nodes = (
(576,440,l),
(589,506,l),
(68,506,l),
(54,440,l)
);
}
);
width = 579;
},
{
layerId = "829AF10C-3E33-4291-B5B6-8F7CF12D6A62";
shapes = (
{
closed = 1;
nodes = (
(183,0,l),
(330,690,l),
(218,690,l),
(70,0,l)
);
},
{
closed = 1;
nodes = (
(575,159,l),
(592,254,l),
(12,254,l),
(-6,159,l)
);
},
{
closed = 1;
nodes = (
(420,0,l),
(564,690,l),
(452,690,l),
(308,0,l)
);
},
{
closed = 1;
nodes = (
(617,430,l),
(634,525,l),
(53,525,l),
(35,430,l)
);
}
);
width = 608;
}
);
unicode = 35;
}
{
glyphname = dollar;
layers = (
{
anchors = (
{
name = bottom;
pos = (324.906,0);
},
{
name = top;
pos = (306.767,680);
}
);
layerId = m01;
shapes = (
{
closed = 1;
nodes = (
(469,-14,o),
(566,66,o),
(565,185,cs),
(561,451,o),
(169,332,o),
(167,513,cs),
(166,577,o),
(220,620,o),
(303,620,cs),
(381,620,o),
(438,576,o),
(454,506,c),
(545,539,l),
(520,637,o),
(427,694,o),
(311,694,cs),
(171,694,o),
(79,619,o),
(80,507,cs),
(84,251,o),
(474,377,o),
(477,179,cs),
(478,106,o),
(420,61,o),
(328,61,cs),
(241,61,o),
(177,110,o),
(159,194,c),
(69,162,l),
(93,55,o),
(196,-14,o),
(322,-14,cs)
);
},
{
closed = 1;
nodes = (
(350,-100,l),
(350,780,l),
(278,780,l),
(278,-100,l)
);
}
);
width = 620;
},
{
anchors = (
{
name = bottom;
pos = (331,0);
},
{
name = top;
pos = (331,692);
}
);
layerId = "E9FB66CC-5D7A-47B2-9A25-A0E8EEF5BB81";
shapes = (
{
closed = 1;
nodes = (
(507,-14,o),
(610,66,o),
(610,191,cs),
(610,484,o),
(211,346,o),
(211,515,cs),
(211,570,o),
(254,605,o),
(328,605,cs),
(400,605,o),
(452,569,o),
(458,506,c),
(598,556,l),
(563,652,o),
(462,706,o),
(339,706,cs),
(174,706,o),
(69,629,o),
(69,508,cs),
(69,224,o),
(467,367,o),
(467,186,cs),
(467,124,o),
(421,87,o),
(342,87,cs),
(261,87,o),
(205,132,o),
(189,214,c),
(53,164,l),
(85,52,o),
(193,-14,o),
(337,-14,cs)
);
},
{
closed = 1;
nodes = (
(389,-105,l),
(389,780,l),
(277,780,l),
(277,-105,l)
);
}
);
width = 660;
},
{
anchors = (
{
name = bottom;
pos = (287,0);
},
{
name = top;
pos = (365,680);
}
);
layerId = "980A8AF2-BF11-492D-9410-496A94B21BD3";
shapes = (
{
closed = 1;
nodes = (
(442,-14,o),
(555,81,o),
(555,215,cs),
(555,436,o),
(200,345,o),
(200,499,cs),
(200,570,o),
(264,620,o),
(352,620,cs),
(430,620,o),
(481,576,o),
(487,506,c),
(583,539,l),
(572,637,o),
(486,694,o),
(371,694,cs),
(219,694,o),
(112,605,o),
(112,480,cs),
(112,267,o),
(465,363,o),
(465,196,cs),
(465,115,o),
(398,61,o),
(299,61,cs),
(212,61,o),
(155,110,o),
(148,194,c),
(54,162,l),
(63,55,o),
(157,-14,o),
(282,-14,cs)
);
},
{
closed = 1;
nodes = (
(298,-100,l),
(422,780,l),
(350,780,l),
(226,-100,l)
);
}
);
width = 619;
},
{
anchors = (
{
name = bottom;
pos = (293,0);
},
{
name = top;
pos = (390,692);
}
);
layerId = "829AF10C-3E33-4291-B5B6-8F7CF12D6A62";
shapes = (
{
closed = 1;
nodes = (
(483,-14,o),
(602,81,o),
(602,230,cs),
(602,465,o),
(244,360,o),
(244,502,cs),
(244,564,o),
(297,605,o),
(375,605,cs),
(446,605,o),
(494,569,o),
(491,506,c),
(638,556,l),
(617,652,o),
(522,706,o),
(400,706,cs),
(230,706,o),
(100,623,o),
(100,472,cs),
(100,244,o),
(456,352,o),
(456,201,cs),
(456,132,o),
(401,87,o),
(316,87,cs),
(239,87,o),
(186,128,o),
(181,214,c),
(38,164,l),
(54,52,o),
(154,-14,o),
(297,-14,cs)
);
},
{
closed = 1;
nodes = (
(336,-105,l),
(461,780,l),
(349,780,l),
(224,-105,l)
);
}
);
width = 661;
}
);
unicode = 36;
userData = {
KernOnSpecialSpacing = {
L = symbols;
R = symbols;
};
};
}
{
glyphname = ampersand;
kernLeft = KO_ampersand;
kernRight = KO_ampersand;
layers = (
{
layerId = m01;
shapes = (
{
closed = 1;
nodes = (
(647,-25,l),
(598,104,o),
(504,200,o),
(414,274,cs),
(288,378,o),
(179,430,o),
(179,527,cs),
(179,584,o),
(219,619,o),
(285,619,cs),
(345,619,o),
(386,579,o),
(398,508,c),
(482,540,l),
(462,633,o),
(388,692,o),
(291,692,cs),
(167,692,o),
(90,617,o),
(90,521,cs),
(90,406,o),
(196,344,o),
(319,243,cs),
(423,158,o),
(532,50,o),
(568,-68,c)
);
},
{
closed = 1;
nodes = (
(567,158,o),
(565,373,c),
(483,373,l),
(484,214,o),
(452,58,o),
(289,58,cs),
(195,58,o),
(129,110,o),
(129,192,cs),
(129,250,o),
(156,300,o),
(218,336,c),
(173,371,l),
(84,330,o),
(37,259,o),
(37,178,cs),
(37,64,o),
(138,-17,o),
(282,-17,cs),
(498,-17,o)
);
}
);
width = 627;
},
{
layerId = "E9FB66CC-5D7A-47B2-9A25-A0E8EEF5BB81";
shapes = (
{
closed = 1;
nodes = (
(718,-24,l),
(640,135,o),
(543,231,o),
(445,309,cs),
(324,405,o),
(223,448,o),
(223,526,cs),
(223,568,o),
(255,601,o),
(307,601,cs),
(360,601,o),
(402,569,o),
(412,515,c),
(519,548,l),
(498,642,o),
(416,702,o),
(315,702,cs),
(185,702,o),
(104,615,o),
(104,518,cs),
(104,401,o),
(219,349,o),
(347,247,cs),
(457,160,o),
(570,52,o),
(607,-78,c)
);
},
{
closed = 1;
nodes = (
(616,170,o),
(614,388,c),
(497,388,l),
(498,205,o),
(446,90,o),
(322,90,cs),
(239,90,o),
(182,137,o),
(182,210,cs),
(182,265,o),
(213,307,o),
(274,341,c),
(195,390,l),
(97,344,o),
(55,261,o),
(55,186,cs),
(55,64,o),
(166,-17,o),
(316,-17,cs),
(542,-17,o)
);
}
);
width = 740;
},
{
associatedMasterId = m01;
layerId = "8F5F7A7A-D60F-47CB-966F-6BC6E0C9C75D";
name = "25 Mar 24 at 16:27";
shapes = (
{
closed = 1;
nodes = (
(632,28,l),
(610,92,o),
(559,167,o),
(506,214,cs),
(368,338,o),
(182,402,o),
(182,528,cs),
(182,587,o),
(221,622,o),
(287,622,cs),
(360,622,o),
(409,578,o),
(420,504,c),
(506,530,l),
(490,630,o),
(405,694,o),
(288,694,cs),
(168,694,o),
(92,631,o),
(92,532,cs),
(92,465,o),
(129,404,o),
(182,362,cs),
(412,180,ls),
(478,127,o),
(532,51,o),
(550,-16,c)
);
},
{
closed = 1;
nodes = (
(452,-14,o),
(587,130,o),
(598,340,c),
(512,352,l),
(509,173,o),
(418,60,o),
(278,60,cs),
(184,60,o),
(124,109,o),
(124,186,cs),
(124,254,o),
(168,311,o),
(238,332,c),
(196,364,l),
(97,342,o),
(30,266,o),
(30,176,cs),
(30,63,o),
(126,-14,o),
(266,-14,cs)
);
}
);
width = 656;
},
{
layerId = "980A8AF2-BF11-492D-9410-496A94B21BD3";
shapes = (
{
closed = 1;
nodes = (
(607,-25,l),
(576,104,o),
(500,196,o),
(416,274,cs),
(308,375,o),
(216,424,o),
(216,510,cs),
(216,575,o),
(263,619,o),
(336,619,cs),
(396,619,o),
(431,579,o),
(433,508,c),
(519,540,l),
(512,633,o),
(445,692,o),
(349,692,cs),
(213,692,o),
(125,614,o),
(125,496,cs),
(125,398,o),
(213,339,o),
(317,243,cs),
(409,158,o),
(503,50,o),
(522,-68,c)
);
},
{
closed = 1;
nodes = (
(553,158,o),
(581,373,c),
(499,373,l),
(478,214,o),
(423,58,o),
(261,58,cs),
(175,58,o),
(118,102,o),
(118,172,cs),
(118,239,o),
(159,298,o),
(229,336,c),
(189,381,l),
(87,337,o),
(24,253,o),
(24,162,cs),
(24,62,o),
(111,-17,o),
(243,-17,cs),
(459,-17,o)
);
}
);
width = 628;
},
{
associatedMasterId = "980A8AF2-BF11-492D-9410-496A94B21BD3";
layerId = "DF716681-3FC0-47F2-B222-3FF299A0B194";
name = "25 Mar 24 at 16:27";
shapes = (
{
closed = 1;
nodes = (
(632,28,l),
(610,92,o),
(559,167,o),
(506,214,cs),
(368,338,o),
(182,402,o),
(182,528,cs),
(182,587,o),
(221,622,o),
(287,622,cs),
(360,622,o),
(409,578,o),
(420,504,c),
(506,530,l),
(490,630,o),
(405,694,o),
(288,694,cs),
(168,694,o),
(92,631,o),
(92,532,cs),
(92,465,o),
(129,404,o),
(182,362,cs),
(412,180,ls),
(478,127,o),
(532,51,o),
(550,-16,c)
);
},
{
closed = 1;
nodes = (
(452,-14,o),
(587,130,o),
(598,340,c),
(512,352,l),
(509,173,o),
(418,60,o),
(278,60,cs),
(184,60,o),
(124,109,o),
(124,186,cs),
(124,254,o),
(168,311,o),
(238,332,c),
(196,364,l),
(97,342,o),
(30,266,o),
(30,176,cs),
(30,63,o),
(126,-14,o),
(266,-14,cs)
);
}
);
width = 656;
},
{
layerId = "829AF10C-3E33-4291-B5B6-8F7CF12D6A62";
shapes = (
{
closed = 1;
nodes = (
(677,-24,l),
(622,135,o),
(538,231,o),
(450,310,cs),
(349,400,o),
(259,444,o),
(259,514,cs),
(259,564,o),
(301,601,o),
(354,601,cs),
(409,601,o),
(445,567,o),
(447,515,c),
(554,548,l),
(546,642,o),
(472,702,o),
(371,702,cs),
(228,702,o),
(138,619,o),
(138,495,cs),
(138,395,o),
(234,346,o),
(344,247,cs),
(442,160,o),
(539,55,o),
(559,-78,c)
);
},
{
closed = 1;
nodes = (
(603,170,o),
(631,388,c),
(514,388,l),
(490,205,o),
(420,90,o),
(297,90,cs),
(222,90,o),
(173,129,o),
(173,192,cs),
(173,256,o),
(215,305,o),
(285,341,c),
(213,400,l),
(108,354,o),
(42,262,o),
(42,169,cs),
(42,62,o),
(138,-17,o),
(276,-17,cs),
(502,-17,o)
);
}
);
width = 741;
}
);
unicode = 38;
userData = {
KernOnSpecialSpacing = {
L = symbols;
R = symbols;
};
};
}
{
glyphname = quotesingle;
kernLeft = KO_quotedbl;
kernRight = KO_quotedbl;
layers = (
{
layerId = m01;
shapes = (
{
closed = 1;
nodes = (
(124,413,l),
(138,681,l),
(47,681,l),
(60,413,l)
);
}
);
width = 185;
},
{
layerId = "E9FB66CC-5D7A-47B2-9A25-A0E8EEF5BB81";
shapes = (
{
closed = 1;
nodes = (
(150,395,l),
(171,692,l),
(40,692,l),
(60,395,l)
);
}
);
width = 211;
},
{
layerId = "980A8AF2-BF11-492D-9410-496A94B21BD3";
shapes = (
{
closed = 1;
nodes = (
(144,413,l),
(196,681,l),
(105,681,l),
(80,413,l)
);
}
);
width = 185;
},
{
layerId = "829AF10C-3E33-4291-B5B6-8F7CF12D6A62";
shapes = (
{
closed = 1;
nodes = (
(167,395,l),
(230,692,l),
(99,692,l),
(77,395,l)
);
}
);
width = 211;
}
);
unicode = 39;
userData = {
KernOnSpecialSpacing = {
L = quotes;
R = quotes;
};
};
}
{
glyphname = parenleft;
kernLeft = KO_parenleft;
kernRight = KO_parenleft;
layers = (
{
layerId = m01;
shapes = (
{
closed = 1;
nodes = (
(260,-210,l),
(182,-88,o),
(138,68,o),
(138,232,cs),
(138,398,o),
(181,554,o),
(259,672,c),
(200,694,l),
(104,570,o),
(48,396,o),
(48,232,cs),
(48,67,o),
(104,-108,o),
(200,-232,c)
);
}
);
width = 270;
},
{
layerId = "E9FB66CC-5D7A-47B2-9A25-A0E8EEF5BB81";
shapes = (
{
closed = 1;
nodes = (
(290,-180,l),
(223,-70,o),
(186,78,o),
(186,237,cs),
(186,397,o),
(222,545,o),
(289,654,c),
(198,706,l),
(102,580,o),
(46,403,o),
(46,237,cs),
(46,71,o),
(104,-106,o),
(200,-232,c)
);
}
);
width = 298;
},
{
layerId = "980A8AF2-BF11-492D-9410-496A94B21BD3";
shapes = (
{
closed = 1;
nodes = (
(233,-210,l),
(188,-120,o),
(165,-8,o),
(165,106,cs),
(165,309,o),
(238,524,o),
(356,672,c),
(300,694,l),
(160,540,o),
(76,321,o),
(76,125,cs),
(76,-9,o),
(110,-137,o),
(170,-232,c)
);
}
);
width = 324;
},
{
layerId = "829AF10C-3E33-4291-B5B6-8F7CF12D6A62";
shapes = (
{
closed = 1;
nodes = (
(268,-180,l),
(231,-102,o),
(213,-4,o),
(213,101,cs),
(213,295,o),
(277,512,o),
(384,654,c),
(300,706,l),
(164,555,o),
(75,332,o),
(75,131,cs),
(75,4,o),
(106,-128,o),
(170,-232,c)
);
}
);
width = 351;
}
);
unicode = 40;
userData = {
KernOnSpecialSpacing = {
R = parenthesis;
};
};
}
{
glyphname = asterisk;
kernLeft = KO_asterisk;
kernRight = KO_asterisk;
layers = (
{
layerId = m01;
name = Regular;
shapes = (
{
closed = 1;
nodes = (
(100,562,l),
(156,554,l),
(156,558,l),
(112,516,l),
(78,466,l),
(130,428,l),
(166,476,l),
(191,524,l),
(187,524,l),
(212,476,l),
(248,428,l),
(300,466,l),
(266,516,l),
(222,558,l),
(222,554,l),
(278,562,l),
(334,580,l),
(316,644,l),
(258,626,l),
(210,600,l),
(214,596,l),
(222,652,l),
(222,712,l),
(156,712,l),
(156,652,l),
(164,596,l),
(168,600,l),
(120,626,l),
(62,644,l),
(44,580,l)
);
}
);
width = 378;
},
{
layerId = "E9FB66CC-5D7A-47B2-9A25-A0E8EEF5BB81";
shapes = (
{
closed = 1;
nodes = (
(103,540,l),
(175,529,l),
(175,568,l),
(110,507,l),
(67,444,l),
(139,391,l),
(184,452,l),
(219,519,l),
(183,519,l),
(218,452,l),
(263,391,l),
(335,444,l),
(292,507,l),
(227,568,l),
(227,529,l),
(299,540,l),
(370,562,l),
(345,650,l),
(271,628,l),
(208,593,l),
(235,566,l),
(247,646,l),
(247,722,l),
(155,722,l),
(155,646,l),
(167,566,l),
(195,593,l),
(130,628,l),
(56,651,l),
(32,562,l)
);
}
);
width = 402;
},
{
associatedMasterId = m01;
background = {
shapes = (
{
closed = 1;
nodes = (
(305,468,l),
(270,514,l),
(231,553,l),
(286,562,l),
(340,580,l),
(320,643,l),
(265,625,l),
(217,600,l),
(225,654,l),
(225,713,l),
(159,713,l),
(159,654,l),
(167,600,l),
(119,626,l),
(65,642,l),
(44,580,l),
(98,563,l),
(152,553,l),
(113,514,l),
(79,468,l),
(134,428,l),
(167,476,l),
(192,524,l),
(217,476,l),
(251,428,l)
);
}
);
};
layerId = "B917653A-9BE7-4628-89B3-6436212C65BF";
name = "30 apr 23, 10:40";
shapes = (
{
closed = 1;
nodes = (
(210,567,l),
(225,653,l),
(225,713,l),
(158,713,l),
(158,653,l),
(173,567,l)
);
},
{
closed = 1;
nodes = (
(197,549,l),
(283,561,l),
(339,580,l),
(319,643,l),
(262,625,l),
(186,584,l)
);
},
{
closed = 1;
nodes = (
(121,625,l),
(64,643,l),
(44,580,l),
(100,561,l),
(186,549,l),
(197,584,l)
);
},
{
closed = 1;
nodes = (
(178,553,l),
(216,475,l),
(251,428,l),
(305,467,l),
(271,515,l),
(208,575,l)
);
},
{
closed = 1;
nodes = (
(112,515,l),
(78,467,l),
(132,428,l),
(167,475,l),
(204,553,l),
(175,575,l)
);
}
);
width = 383;
},
{
layerId = "980A8AF2-BF11-492D-9410-496A94B21BD3";
name = Regular;
shapes = (
{
closed = 1;
nodes = (
(141,562,l),
(196,554,l),
(197,558,l),
(147,516,l),
(106,466,l),
(153,428,l),
(195,476,l),
(227,524,l),
(223,524,l),
(241,476,l),
(271,428,l),
(328,466,l),
(301,516,l),
(263,558,l),
(262,554,l),
(319,562,l),
(378,580,l),
(369,644,l),
(308,626,l),
(257,600,l),
(260,596,l),
(276,652,l),
(285,712,l),
(219,712,l),
(210,652,l),
(210,596,l),
(215,600,l),
(170,626,l),
(115,644,l),
(88,580,l)
);
}
);
width = 378;
},
{
associatedMasterId = "980A8AF2-BF11-492D-9410-496A94B21BD3";
background = {
shapes = (
{
closed = 1;
nodes = (
(305,468,l),
(270,514,l),
(231,553,l),
(286,562,l),
(340,580,l),
(320,643,l),
(265,625,l),
(217,600,l),
(225,654,l),
(225,713,l),
(159,713,l),
(159,654,l),
(167,600,l),
(119,626,l),
(65,642,l),
(44,580,l),
(98,563,l),
(152,553,l),
(113,514,l),
(79,468,l),
(134,428,l),
(167,476,l),
(192,524,l),
(217,476,l),
(251,428,l)
);
}
);
};
layerId = "3B558CE3-1C1B-4A7B-9495-5B64DA672D5F";
name = "30 apr 23, 10:40";
shapes = (
{
closed = 1;
nodes = (
(210,567,l),
(225,653,l),
(225,713,l),
(158,713,l),
(158,653,l),
(173,567,l)
);
},
{
closed = 1;
nodes = (
(197,549,l),
(283,561,l),
(339,580,l),
(319,643,l),
(262,625,l),
(186,584,l)
);
},
{
closed = 1;
nodes = (
(121,625,l),
(64,643,l),
(44,580,l),
(100,561,l),
(186,549,l),
(197,584,l)
);
},
{
closed = 1;
nodes = (
(178,553,l),
(216,475,l),
(251,428,l),
(305,467,l),
(271,515,l),
(208,575,l)
);
},
{
closed = 1;
nodes = (
(112,515,l),
(78,467,l),
(132,428,l),
(167,475,l),
(204,553,l),
(175,575,l)
);
}
);
width = 383;
},
{
layerId = "829AF10C-3E33-4291-B5B6-8F7CF12D6A62";
shapes = (
{
closed = 1;
nodes = (
(141,540,l),
(211,529,l),
(217,568,l),
(143,507,l),
(91,444,l),
(156,391,l),
(210,452,l),
(254,519,l),
(218,519,l),
(244,452,l),
(280,391,l),
(359,444,l),
(325,507,l),
(269,568,l),
(263,529,l),
(337,540,l),
(411,562,l),
(398,650,l),
(321,628,l),
(253,593,l),
(277,566,l),
(300,646,l),
(310,722,l),
(218,722,l),
(208,646,l),
(209,566,l),
(240,593,l),
(180,628,l),
(110,651,l),
(73,562,l)
);
}
);
width = 402;
}
);
metricRight = "=|";
unicode = 42;
userData = {
KernOnName = asterisk;
KernOnSpecialSpacing = {
L = quotes;
R = quotes;
};
};
}
{
glyphname = plus;
kernLeft = KO_plus;
kernRight = KO_plus;
layers = (
{
layerId = m01;
shapes = (
{
closed = 1;
nodes = (
(317,72,l),
(317,500,l),
(243,500,l),
(243,72,l)
);
},
{
closed = 1;
nodes = (
(512,248,l),
(512,320,l),
(48,320,l),
(48,248,l)
);
}
);
width = 560;
},
{
layerId = "E9FB66CC-5D7A-47B2-9A25-A0E8EEF5BB81";
shapes = (
{
closed = 1;
nodes = (
(328,61,l),
(328,512,l),
(215,512,l),
(215,61,l)
);
},
{
closed = 1;
nodes = (
(512,232,l),
(512,337,l),
(31,337,l),
(31,232,l)
);
}
);
width = 543;
},
{
layerId = "980A8AF2-BF11-492D-9410-496A94B21BD3";
shapes = (
{
closed = 1;
nodes = (
(335,72,l),
(395,500,l),
(321,500,l),
(261,72,l)
);
},
{
closed = 1;
nodes = (
(555,248,l),
(565,320,l),
(101,320,l),
(91,248,l)
);
}
);
width = 651;
},
{
layerId = "829AF10C-3E33-4291-B5B6-8F7CF12D6A62";
shapes = (
{
closed = 1;
nodes = (
(346,61,l),
(409,512,l),
(296,512,l),
(233,61,l)
);
},
{
closed = 1;
nodes = (
(554,232,l),
(569,337,l),
(88,337,l),
(73,232,l)
);
}
);
width = 639;
}
);
metricRight = "=|";
unicode = 43;
userData = {
KernOnSpecialSpacing = {
L = math;
R = math;
};
};
}
{
glyphname = comma;
kernLeft = KO_comma;
kernRight = KO_comma;
layers = (
{
layerId = m01;
shapes = (
{
closed = 1;
nodes = (
(122,-116,o),
(162,-60,o),
(162,8,cs),
(162,116,l),
(48,116,l),
(48,0,l),
(108,0,l),
(108,-8,ls),
(108,-48,o),
(82,-78,o),
(40,-88,c),
(58,-136,l)
);
}
);
width = 210;
},
{
layerId = "E9FB66CC-5D7A-47B2-9A25-A0E8EEF5BB81";
shapes = (
{
closed = 1;
nodes = (
(140,-138,o),
(195,-71,o),
(195,11,cs),
(195,153,l),
(45,153,l),
(45,0,l),
(119,0,l),
(119,-4,ls),
(119,-49,o),
(88,-81,o),
(35,-89,c),
(58,-156,l)
);
}
);
width = 236;
},
{
layerId = "980A8AF2-BF11-492D-9410-496A94B21BD3";
shapes = (
{
closed = 1;
nodes = (
(68,-116,o),
(116,-60,o),
(126,8,cs),
(141,116,l),
(27,116,l),
(10,0,l),
(70,0,l),
(69,-8,ls),
(64,-48,o),
(33,-78,o),
(-10,-88,c),
(1,-136,l)
);
}
);
width = 210;
},
{
layerId = "829AF10C-3E33-4291-B5B6-8F7CF12D6A62";
shapes = (
{
closed = 1;
nodes = (
(82,-138,o),
(146,-71,o),
(158,11,cs),
(178,153,l),
(28,153,l),
(7,0,l),
(81,0,l),
(80,-4,ls),
(73,-49,o),
(39,-81,o),
(-16,-89,c),
(-2,-156,l)
);
}
);
width = 236;
}
);
metricRight = period;
unicode = 44;
userData = {
KernOnName = comma;
KernOnSpecialSpacing = {
L = period;
R = period;
};
};
}
{
glyphname = hyphen;
kernLeft = KO_hyphen;
kernRight = KO_hyphen;
layers = (
{
layerId = m01;
shapes = (
{
closed = 1;
nodes = (
(318,227,l),
(318,301,l),
(52,301,l),
(52,227,l)
);
}
);
width = 370;
},
{
layerId = "E9FB66CC-5D7A-47B2-9A25-A0E8EEF5BB81";
shapes = (
{
closed = 1;
nodes = (
(350,219,l),
(350,330,l),
(52,330,l),
(52,219,l)
);
}
);
width = 402;
},
{
layerId = "980A8AF2-BF11-492D-9410-496A94B21BD3";
shapes = (
{
closed = 1;
nodes = (
(355,227,l),
(365,301,l),
(99,301,l),
(89,227,l)
);
}
);
width = 454;
},
{
layerId = "829AF10C-3E33-4291-B5B6-8F7CF12D6A62";
shapes = (
{
closed = 1;
nodes = (
(389,219,l),
(405,330,l),
(107,330,l),
(91,219,l)
);
}
);
width = 495;
}
);
metricRight = "=|";
unicode = 45;
userData = {
KernOnName = hyphen;
KernOnSpecialSpacing = {
L = hyphen;
R = hyphen;
};
};
}
{
glyphname = period;
kernLeft = KO_period;
kernRight = KO_period;
layers = (
{
layerId = m01;
shapes = (
{
closed = 1;
nodes = (
(160,0,l),
(160,116,l),
(48,116,l),
(48,0,l)
);
}
);
width = 208;
},
{
layerId = "E9FB66CC-5D7A-47B2-9A25-A0E8EEF5BB81";
shapes = (
{
closed = 1;
nodes = (
(195,0,l),
(195,153,l),
(41,153,l),
(41,0,l)
);
}
);
width = 236;
},
{
layerId = "980A8AF2-BF11-492D-9410-496A94B21BD3";
shapes = (
{
closed = 1;
nodes = (
(123,0,l),
(139,116,l),
(27,116,l),
(11,0,l)
);
}
);
width = 208;
},
{
layerId = "829AF10C-3E33-4291-B5B6-8F7CF12D6A62";
shapes = (
{
closed = 1;
nodes = (
(157,0,l),
(179,153,l),
(25,153,l),
(3,0,l)
);
}
);
width = 237;
}
);
metricRight = "=|";
unicode = 46;
userData = {
KernOnName = period;
KernOnSpecialSpacing = {
L = period;
R = period;
};
};
}
{
glyphname = slash;
kernLeft = KO_slash;
kernRight = KO_slash;
layers = (
{
layerId = m01;
shapes = (
{
closed = 1;
nodes = (
(94,-112,l),
(410,694,l),
(327,694,l),
(10,-112,l)
);
}
);
width = 420;
},
{
layerId = "E9FB66CC-5D7A-47B2-9A25-A0E8EEF5BB81";
shapes = (
{
closed = 1;
nodes = (
(144,-112,l),
(460,694,l),
(327,694,l),
(10,-112,l)
);
}
);
width = 470;
},
{
layerId = "980A8AF2-BF11-492D-9410-496A94B21BD3";
shapes = (
{
closed = 1;
nodes = (
(41,-112,l),
(357,694,l),
(274,694,l),
(-43,-112,l)
);
}
);
width = 307;
},
{
layerId = "829AF10C-3E33-4291-B5B6-8F7CF12D6A62";
shapes = (
{
closed = 1;
nodes = (
(90,-112,l),
(406,694,l),
(273,694,l),
(-44,-112,l)
);
}
);
width = 357;
}
);
metricRight = "=|";
unicode = 47;
userData = {
KernOnName = slash;
KernOnSpecialSpacing = {
L = slash;
R = slash;
};
};
}
{
glyphname = zero;
kernLeft = KO_zero;
kernRight = KO_zero;
layers = (
{
layerId = m01;
shapes = (
{
closed = 1;
nodes = (
(472,-14,o),
(578,128,o),
(578,340,cs),
(578,552,o),
(472,694,o),
(312,694,cs),
(152,694,o),
(46,552,o),
(46,340,cs),
(46,128,o),
(152,-14,o),
(312,-14,cs)
);
},
{
closed = 1;
nodes = (
(208,64,o),
(138,175,o),
(138,341,cs),
(138,507,o),
(208,618,o),
(312,618,cs),
(416,618,o),
(486,507,o),
(486,341,cs),
(486,175,o),
(416,64,o),
(312,64,cs)
);
}
);
width = 624;
},
{
layerId = "E9FB66CC-5D7A-47B2-9A25-A0E8EEF5BB81";
shapes = (
{
closed = 1;
nodes = (
(497,-14,o),
(612,130,o),
(612,346,cs),
(612,562,o),
(497,706,o),
(325,706,cs),
(153,706,o),
(38,562,o),
(38,346,cs),
(38,130,o),
(153,-14,o),
(325,-14,cs)
);
},
{
closed = 1;
nodes = (
(235,94,o),
(178,191,o),
(178,347,cs),
(178,503,o),
(235,600,o),
(325,600,cs),
(415,600,o),
(472,503,o),
(472,347,cs),
(472,191,o),
(415,94,o),
(325,94,cs)
);
}
);
width = 650;
},
{
layerId = "980A8AF2-BF11-492D-9410-496A94B21BD3";
shapes = (
{
closed = 1;
nodes = (
(450,-14,o),
(592,176,o),
(592,420,cs),
(592,587,o),
(508,694,o),
(370,694,cs),
(189,694,o),
(48,503,o),
(48,260,cs),
(48,94,o),
(131,-14,o),
(270,-14,cs)
);
},
{
closed = 1;
nodes = (
(189,65,o),
(140,143,o),
(140,264,cs),
(140,458,o),
(240,617,o),
(360,617,cs),
(447,617,o),
(500,539,o),
(500,418,cs),
(500,224,o),
(396,65,o),
(276,65,cs)
);
}
);
width = 619;
},
{
layerId = "829AF10C-3E33-4291-B5B6-8F7CF12D6A62";
shapes = (
{
closed = 1;
nodes = (
(480,-14,o),
(629,178,o),
(629,423,cs),
(629,595,o),
(538,706,o),
(387,706,cs),
(194,706,o),
(44,515,o),
(44,269,cs),
(44,97,o),
(135,-14,o),
(286,-14,cs)
);
},
{
closed = 1;
nodes = (
(219,95,o),
(178,164,o),
(181,277,cs),
(188,458,o),
(275,599,o),
(378,599,cs),
(455,599,o),
(495,529,o),
(492,417,cs),
(485,237,o),
(399,95,o),
(295,95,cs)
);
}
);
width = 653;
}
);
metricRight = "=|";
unicode = 48;
userData = {
KernOnName = zero;
};
}
{
glyphname = one;
kernLeft = KO_one;
kernRight = KO_one;
layers = (
{
background = {
shapes = (
{
closed = 1;
nodes = (
(291,0,l),
(291,681,l),
(213,681,l),
(183,608,o),
(113,556,o),
(30,545,c),
(35,460,l),
(115,471,o),
(184,513,o),
(211,565,c),
(204,565,l),
(204,0,l)
);
}
);
};
layerId = m01;
shapes = (
{
closed = 1;
nodes = (
(292,0,l),
(292,680,l),
(214,680,l),
(186,609,o),
(124,560,o),
(36,548,c),
(36,462,l),
(124,472,o),
(189,515,o),
(212,576,c),
(204,576,l),
(204,0,l)
);
}
);
width = 375;
},
{
layerId = "E9FB66CC-5D7A-47B2-9A25-A0E8EEF5BB81";
shapes = (
{
closed = 1;
nodes = (
(334,0,l),
(334,693,l),
(213,693,l),
(172,622,o),
(110,575,o),
(24,556,c),
(24,420,l),
(106,435,o),
(177,488,o),
(207,552,c),
(198,552,l),
(198,0,l)
);
}
);
width = 406;
},
{
background = {
shapes = (
{
closed = 1;
nodes = (
(321,0,l),
(321,681,l),
(243,681,l),
(213,608,o),
(143,556,o),
(60,545,c),
(65,460,l),
(145,471,o),
(214,513,o),
(241,565,c),
(234,565,l),
(234,0,l)
);
}
);
};
layerId = "980A8AF2-BF11-492D-9410-496A94B21BD3";
shapes = (
{
closed = 1;
nodes = (
(251,0,l),
(347,680,l),
(269,680,l),
(231,609,o),
(149,560,o),
(60,548,c),
(60,462,l),
(149,472,o),
(220,515,o),
(252,576,c),
(244,576,l),
(163,0,l)
);
}
);
width = 372;
},
{
layerId = "829AF10C-3E33-4291-B5B6-8F7CF12D6A62";
shapes = (
{
closed = 1;
nodes = (
(293,0,l),
(390,693,l),
(269,693,l),
(217,621,o),
(136,575,o),
(47,556,c),
(47,420,l),
(131,435,o),
(204,478,o),
(244,552,c),
(235,552,l),
(157,0,l)
);
}
);
width = 403;
}
);
metricRight = H;
unicode = 49;
}
{
glyphname = two;
kernLeft = KO_two;
kernRight = KO_two;
layers = (
{
layerId = m01;
shapes = (
{
closed = 1;
nodes = (
(501,0,l),
(501,82,l),
(139,82,l),
(144,72,l),
(168,141,o),
(236,187,o),
(305,236,cs),
(396,300,o),
(488,369,o),
(488,500,cs),
(488,616,o),
(403,694,o),
(271,694,cs),
(151,694,o),
(50,624,o),
(26,516,c),
(112,491,l),
(128,571,o),
(187,614,o),
(269,614,cs),
(346,614,o),
(398,569,o),
(398,496,cs),
(398,400,o),
(315,342,o),
(227,278,cs),
(140,214,o),
(49,144,o),
(34,24,cs),
(31,0,l)
);
}
);
width = 540;
},
{
layerId = "E9FB66CC-5D7A-47B2-9A25-A0E8EEF5BB81";
shapes = (
{
closed = 1;
nodes = (
(523,0,l),
(523,113,l),
(188,113,l),
(192,106,l),
(214,155,o),
(263,192,o),
(312,227,cs),
(404,294,o),
(511,359,o),
(511,499,cs),
(511,622,o),
(416,707,o),
(276,707,cs),
(143,707,o),
(39,638,o),
(12,526,c),
(138,483,l),
(146,557,o),
(203,601,o),
(273,601,cs),
(334,601,o),
(373,560,o),
(373,500,cs),
(373,417,o),
(305,365,o),
(230,307,cs),
(142,240,o),
(39,165,o),
(26,22,cs),
(24,0,l)
);
}
);
width = 558;
},
{
associatedMasterId = m01;
layerId = "14669DBD-BB92-4E43-8DF4-2BB941053677";
name = "6 Jun 23, 16:36";
shapes = (
{
closed = 1;
nodes = (
(502,0,l),
(502,78,l),
(136,78,l),
(175,233,o),
(497,283,o),
(497,499,cs),
(497,614,o),
(406,694,o),
(279,694,cs),
(153,694,o),
(50,614,o),
(26,499,c),
(115,476,l),
(130,566,o),
(195,621,o),
(277,621,cs),
(353,621,o),
(406,573,o),
(406,502,cs),
(406,309,o),
(33,282,o),
(33,19,cs),
(33,0,l)
);
}
);
width = 536;
},
{
layerId = "980A8AF2-BF11-492D-9410-496A94B21BD3";
shapes = (
{
closed = 1;
nodes = (
(472,0,l),
(484,82,l),
(122,82,l),
(124,72,l),
(156,135,o),
(217,180,o),
(281,222,cs),
(395,297,o),
(521,366,o),
(521,520,cs),
(521,629,o),
(438,694,o),
(318,694,cs),
(197,694,o),
(99,624,o),
(60,516,c),
(142,491,l),
(169,571,o),
(236,614,o),
(317,614,cs),
(387,614,o),
(430,577,o),
(430,506,cs),
(430,410,o),
(341,353,o),
(243,290,cs),
(142,225,o),
(32,153,o),
(-2,24,cs),
(-8,0,l)
);
}
);
width = 546;
},
{
associatedMasterId = "980A8AF2-BF11-492D-9410-496A94B21BD3";
layerId = "9BCCCB0F-37BD-4B48-A6F6-1BE05EADD9C7";
name = "6 Jun 23, 16:36";
shapes = (
{
closed = 1;
nodes = (
(502,0,l),
(502,78,l),
(136,78,l),
(175,233,o),
(497,283,o),
(497,499,cs),
(497,614,o),
(406,694,o),
(279,694,cs),
(153,694,o),
(50,614,o),
(26,499,c),
(115,476,l),
(130,566,o),
(195,621,o),
(277,621,cs),
(353,621,o),
(406,573,o),
(406,502,cs),
(406,309,o),
(33,282,o),
(33,19,cs),
(33,0,l)
);
}
);
width = 536;
},
{
layerId = "829AF10C-3E33-4291-B5B6-8F7CF12D6A62";
shapes = (
{
closed = 1;
nodes = (
(484,0,l),
(500,113,l),
(169,113,l),
(172,106,l),
(198,166,o),
(258,194,o),
(316,231,cs),
(423,298,o),
(544,358,o),
(544,523,cs),
(544,636,o),
(450,707,o),
(322,707,cs),
(189,707,o),
(90,638,o),
(47,526,c),
(167,483,l),
(185,557,o),
(239,601,o),
(306,601,cs),
(363,601,o),
(406,568,o),
(406,511,cs),
(406,421,o),
(329,371,o),
(241,315,cs),
(138,250,o),
(12,178,o),
(-16,22,cs),
(-20,0,l)
);
}
);
width = 554;
}
);
unicode = 50;
}
{
glyphname = three;
kernLeft = KO_three;
kernRight = KO_three;
layers = (
{
layerId = m01;
shapes = (
{
closed = 1;
nodes = (
(418,-14,o),
(512,66,o),
(512,190,cs),
(512,285,o),
(458,354,o),
(372,368,c),
(372,360,l),
(445,375,o),
(492,435,o),
(492,514,cs),
(492,621,o),
(405,694,o),
(277,694,cs),
(155,694,o),
(64,628,o),
(52,532,c),
(136,508,l),
(144,576,o),
(198,620,o),
(276,620,cs),
(353,620,o),
(402,576,o),
(402,508,cs),
(402,440,o),
(351,396,o),
(272,396,cs),
(200,396,l),
(200,328,l),
(276,328,ls),
(365,328,o),
(422,276,o),
(422,194,cs),
(422,112,o),
(365,60,o),
(276,60,cs),
(188,60,o),
(127,112,o),
(120,196,c),
(28,180,l),
(36,64,o),
(138,-14,o),
(278,-14,cs)
);
}
);
width = 556;
},
{
layerId = "E9FB66CC-5D7A-47B2-9A25-A0E8EEF5BB81";
shapes = (
{
closed = 1;
nodes = (
(434,-15,o),
(540,69,o),
(540,195,cs),
(540,288,o),
(481,357,o),
(389,370,c),
(389,363,l),
(467,381,o),
(514,443,o),
(514,519,cs),
(514,631,o),
(419,707,o),
(281,707,cs),
(147,707,o),
(49,636,o),
(37,543,c),
(162,502,l),
(171,567,o),
(216,608,o),
(277,608,cs),
(338,608,o),
(376,570,o),
(376,510,cs),
(376,447,o),
(336,407,o),
(274,407,cs),
(204,407,l),
(204,322,l),
(281,322,ls),
(354,322,o),
(400,275,o),
(400,203,cs),
(400,131,o),
(354,86,o),
(281,86,cs),
(210,86,o),
(161,133,o),
(155,208,c),
(17,179,l),
(28,63,o),
(132,-15,o),
(279,-15,cs)
);
}
);
width = 575;
},
{
associatedMasterId = m01;
layerId = "3350A466-376B-43A6-A60A-32D5F9FB2412";
name = "6 Jun 23, 16:38";
shapes = (
{
closed = 1;
nodes = (
(425,-13,o),
(523,68,o),
(523,186,cs),
(523,277,o),
(463,350,o),
(376,365,c),
(376,357,l),
(448,372,o),
(499,436,o),
(499,515,cs),
(499,621,o),
(411,694,o),
(283,694,cs),
(156,694,o),
(60,621,o),
(41,513,c),
(127,491,l),
(142,572,o),
(206,623,o),
(287,623,cs),
(362,623,o),
(409,580,o),
(409,510,cs),
(409,439,o),
(359,394,o),
(279,394,cs),
(220,394,l),
(220,324,l),
(279,324,ls),
(371,324,o),
(430,272,o),
(430,191,cs),
(430,111,o),
(373,60,o),
(285,60,cs),
(189,60,o),
(123,119,o),
(115,212,c),
(22,197,l),
(33,73,o),
(138,-13,o),
(283,-13,cs)
);
}
);
width = 560;
},
{
layerId = "980A8AF2-BF11-492D-9410-496A94B21BD3";
shapes = (
{
closed = 1;
nodes = (
(393,-14,o),
(502,85,o),
(502,222,cs),
(502,302,o),
(457,356,o),
(384,368,c),
(383,360,l),
(467,377,o),
(527,451,o),
(527,540,cs),
(527,633,o),
(449,694,o),
(332,694,cs),
(211,694,o),
(113,628,o),
(87,532,c),
(168,508,l),
(186,576,o),
(247,620,o),
(326,620,cs),
(395,620,o),
(437,584,o),
(437,526,cs),
(437,450,o),
(376,396,o),
(288,396,cs),
(216,396,l),
(207,328,l),
(283,328,ls),
(363,328,o),
(412,285,o),
(412,217,cs),
(412,125,o),
(340,60,o),
(242,60,cs),
(155,60,o),
(100,112,o),
(105,196,c),
(14,180,l),
(6,64,o),
(99,-14,o),
(239,-14,cs)
);
}
);
width = 552;
},
{
associatedMasterId = "980A8AF2-BF11-492D-9410-496A94B21BD3";
layerId = "E470E8C1-55E3-4055-89E9-D4A43CEC1CBF";
name = "6 Jun 23, 16:38";
shapes = (
{
closed = 1;
nodes = (
(425,-13,o),
(523,68,o),
(523,186,cs),
(523,277,o),
(463,350,o),
(376,365,c),
(376,357,l),
(448,372,o),
(499,436,o),
(499,515,cs),
(499,621,o),
(411,694,o),
(283,694,cs),
(156,694,o),
(60,621,o),
(41,513,c),
(127,491,l),
(142,572,o),
(206,623,o),
(287,623,cs),
(362,623,o),
(409,580,o),
(409,510,cs),
(409,439,o),
(359,394,o),
(279,394,cs),
(220,394,l),
(220,324,l),
(279,324,ls),
(371,324,o),
(430,272,o),
(430,191,cs),
(430,111,o),
(373,60,o),
(285,60,cs),
(189,60,o),
(123,119,o),
(115,212,c),
(22,197,l),
(33,73,o),
(138,-13,o),
(283,-13,cs)
);
}
);
width = 560;
},
{
layerId = "829AF10C-3E33-4291-B5B6-8F7CF12D6A62";
shapes = (
{
closed = 1;
nodes = (
(406,-15,o),
(530,86,o),
(530,224,cs),
(530,304,o),
(480,359,o),
(402,370,c),
(401,363,l),
(489,383,o),
(550,457,o),
(550,545,cs),
(550,643,o),
(467,707,o),
(341,707,cs),
(208,707,o),
(99,636,o),
(74,543,c),
(193,502,l),
(212,568,o),
(263,608,o),
(323,608,cs),
(378,608,o),
(410,577,o),
(410,528,cs),
(410,458,o),
(360,407,o),
(292,407,cs),
(222,407,l),
(210,322,l),
(287,322,ls),
(352,322,o),
(391,284,o),
(391,225,cs),
(391,143,o),
(334,86,o),
(254,86,cs),
(179,86,o),
(141,137,o),
(145,208,c),
(3,179,l),
(-2,63,o),
(90,-15,o),
(238,-15,cs)
);
}
);
width = 571;
}
);
metricRight = eight;
unicode = 51;
}
{
glyphname = four;
kernLeft = KO_four;
kernRight = KO_four;
layers = (
{
layerId = m01;
shapes = (
{
closed = 1;
nodes = (
(438,0,l),
(438,680,l),
(354,680,l),
(16,240,l),
(16,160,l),
(522,160,l),
(522,236,l),
(84,236,l),
(97,228,l),
(364,580,l),
(350,580,l),
(350,0,l)
);
}
);
width = 547;
},
{
layerId = "E9FB66CC-5D7A-47B2-9A25-A0E8EEF5BB81";
shapes = (
{
closed = 1;
nodes = (
(480,0,l),
(480,692,l),
(359,692,l),
(13,246,l),
(13,149,l),
(569,149,l),
(569,257,l),
(127,257,l),
(133,246,l),
(355,537,l),
(344,540,l),
(344,0,l)
);
}
);
width = 581;
},
{
associatedMasterId = m01;
layerId = "E86B6585-58E5-417F-A50D-8044A7D1B55D";
name = "6 ago 23, 18:28";
shapes = (
{
closed = 1;
nodes = (
(430,0,l),
(430,681,l),
(344,681,l),
(15,247,l),
(15,169,l),
(515,169,l),
(515,244,l),
(100,244,l),
(342,573,l),
(342,0,l)
);
}
);
width = 528;
},
{
associatedMasterId = "E9FB66CC-5D7A-47B2-9A25-A0E8EEF5BB81";
layerId = "07B64D37-A9E4-423F-98B0-92B319495AE6";
name = "6 ago 23, 18:28";
shapes = (
{
closed = 1;
nodes = (
(471,0,l),
(471,692,l),
(363,692,l),
(9,238,l),
(9,149,l),
(560,149,l),
(560,260,l),
(147,260,l),
(340,513,l),
(340,0,l)
);
}
);
width = 569;
},
{
layerId = "980A8AF2-BF11-492D-9410-496A94B21BD3";
shapes = (
{
closed = 1;
nodes = (
(400,0,l),
(495,680,l),
(411,680,l),
(11,240,l),
(0,160,l),
(506,160,l),
(517,236,l),
(79,236,l),
(93,224,l),
(409,576,l),
(393,580,l),
(312,0,l)
);
}
);
width = 545;
},
{
associatedMasterId = "980A8AF2-BF11-492D-9410-496A94B21BD3";
layerId = "33D5A5E8-9CE5-4024-AC12-C2CAF7AF5BE8";
name = "6 ago 23, 18:28";
shapes = (
{
closed = 1;
nodes = (
(430,0,l),
(430,681,l),
(344,681,l),
(15,247,l),
(15,169,l),
(515,169,l),
(515,244,l),
(100,244,l),
(342,573,l),
(342,0,l)
);
}
);
width = 528;
},
{
layerId = "829AF10C-3E33-4291-B5B6-8F7CF12D6A62";
shapes = (
{
closed = 1;
nodes = (
(441,0,l),
(538,692,l),
(417,692,l),
(9,246,l),
(-5,149,l),
(551,149,l),
(566,257,l),
(124,257,l),
(131,244,l),
(394,535,l),
(381,540,l),
(305,0,l)
);
}
);
width = 579;
},
{
associatedMasterId = "829AF10C-3E33-4291-B5B6-8F7CF12D6A62";
layerId = "03645C68-03C0-46F2-BEFD-5BB42D005A36";
name = "6 ago 23, 18:28";
shapes = (
{
closed = 1;
nodes = (
(471,0,l),
(471,692,l),
(363,692,l),
(9,238,l),
(9,149,l),
(560,149,l),
(560,260,l),
(147,260,l),
(340,513,l),
(340,0,l)
);
}
);
width = 569;
}
);
unicode = 52;
}
{
glyphname = five;
kernLeft = KO_five;
kernRight = KO_five;
layers = (
{
layerId = m01;
shapes = (
{
closed = 1;
nodes = (
(429,-14,o),
(529,84,o),
(529,227,cs),
(529,358,o),
(439,448,o),
(307,448,cs),
(226,448,o),
(157,414,o),
(135,364,c),
(143,364,l),
(175,602,l),
(491,602,l),
(491,680,l),
(111,680,l),
(67,332,l),
(155,312,l),
(180,354,o),
(227,378,o),
(285,378,cs),
(379,378,o),
(439,318,o),
(439,224,cs),
(439,124,o),
(379,60,o),
(285,60,cs),
(201,60,o),
(141,115,o),
(131,200,c),
(37,178,l),
(52,63,o),
(152,-14,o),
(283,-14,cs)
);
}
);
width = 568;
},
{
layerId = "E9FB66CC-5D7A-47B2-9A25-A0E8EEF5BB81";
shapes = (
{
closed = 1;
nodes = (
(453,-15,o),
(559,76,o),
(559,227,cs),
(559,366,o),
(461,458,o),
(324,458,cs),
(231,458,o),
(159,420,o),
(136,361,c),
(177,361,l),
(210,586,l),
(519,586,l),
(519,693,l),
(104,693,l),
(56,313,l),
(170,287,l),
(191,325,o),
(235,350,o),
(296,350,cs),
(370,350,o),
(419,300,o),
(419,223,cs),
(419,150,o),
(379,97,o),
(296,97,cs),
(231,97,o),
(184,136,o),
(177,195,c),
(43,177,l),
(58,63,o),
(159,-15,o),
(301,-15,cs)
);
}
);
width = 585;
},
{
layerId = "980A8AF2-BF11-492D-9410-496A94B21BD3";
shapes = (
{
closed = 1;
nodes = (
(411,-14,o),
(524,107,o),
(524,264,cs),
(524,374,o),
(445,448,o),
(326,448,cs),
(246,448,o),
(174,414,o),
(145,364,c),
(162,364,l),
(224,602,l),
(536,602,l),
(547,680,l),
(167,680,l),
(74,332,l),
(159,312,l),
(190,354,o),
(243,378,o),
(301,378,cs),
(385,378,o),
(433,330,o),
(433,252,cs),
(433,142,o),
(353,60,o),
(250,60,cs),
(165,60,o),
(110,115,o),
(112,200,c),
(22,178,l),
(21,63,o),
(111,-14,o),
(244,-14,cs)
);
}
);
width = 563;
},
{
layerId = "829AF10C-3E33-4291-B5B6-8F7CF12D6A62";
shapes = (
{
closed = 1;
nodes = (
(428,-15,o),
(553,103,o),
(553,266,cs),
(553,383,o),
(471,458,o),
(347,458,cs),
(254,458,o),
(177,420,o),
(146,361,c),
(187,361,l),
(254,586,l),
(560,586,l),
(576,693,l),
(161,693,l),
(59,313,l),
(169,287,l),
(196,325,o),
(243,350,o),
(304,350,cs),
(370,350,o),
(411,310,o),
(411,246,cs),
(411,158,o),
(353,97,o),
(269,97,cs),
(204,97,o),
(162,136,o),
(164,195,c),
(27,177,l),
(26,63,o),
(116,-15,o),
(258,-15,cs)
);
}
);
width = 582;
}
);
unicode = 53;
}
{
glyphname = six;
kernLeft = KO_six;
kernRight = KO_six;
layers = (
{
layerId = m01;
shapes = (
{
closed = 1;
nodes = (
(447,-14,o),
(543,81,o),
(543,221,cs),
(543,352,o),
(451,444,o),
(318,444,cs),
(219,444,o),
(145,402,o),
(124,339,c),
(133,339,l),
(132,518,o),
(209,631,o),
(316,631,cs),
(374,631,o),
(419,595,o),
(437,536,c),
(521,567,l),
(492,650,o),
(414,703,o),
(322,703,cs),
(143,703,o),
(46,536,o),
(46,314,cs),
(46,125,o),
(122,-14,o),
(309,-14,cs)
);
},
{
closed = 1;
nodes = (
(213,62,o),
(151,127,o),
(151,226,cs),
(151,318,o),
(212,376,o),
(305,376,cs),
(397,376,o),
(453,315,o),
(453,222,cs),
(453,126,o),
(396,62,o),
(305,62,cs)
);
}
);
width = 594;
},
{
layerId = "E9FB66CC-5D7A-47B2-9A25-A0E8EEF5BB81";
shapes = (
{
closed = 1;
nodes = (
(477,-9,o),
(579,87,o),
(579,222,cs),
(579,362,o),
(480,451,o),
(336,451,cs),
(233,451,o),
(151,405,o),
(132,333,c),
(158,334,l),
(154,489,o),
(213,601,o),
(326,601,cs),
(385,601,o),
(428,569,o),
(443,511,c),
(556,555,l),
(528,645,o),
(436,704,o),
(328,704,cs),
(153,704,o),
(38,562,o),
(38,343,cs),
(35,139,o),
(123,-20,o),
(327,-15,cs)
);
},
{
closed = 1;
nodes = (
(237,80,o),
(186,137,o),
(186,223,cs),
(186,306,o),
(237,358,o),
(315,358,cs),
(390,358,o),
(442,303,o),
(442,219,cs),
(442,137,o),
(391,80,o),
(314,80,cs)
);
}
);
width = 610;
},
{
layerId = "980A8AF2-BF11-492D-9410-496A94B21BD3";
shapes = (
{
closed = 1;
nodes = (
(423,-14,o),
(540,104,o),
(540,258,cs),
(540,369,o),
(463,444,o),
(343,444,cs),
(245,444,o),
(164,402,o),
(135,339,c),
(143,339,l),
(167,519,o),
(257,631,o),
(363,631,cs),
(420,631,o),
(461,595,o),
(470,536,c),
(559,567,l),
(541,650,o),
(471,703,o),
(379,703,cs),
(194,703,o),
(48,529,o),
(48,249,cs),
(48,91,o),
(124,-14,o),
(273,-14,cs)
);
},
{
closed = 1;
nodes = (
(195,62,o),
(143,114,o),
(143,196,cs),
(143,302,o),
(217,376,o),
(321,376,cs),
(403,376,o),
(449,327,o),
(449,251,cs),
(449,143,o),
(376,62,o),
(277,62,cs)
);
}
);
width = 591;
},
{
layerId = "829AF10C-3E33-4291-B5B6-8F7CF12D6A62";
shapes = (
{
closed = 1;
nodes = (
(449,-10,o),
(577,105,o),
(577,260,cs),
(577,378,o),
(493,451,o),
(363,451,cs),
(260,451,o),
(172,405,o),
(143,333,c),
(169,334,l),
(187,492,o),
(263,601,o),
(374,601,cs),
(433,601,o),
(472,569,o),
(479,511,c),
(598,555,l),
(582,645,o),
(499,704,o),
(391,704,cs),
(215,704,o),
(81,562,o),
(49,340,cs),
(19,138,o),
(87,-22,o),
(289,-15,cs)
);
},
{
closed = 1;
nodes = (
(221,80,o),
(179,125,o),
(179,195,cs),
(179,290,o),
(241,358,o),
(329,358,cs),
(396,358,o),
(438,314,o),
(438,245,cs),
(438,152,o),
(374,80,o),
(289,80,cs)
);
}
);
width = 610;
}
);
metricLeft = zero;
unicode = 54;
}
{
glyphname = seven;
kernLeft = KO_seven;
kernRight = KO_seven;
layers = (
{
layerId = m01;
shapes = (
{
closed = 1;
nodes = (
(219,0,l),
(226,229,o),
(309,441,o),
(457,609,c),
(457,680,l),
(23,680,l),
(23,602,l),
(363,602,l),
(359,610,l),
(229,459,o),
(136,224,o),
(125,0,c)
);
}
);
width = 473;
},
{
layerId = "E9FB66CC-5D7A-47B2-9A25-A0E8EEF5BB81";
shapes = (
{
closed = 1;
nodes = (
(269,0,l),
(288,257,o),
(373,469,o),
(518,607,c),
(518,693,l),
(7,693,l),
(7,585,l),
(362,585,l),
(358,593,l),
(232,447,o),
(142,220,o),
(128,0,c)
);
}
);
width = 527;
},
{
layerId = "980A8AF2-BF11-492D-9410-496A94B21BD3";
shapes = (
{
closed = 1;
nodes = (
(179,0,l),
(219,229,o),
(331,440,o),
(503,609,c),
(513,680,l),
(79,680,l),
(68,602,l),
(408,602,l),
(405,610,l),
(254,459,o),
(128,224,o),
(85,0,c)
);
}
);
width = 470;
},
{
layerId = "829AF10C-3E33-4291-B5B6-8F7CF12D6A62";
shapes = (
{
closed = 1;
nodes = (
(230,0,l),
(284,255,o),
(400,469,o),
(564,607,c),
(576,693,l),
(65,693,l),
(50,585,l),
(405,585,l),
(402,593,l),
(256,447,o),
(134,221,o),
(89,0,c)
);
}
);
width = 526;
}
);
unicode = 55;
}
{
glyphname = eight;
kernLeft = KO_eight;
kernRight = KO_three;
layers = (
{
layerId = m01;
shapes = (
{
closed = 1;
nodes = (
(455,-14,o),
(560,69,o),
(560,188,cs),
(560,274,o),
(504,346,o),
(416,372,c),
(416,364,l),
(488,382,o),
(534,440,o),
(534,514,cs),
(534,621,o),
(440,694,o),
(302,694,cs),
(164,694,o),
(70,621,o),
(70,514,cs),
(70,440,o),
(116,382,o),
(188,364,c),
(188,372,l),
(100,346,o),
(44,274,o),
(44,188,cs),
(44,69,o),
(149,-14,o),
(302,-14,cs)
);
},
{
closed = 1;
nodes = (
(202,60,o),
(138,113,o),
(138,196,cs),
(138,279,o),
(202,332,o),
(302,332,cs),
(402,332,o),
(466,279,o),
(466,196,cs),
(466,113,o),
(402,60,o),
(302,60,cs)
);
},
{
closed = 1;
nodes = (
(215,398,o),
(160,442,o),
(160,510,cs),
(160,578,o),
(215,622,o),
(302,622,cs),
(389,622,o),
(444,578,o),
(444,510,cs),
(444,442,o),
(389,398,o),
(302,398,cs)
);
}
);
width = 604;
},
{
layerId = "E9FB66CC-5D7A-47B2-9A25-A0E8EEF5BB81";
shapes = (
{
closed = 1;
nodes = (
(479,-13,o),
(593,71,o),
(593,193,cs),
(593,275,o),
(545,344,o),
(464,378,c),
(464,370,l),
(531,396,o),
(567,450,o),
(567,517,cs),
(567,630,o),
(465,707,o),
(314,707,cs),
(163,707,o),
(61,630,o),
(61,517,cs),
(61,450,o),
(99,396,o),
(166,370,c),
(166,378,l),
(84,344,o),
(35,275,o),
(35,193,cs),
(35,71,o),
(148,-13,o),
(314,-13,cs)
);
},
{
closed = 1;
nodes = (
(230,91,o),
(176,138,o),
(176,211,cs),
(176,285,o),
(230,331,o),
(314,331,cs),
(398,331,o),
(452,285,o),
(452,211,cs),
(452,138,o),
(398,91,o),
(314,91,cs)
);
},
{
closed = 1;
nodes = (
(240,413,o),
(193,450,o),
(193,509,cs),
(193,567,o),
(240,605,o),
(314,605,cs),
(387,605,o),
(435,567,o),
(435,509,cs),
(435,450,o),
(387,413,o),
(314,413,cs)
);
}
);
width = 628;
},
{
layerId = "980A8AF2-BF11-492D-9410-496A94B21BD3";
shapes = (
{
closed = 1;
nodes = (
(424,-14,o),
(548,84,o),
(548,215,cs),
(548,288,o),
(503,349,o),
(428,372,c),
(427,364,l),
(510,384,o),
(567,455,o),
(567,538,cs),
(567,632,o),
(486,694,o),
(359,694,cs),
(210,694,o),
(100,607,o),
(100,490,cs),
(100,428,o),
(137,380,o),
(199,364,c),
(200,372,l),
(98,343,o),
(28,257,o),
(28,161,cs),
(28,57,o),
(118,-14,o),
(260,-14,cs)
);
},
{
closed = 1;
nodes = (
(179,60,o),
(124,104,o),
(124,175,cs),
(124,267,o),
(199,332,o),
(308,332,cs),
(399,332,o),
(455,288,o),
(455,217,cs),
(455,125,o),
(379,60,o),
(270,60,cs)
);
},
{
closed = 1;
nodes = (
(238,398,o),
(190,435,o),
(190,494,cs),
(190,569,o),
(255,622,o),
(349,622,cs),
(428,622,o),
(476,585,o),
(476,526,cs),
(476,451,o),
(411,398,o),
(317,398,cs)
);
}
);
width = 598;
},
{
layerId = "829AF10C-3E33-4291-B5B6-8F7CF12D6A62";
shapes = (
{
closed = 1;
nodes = (
(450,-13,o),
(581,86,o),
(581,221,cs),
(581,291,o),
(543,348,o),
(476,378,c),
(475,370,l),
(549,397,o),
(600,461,o),
(600,542,cs),
(600,641,o),
(512,707,o),
(372,707,cs),
(210,707,o),
(91,616,o),
(91,494,cs),
(91,438,o),
(121,393,o),
(177,370,c),
(178,378,l),
(81,340,o),
(19,257,o),
(19,167,cs),
(19,59,o),
(118,-13,o),
(271,-13,cs)
);
},
{
closed = 1;
nodes = (
(209,91,o),
(163,130,o),
(163,192,cs),
(163,274,o),
(228,331,o),
(319,331,cs),
(395,331,o),
(442,293,o),
(442,231,cs),
(442,149,o),
(377,91,o),
(286,91,cs)
);
},
{
closed = 1;
nodes = (
(263,413,o),
(222,444,o),
(222,495,cs),
(222,560,o),
(279,605,o),
(358,605,cs),
(424,605,o),
(466,573,o),
(466,523,cs),
(466,458,o),
(410,413,o),
(331,413,cs)
);
}
);
width = 622;
}
);
metricRight = "=|";
unicode = 56;
}
{
glyphname = nine;
kernLeft = KO_nine;
kernRight = KO_nine;
layers = (
{
background = {
shapes = (
{
closed = 1;
nodes = (
(436,-14,o),
(532,111,o),
(532,325,cs),
(532,463,o),
(503,567,o),
(440,629,cs),
(399,670,o),
(345,693,o),
(280,693,cs),
(142,693,o),
(51,603,o),
(51,471,cs),
(51,340,o),
(140,253,o),
(266,253,cs),
(369,253,o),
(438,300,o),
(455,369,c),
(447,369,l),
(448,354,o),
(448,339,o),
(448,324,cs),
(448,153,o),
(390,60,o),
(279,60,cs),
(212,60,o),
(160,100,o),
(140,163,c),
(53,135,l),
(80,45,o),
(171,-14,o),
(275,-14,cs)
);
},
{
closed = 1;
nodes = (
(195,324,o),
(141,382,o),
(141,474,cs),
(141,563,o),
(193,622,o),
(280,622,cs),
(367,622,o),
(425,560,o),
(425,462,cs),
(425,379,o),
(369,324,o),
(280,324,cs)
);
}
);
};
layerId = m01;
name = Regular;
shapes = (
{
closed = 1;
nodes = (
(446,-14,o),
(535,134,o),
(535,348,cs),
(535,546,o),
(467,694,o),
(281,694,cs),
(145,694,o),
(53,604,o),
(53,472,cs),
(53,340,o),
(141,252,o),
(269,252,cs),
(371,252,o),
(441,296,o),
(457,368,c),
(449,368,l),
(457,244,o),
(426,60,o),
(278,60,cs),
(211,60,o),
(159,101,o),
(139,164,c),
(53,136,l),
(80,46,o),
(171,-14,o),
(275,-14,cs)
);
},
{
closed = 1;
nodes = (
(198,324,o),
(143,381,o),
(143,473,cs),
(143,565,o),
(198,622,o),
(285,622,cs),
(372,622,o),
(427,565,o),
(427,473,cs),
(427,381,o),
(372,324,o),
(285,324,cs)
);
}
);
width = 581;
},
{
layerId = "E9FB66CC-5D7A-47B2-9A25-A0E8EEF5BB81";
shapes = (
{
closed = 1;
nodes = (
(461,-16,o),
(568,131,o),
(568,344,cs),
(568,541,o),
(484,703,o),
(287,703,cs),
(130,703,o),
(28,605,o),
(28,472,cs),
(28,335,o),
(126,251,o),
(259,251,cs),
(356,251,o),
(419,284,o),
(452,341,c),
(444,341,l),
(444,195,o),
(394,87,o),
(283,87,cs),
(218,87,o),
(168,118,o),
(150,176,c),
(37,131,l),
(68,42,o),
(166,-16,o),
(280,-16,cs)
);
},
{
closed = 1;
nodes = (
(210,345,o),
(160,395,o),
(160,479,cs),
(160,553,o),
(211,608,o),
(291,608,cs),
(365,608,o),
(416,551,o),
(416,474,cs),
(416,392,o),
(364,345,o),
(285,345,cs)
);
}
);
width = 606;
},
{
associatedMasterId = m01;
layerId = "2171C64F-D7EA-408E-8EA1-99417316F494";
name = "15 apr 23, 22:17";
shapes = (
{
closed = 1;
nodes = (
(429,-12,o),
(538,136,o),
(538,374,cs),
(538,576,o),
(443,693,o),
(283,693,cs),
(143,693,o),
(49,602,o),
(49,467,cs),
(49,336,o),
(139,247,o),
(272,247,cs),
(367,247,o),
(443,294,o),
(462,366,c),
(450,366,l),
(448,171,o),
(384,60,o),
(270,60,cs),
(197,60,o),
(145,104,o),
(133,175,c),
(44,155,l),
(64,56,o),
(153,-12,o),
(266,-12,cs)
);
},
{
closed = 1;
nodes = (
(197,315,o),
(140,374,o),
(140,469,cs),
(140,565,o),
(197,622,o),
(289,622,cs),
(380,622,o),
(439,565,o),
(439,469,cs),
(439,374,o),
(380,315,o),
(289,315,cs)
);
}
);
width = 582;
},
{
background = {
shapes = (
{
closed = 1;
nodes = (
(418,-14,o),
(514,111,o),
(514,325,cs),
(514,463,o),
(485,567,o),
(422,629,cs),
(381,670,o),
(327,693,o),
(262,693,cs),
(124,693,o),
(33,603,o),
(33,471,cs),
(33,340,o),
(122,253,o),
(248,253,cs),
(351,253,o),
(420,300,o),
(437,369,c),
(429,369,l),
(430,354,o),
(430,339,o),
(430,324,cs),
(430,153,o),
(372,60,o),
(261,60,cs),
(194,60,o),
(142,100,o),
(122,163,c),
(35,135,l),
(62,45,o),
(153,-14,o),
(257,-14,cs)
);
},
{
closed = 1;
nodes = (
(177,324,o),
(123,382,o),
(123,474,cs),
(123,563,o),
(175,622,o),
(262,622,cs),
(349,622,o),
(407,560,o),
(407,462,cs),
(407,379,o),
(351,324,o),
(262,324,cs)
);
}
);
};
layerId = "980A8AF2-BF11-492D-9410-496A94B21BD3";
name = Regular;
shapes = (
{
closed = 1;
nodes = (
(434,-14,o),
(547,177,o),
(547,439,cs),
(547,589,o),
(490,694,o),
(337,694,cs),
(188,694,o),
(75,583,o),
(75,433,cs),
(75,323,o),
(149,252,o),
(263,252,cs),
(364,252,o),
(441,295,o),
(468,368,c),
(460,368,l),
(447,218,o),
(390,60,o),
(248,60,cs),
(182,60,o),
(134,101,o),
(123,164,c),
(33,136,l),
(47,46,o),
(131,-14,o),
(234,-14,cs)
);
},
{
closed = 1;
nodes = (
(212,324,o),
(166,370,o),
(166,444,cs),
(166,548,o),
(235,622,o),
(331,622,cs),
(408,622,o),
(454,577,o),
(454,502,cs),
(454,398,o),
(386,324,o),
(289,324,cs)
);
}
);
width = 574;
},
{
associatedMasterId = "980A8AF2-BF11-492D-9410-496A94B21BD3";
layerId = "A223AC96-2176-46BE-BE91-E5ADD310CB67";
name = "15 apr 23, 22:17";
shapes = (
{
closed = 1;
nodes = (
(429,-12,o),
(538,136,o),
(538,374,cs),
(538,576,o),
(443,693,o),
(283,693,cs),
(143,693,o),
(49,602,o),
(49,467,cs),
(49,336,o),
(139,247,o),
(272,247,cs),
(367,247,o),
(443,294,o),
(462,366,c),
(450,366,l),
(448,171,o),
(384,60,o),
(270,60,cs),
(197,60,o),
(145,104,o),
(133,175,c),
(44,155,l),
(64,56,o),
(153,-12,o),
(266,-12,cs)
);
},
{
closed = 1;
nodes = (
(197,315,o),
(140,374,o),
(140,469,cs),
(140,565,o),
(197,622,o),
(289,622,cs),
(380,622,o),
(439,565,o),
(439,469,cs),
(439,374,o),
(380,315,o),
(289,315,cs)
);
}
);
width = 582;
},
{
layerId = "829AF10C-3E33-4291-B5B6-8F7CF12D6A62";
shapes = (
{
closed = 1;
nodes = (
(437,-16,o),
(583,172,o),
(583,430,cs),
(583,585,o),
(514,703,o),
(346,703,cs),
(179,703,o),
(52,588,o),
(52,435,cs),
(52,320,o),
(135,251,o),
(255,251,cs),
(349,251,o),
(418,282,o),
(461,341,c),
(453,341,l),
(432,194,o),
(366,87,o),
(256,87,cs),
(191,87,o),
(145,118,o),
(135,176,c),
(16,131,l),
(35,40,o),
(127,-16,o),
(238,-16,cs)
);
},
{
closed = 1;
nodes = (
(227,345,o),
(186,385,o),
(186,452,cs),
(186,542,o),
(250,608,o),
(337,608,cs),
(403,608,o),
(445,562,o),
(445,497,cs),
(445,408,o),
(383,345,o),
(294,345,cs)
);
}
);
width = 606;
}
);
metricRight = zero;
unicode = 57;
}
{
glyphname = equal;
kernLeft = KO_equal;
kernRight = KO_equal;
layers = (
{
layerId = m01;
shapes = (
{
closed = 1;
nodes = (
(496,164,l),
(496,236,l),
(64,236,l),
(64,164,l)
);
},
{
closed = 1;
nodes = (
(496,333,l),
(496,404,l),
(64,404,l),
(64,333,l)
);
}
);
width = 560;
},
{
layerId = "E9FB66CC-5D7A-47B2-9A25-A0E8EEF5BB81";
shapes = (
{
closed = 1;
nodes = (
(516,142,l),
(516,252,l),
(50,252,l),
(50,142,l)
);
},
{
closed = 1;
nodes = (
(516,319,l),
(516,429,l),
(50,429,l),
(50,319,l)
);
}
);
width = 566;
},
{
layerId = "980A8AF2-BF11-492D-9410-496A94B21BD3";
shapes = (
{
closed = 1;
nodes = (
(538,164,l),
(548,236,l),
(116,236,l),
(106,164,l)
);
},
{
closed = 1;
nodes = (
(562,333,l),
(572,404,l),
(140,404,l),
(130,333,l)
);
}
);
width = 673;
},
{
layerId = "829AF10C-3E33-4291-B5B6-8F7CF12D6A62";
shapes = (
{
closed = 1;
nodes = (
(558,142,l),
(573,252,l),
(107,252,l),
(92,142,l)
);
},
{
closed = 1;
nodes = (
(583,319,l),
(598,429,l),
(132,429,l),
(117,319,l)
);
}
);
width = 686;
}
);
metricRight = "=|";
unicode = 61;
userData = {
KernOnSpecialSpacing = {
L = math;
R = math;
};
};
}
{
glyphname = greater;
layers = (
{
layerId = m01;
shapes = (
{
closed = 1;
nodes = (
(516,250,l),
(516,316,l),
(52,544,l),
(52,460,l),
(434,280,l),
(434,288,l),
(52,112,l),
(52,24,l)
);
}
);
width = 560;
},
{
layerId = "E9FB66CC-5D7A-47B2-9A25-A0E8EEF5BB81";
shapes = (
{
closed = 1;
nodes = (
(516,220,l),
(516,346,l),
(52,574,l),
(52,444,l),
(434,264,l),
(434,304,l),
(52,128,l),
(52,-6,l)
);
}
);
width = 574;
},
{
layerId = "980A8AF2-BF11-492D-9410-496A94B21BD3";
shapes = (
{
closed = 1;
nodes = (
(590,250,l),
(599,316,l),
(167,544,l),
(155,460,l),
(512,280,l),
(513,288,l),
(106,112,l),
(94,24,l)
);
}
);
width = 601;
},
{
layerId = "829AF10C-3E33-4291-B5B6-8F7CF12D6A62";
shapes = (
{
closed = 1;
nodes = (
(589,220,l),
(606,346,l),
(175,574,l),
(156,444,l),
(513,264,l),
(519,304,l),
(112,128,l),
(93,-6,l)
);
}
);
width = 623;
}
);
unicode = 62;
userData = {
KernOnSpecialSpacing = {
L = math;
R = math;
};
};
}
{
glyphname = question;
kernLeft = KO_question;
layers = (
{
layerId = m01;
shapes = (
{
closed = 1;
nodes = (
(256,212,l),
(256,220,ls),
(256,367,o),
(428,383,o),
(428,522,cs),
(428,624,o),
(347,694,o),
(229,694,cs),
(108,694,o),
(23,618,o),
(6,545,c),
(93,516,l),
(102,571,o),
(153,619,o),
(225,619,cs),
(294,619,o),
(336,577,o),
(336,518,cs),
(336,406,o),
(189,398,o),
(178,240,cs),
(176,212,l)
);
},
{
pos = (114,0);
ref = period;
}
);
width = 440;
},
{
layerId = "E9FB66CC-5D7A-47B2-9A25-A0E8EEF5BB81";
shapes = (
{
closed = 1;
nodes = (
(307,220,l),
(307,223,ls),
(307,361,o),
(476,365,o),
(477,514,cs),
(480,628,o),
(388,707,o),
(249,707,cs),
(127,707,o),
(29,640,o),
(5,532,c),
(127,490,l),
(136,559,o),
(181,603,o),
(243,603,cs),
(304,603,o),
(342,565,o),
(340,507,cs),
(340,399,o),
(194,409,o),
(180,242,cs),
(179,220,l)
);
},
{
pos = (132,0);
ref = period;
}
);
width = 487;
},
{
associatedMasterId = m01;
layerId = "B96ABFD7-997C-4285-9F30-8D85A0339D2D";
name = "15 apr 23, 18:21";
shapes = (
{
closed = 1;
nodes = (
(238,249,l),
(220,258,o),
(211,275,o),
(211,294,cs),
(211,380,o),
(409,385,o),
(409,533,cs),
(409,629,o),
(332,693,o),
(215,693,cs),
(104,693,o),
(13,631,o),
(-15,537,c),
(71,510,l),
(88,579,o),
(143,620,o),
(215,620,cs),
(277,620,o),
(316,589,o),
(316,537,cs),
(316,428,o),
(122,428,o),
(122,303,cs),
(122,257,o),
(149,216,o),
(192,194,c)
);
},
{
pos = (94,0);
ref = period;
}
);
width = 408;
},
{
layerId = "980A8AF2-BF11-492D-9410-496A94B21BD3";
shapes = (
{
closed = 1;
nodes = (
(248,212,l),
(249,220,ls),
(271,378,o),
(466,382,o),
(466,547,cs),
(466,635,o),
(397,694,o),
(289,694,cs),
(169,694,o),
(72,618,o),
(45,545,c),
(128,516,l),
(145,571,o),
(202,619,o),
(274,619,cs),
(337,619,o),
(372,584,o),
(372,534,cs),
(372,405,o),
(210,408,o),
(174,240,cs),
(168,212,l)
);
},
{
pos = (107,0);
ref = period;
}
);
width = 440;
},
{
associatedMasterId = "980A8AF2-BF11-492D-9410-496A94B21BD3";
layerId = "7584E5E2-64EB-419C-82CA-2ECA406BD2A7";
name = "15 apr 23, 18:21";
shapes = (
{
closed = 1;
nodes = (
(238,249,l),
(220,258,o),
(211,275,o),
(211,294,cs),
(211,380,o),
(409,385,o),
(409,533,cs),
(409,629,o),
(332,693,o),
(215,693,cs),
(104,693,o),
(13,631,o),
(-15,537,c),
(71,510,l),
(88,579,o),
(143,620,o),
(215,620,cs),
(277,620,o),
(316,589,o),
(316,537,cs),
(316,428,o),
(122,428,o),
(122,303,cs),
(122,257,o),
(149,216,o),
(192,194,c)
);
},
{
pos = (94,0);
ref = period;
}
);
width = 408;
},
{
layerId = "829AF10C-3E33-4291-B5B6-8F7CF12D6A62";
shapes = (
{
closed = 1;
nodes = (
(300,220,l),
(300,223,ls),
(319,361,o),
(490,370,o),
(512,514,cs),
(530,633,o),
(444,707,o),
(311,707,cs),
(189,707,o),
(81,640,o),
(42,532,c),
(158,490,l),
(177,559,o),
(228,603,o),
(290,603,cs),
(343,603,o),
(375,574,o),
(375,527,cs),
(375,398,o),
(216,418,o),
(177,242,cs),
(172,220,l)
);
},
{
pos = (119,0);
ref = period;
}
);
width = 488;
}
);
unicode = 63;
userData = {
KernOnName = question;
KernOnSpecialSpacing = {
L = "spaced-off";
};
};
}
{
glyphname = at;
layers = (
{
layerId = m01;
shapes = (
{
closed = 1;
nodes = (
(587,-186,o),
(682,-156,o),
(740,-112,c),
(701,-52,l),
(647,-89,o),
(566,-114,o),
(477,-114,cs),
(271,-114,o),
(133,34,o),
(133,253,cs),
(133,476,o),
(270,624,o),
(496,624,cs),
(687,624,o),
(828,521,o),
(828,308,cs),
(828,186,o),
(787,99,o),
(710,99,cs),
(659,99,o),
(638,137,o),
(652,200,cs),
(714,488,l),
(630,488,l),
(606,373,l),
(614,373,l),
(618,447,o),
(564,500,o),
(484,500,cs),
(351,500,o),
(238,362,o),
(238,202,cs),
(238,94,o),
(297,32,o),
(392,32,cs),
(480,32,o),
(567,85,o),
(590,166,c),
(582,166,l),
(568,86,o),
(614,32,o),
(694,32,cs),
(822,32,o),
(908,147,o),
(908,313,cs),
(908,543,o),
(742,694,o),
(494,694,cs),
(228,694,o),
(50,517,o),
(50,250,cs),
(50,-11,o),
(222,-186,o),
(480,-186,cs)
);
},
{
closed = 1;
nodes = (
(363,99,o),
(328,140,o),
(328,210,cs),
(328,329,o),
(405,432,o),
(496,432,cs),
(554,432,o),
(590,391,o),
(590,321,cs),
(590,202,o),
(515,99,o),
(422,99,cs)
);
}
);
width = 952;
},
{
layerId = "E9FB66CC-5D7A-47B2-9A25-A0E8EEF5BB81";
shapes = (
{
closed = 1;
nodes = (
(654,-215,o),
(767,-180,o),
(828,-130,c),
(766,-31,l),
(714,-70,o),
(623,-96,o),
(521,-96,cs),
(316,-96,o),
(185,37,o),
(185,250,cs),
(185,468,o),
(315,601,o),
(541,601,cs),
(732,601,o),
(865,510,o),
(865,308,cs),
(865,190,o),
(838,120,o),
(756,120,cs),
(713,120,o),
(697,143,o),
(707,191,cs),
(770,484,l),
(641,484,l),
(608,328,l),
(644,328,l),
(661,421,o),
(593,490,o),
(525,492,cs),
(401,495,o),
(280,357,o),
(280,198,cs),
(280,86,o),
(346,19,o),
(442,19,cs),
(527,19,o),
(604,76,o),
(624,160,c),
(593,169,l),
(578,79,o),
(635,6,o),
(735,6,cs),
(898,6,o),
(992,134,o),
(992,312,cs),
(992,556,o),
(806,718,o),
(539,718,cs),
(250,718,o),
(55,527,o),
(55,247,cs),
(55,-27,o),
(245,-215,o),
(524,-215,cs)
);
},
{
closed = 1;
nodes = (
(431,131,o),
(414,151,o),
(414,206,cs),
(414,304,o),
(470,381,o),
(539,381,cs),
(581,381,o),
(601,360,o),
(601,306,cs),
(601,207,o),
(544,131,o),
(473,131,cs)
);
}
);
width = 1047;
},
{
layerId = "980A8AF2-BF11-492D-9410-496A94B21BD3";
shapes = (
{
closed = 1;
nodes = (
(521,-186,o),
(620,-158,o),
(688,-112,c),
(657,-52,l),
(598,-89,o),
(514,-114,o),
(424,-114,cs),
(241,-114,o),
(127,4,o),
(127,186,cs),
(127,441,o),
(303,624,o),
(547,624,cs),
(719,624,o),
(839,540,o),
(839,368,cs),
(839,218,o),
(771,99,o),
(687,99,cs),
(635,99,o),
(621,139,o),
(643,200,cs),
(746,488,l),
(662,488,l),
(622,373,l),
(630,373,l),
(644,447,o),
(598,500,o),
(518,500,cs),
(374,500,o),
(227,332,o),
(227,166,cs),
(227,81,o),
(276,32,o),
(360,32,cs),
(449,32,o),
(542,85,o),
(577,166,c),
(569,166,l),
(544,88,o),
(580,32,o),
(662,32,cs),
(806,32,o),
(920,184,o),
(920,375,cs),
(920,569,o),
(780,694,o),
(555,694,cs),
(262,694,o),
(43,472,o),
(43,173,cs),
(43,-45,o),
(186,-186,o),
(417,-186,cs)
);
},
{
closed = 1;
nodes = (
(348,99,o),
(319,130,o),
(319,185,cs),
(319,305,o),
(423,432,o),
(520,432,cs),
(571,432,o),
(600,400,o),
(600,346,cs),
(600,225,o),
(498,99,o),
(399,99,cs)
);
}
);
width = 953;
},
{
layerId = "829AF10C-3E33-4291-B5B6-8F7CF12D6A62";
shapes = (
{
closed = 1;
nodes = (
(623,-215,o),
(742,-180,o),
(810,-130,c),
(762,-31,l),
(704,-70,o),
(610,-96,o),
(507,-96,cs),
(325,-96,o),
(215,10,o),
(215,184,cs),
(215,433,o),
(380,601,o),
(625,601,cs),
(797,601,o),
(912,527,o),
(912,364,cs),
(912,218,o),
(857,120,o),
(773,120,cs),
(730,120,o),
(717,143,o),
(734,191,cs),
(838,484,l),
(709,484,l),
(654,328,l),
(690,328,l),
(720,421,o),
(662,490,o),
(594,492,cs),
(457,496,o),
(305,324,o),
(305,162,cs),
(305,73,o),
(359,19,o),
(445,19,cs),
(527,19,o),
(613,73,o),
(646,160,c),
(617,169,l),
(589,79,o),
(636,6,o),
(736,6,cs),
(910,6,o),
(1040,164,o),
(1040,375,cs),
(1040,583,o),
(883,718,o),
(640,718,cs),
(324,718,o),
(84,482,o),
(84,170,cs),
(84,-62,o),
(242,-215,o),
(494,-215,cs)
);
},
{
closed = 1;
nodes = (
(457,131,o),
(441,145,o),
(441,181,cs),
(441,281,o),
(516,381,o),
(592,381,cs),
(628,381,o),
(646,366,o),
(646,329,cs),
(646,230,o),
(569,131,o),
(491,131,cs)
);
}
);
width = 1048;
}
);
unicode = 64;
userData = {
KernOnSpecialSpacing = {
L = symbols;
R = symbols;
};
};
}
{
glyphname = A;
kernLeft = KO_A;
kernRight = KO_A;
layers = (
{
anchors = (
{
name = ogonek;
pos = (603,8);
},
{
name = top;
pos = (307,680);
}
);
layerId = m01;
shapes = (
{
closed = 1;
nodes = (
(101,0,l),
(309,600,l),
(301,600,l),
(511,0,l),
(613,0,l),
(359,680,l),
(259,680,l),
(7,0,l)
);
},
{
closed = 1;
nodes = (
(455,190,l),
(455,262,l),
(157,262,l),
(157,190,l)
);
}
);
width = 624;
},
{
anchors = (
{
name = ogonek;
pos = (646,8);
},
{
name = top;
pos = (328,692);
}
);
layerId = "E9FB66CC-5D7A-47B2-9A25-A0E8EEF5BB81";
shapes = (
{
closed = 1;
nodes = (
(144,0,l),
(328,552,l),
(320,552,l),
(500,0,l),
(654,0,l),
(406,692,l),
(252,692,l),
(4,0,l)
);
},
{
closed = 1;
nodes = (
(454,166,l),
(454,268,l),
(188,268,l),
(188,166,l)
);
}
);
width = 660;
},
{
anchors = (
{
name = ogonek;
pos = (550,8);
},
{
name = top;
pos = (354,680);
}
);
layerId = "980A8AF2-BF11-492D-9410-496A94B21BD3";
shapes = (
{
closed = 1;
nodes = (
(69,0,l),
(351,600,l),
(339,600,l),
(460,0,l),
(558,0,l),
(404,680,l),
(307,680,l),
(-30,0,l)
);
},
{
closed = 1;
nodes = (
(428,190,l),
(438,262,l),
(151,262,l),
(141,190,l)
);
}
);
width = 606;
},
{
anchors = (
{
name = ogonek;
pos = (599,8);
},
{
name = top;
pos = (380,692);
}
);
layerId = "829AF10C-3E33-4291-B5B6-8F7CF12D6A62";
shapes = (
{
closed = 1;
nodes = (
(108,0,l),
(363,552,l),
(355,552,l),
(454,0,l),
(606,0,l),
(457,692,l),
(303,692,l),
(-34,0,l)
);
},
{
closed = 1;
nodes = (
(429,166,l),
(444,268,l),
(185,268,l),
(170,166,l)
);
}
);
width = 650;
}
);
unicode = 65;
}
{
glyphname = B;
kernLeft = KO_H;
kernRight = KO_B;
layers = (
{
layerId = m01;
shapes = (
{
closed = 1;
nodes = (
(373,0,ls),
(505,0,o),
(589,71,o),
(589,184,cs),
(589,290,o),
(518,359,o),
(407,361,c),
(407,353,l),
(502,360,o),
(563,421,o),
(563,510,cs),
(563,614,o),
(484,680,o),
(359,680,cs),
(83,680,l),
(83,0,l)
);
},
{
closed = 1;
nodes = (
(177,614,l),
(169,606,l),
(347,606,ls),
(422,606,o),
(467,566,o),
(467,498,cs),
(467,428,o),
(422,387,o),
(345,387,cs),
(169,387,l),
(169,314,l),
(367,314,ls),
(443,314,o),
(488,269,o),
(488,194,cs),
(488,119,o),
(442,74,o),
(363,74,cs),
(169,74,l),
(177,67,l)
);
}
);
width = 632;
},
{
layerId = "E9FB66CC-5D7A-47B2-9A25-A0E8EEF5BB81";
shapes = (
{
closed = 1;
nodes = (
(394,0,ls),
(522,0,o),
(610,76,o),
(610,190,cs),
(610,298,o),
(533,368,o),
(417,368,c),
(417,361,l),
(517,367,o),
(582,430,o),
(582,522,cs),
(582,626,o),
(500,692,o),
(382,692,cs),
(72,692,l),
(72,0,l)
);
},
{
closed = 1;
nodes = (
(214,594,l),
(206,586,l),
(350,586,ls),
(403,586,o),
(436,552,o),
(436,498,cs),
(436,443,o),
(403,408,o),
(350,408,cs),
(206,408,l),
(206,304,l),
(364,304,ls),
(421,304,o),
(458,266,o),
(458,206,cs),
(458,146,o),
(421,108,o),
(362,108,cs),
(206,108,l),
(214,100,l)
);
}
);
width = 642;
},
{
layerId = "980A8AF2-BF11-492D-9410-496A94B21BD3";
shapes = (
{
closed = 1;
nodes = (
(331,0,ls),
(470,0,o),
(567,88,o),
(567,215,cs),
(567,301,o),
(511,359,o),
(413,361,c),
(412,353,l),
(516,361,o),
(587,439,o),
(587,537,cs),
(587,625,o),
(519,680,o),
(410,680,cs),
(141,680,l),
(48,0,l)
);
},
{
closed = 1;
nodes = (
(225,614,l),
(217,606,l),
(386,606,ls),
(450,606,o),
(488,573,o),
(488,517,cs),
(488,439,o),
(434,387,o),
(355,387,cs),
(187,387,l),
(177,314,l),
(366,314,ls),
(430,314,o),
(467,278,o),
(467,217,cs),
(467,131,o),
(412,74,o),
(329,74,cs),
(144,74,l),
(151,67,l)
);
}
);
width = 620;
},
{
layerId = "829AF10C-3E33-4291-B5B6-8F7CF12D6A62";
shapes = (
{
closed = 1;
nodes = (
(347,0,ls),
(483,0,o),
(587,94,o),
(587,219,cs),
(587,310,o),
(522,368,o),
(420,368,c),
(419,361,l),
(524,367,o),
(605,444,o),
(605,548,cs),
(605,637,o),
(535,692,o),
(430,692,cs),
(131,692,l),
(36,0,l)
);
},
{
closed = 1;
nodes = (
(259,594,l),
(251,586,l),
(382,586,ls),
(426,586,o),
(455,559,o),
(455,515,cs),
(455,454,o),
(415,408,o),
(359,408,cs),
(226,408,l),
(212,304,l),
(358,304,ls),
(405,304,o),
(436,274,o),
(436,225,cs),
(436,156,o),
(391,108,o),
(329,108,cs),
(185,108,l),
(192,100,l)
);
}
);
width = 629;
}
);
metricLeft = H;
unicode = 66;
}
{
glyphname = C;
kernLeft = KO_O;
kernRight = KO_C;
layers = (
{
anchors = (
{
name = bottom;
pos = (362,0);
},
{
name = top;
pos = (351,680);
}
);
layerId = m01;
shapes = (
{
closed = 1;
nodes = (
(500,-14,o),
(618,80,o),
(643,231,c),
(547,246,l),
(531,134,o),
(456,63,o),
(354,63,cs),
(225,63,o),
(143,172,o),
(143,344,cs),
(143,513,o),
(225,620,o),
(351,620,cs),
(447,620,o),
(517,556,o),
(535,456,c),
(627,480,l),
(595,610,o),
(488,694,o),
(347,694,cs),
(166,694,o),
(43,551,o),
(43,342,cs),
(43,130,o),
(169,-14,o),
(353,-14,cs)
);
}
);
width = 670;
},
{
anchors = (
{
name = bottom;
pos = (364,0);
},
{
name = top;
pos = (352,692);
}
);
layerId = "E9FB66CC-5D7A-47B2-9A25-A0E8EEF5BB81";
shapes = (
{
closed = 1;
nodes = (
(510,-14,o),
(631,84,o),
(654,238,c),
(508,276,l),
(498,166,o),
(438,96,o),
(352,96,cs),
(249,96,o),
(184,194,o),
(184,348,cs),
(184,501,o),
(249,598,o),
(352,598,cs),
(431,598,o),
(488,540,o),
(500,448,c),
(642,488,l),
(612,621,o),
(499,706,o),
(352,706,cs),
(162,706,o),
(32,562,o),
(32,350,cs),
(32,134,o),
(162,-14,o),
(352,-14,cs)
);
}
);
width = 676;
},
{
anchors = (
{
name = bottom;
pos = (317,0);
},
{
name = top;
pos = (398,680);
}
);
layerId = "980A8AF2-BF11-492D-9410-496A94B21BD3";
shapes = (
{
closed = 1;
nodes = (
(453,-14,o),
(576,80,o),
(620,218,c),
(528,246,l),
(499,136,o),
(417,63,o),
(319,63,cs),
(212,63,o),
(149,146,o),
(149,277,cs),
(149,472,o),
(253,620,o),
(390,620,cs),
(483,620,o),
(541,555,o),
(545,456,c),
(640,480,l),
(627,610,o),
(534,694,o),
(397,694,cs),
(200,694,o),
(49,510,o),
(49,273,cs),
(49,100,o),
(152,-14,o),
(311,-14,cs)
);
}
);
width = 654;
},
{
anchors = (
{
name = bottom;
pos = (321,0);
},
{
name = top;
pos = (404,692);
}
);
layerId = "829AF10C-3E33-4291-B5B6-8F7CF12D6A62";
shapes = (
{
closed = 1;
nodes = (
(463,-14,o),
(595,84,o),
(637,228,c),
(498,276,l),
(472,161,o),
(401,96,o),
(322,96,cs),
(239,96,o),
(191,168,o),
(191,282,cs),
(191,459,o),
(278,598,o),
(391,598,cs),
(467,598,o),
(515,540,o),
(514,448,c),
(661,488,l),
(650,621,o),
(551,706,o),
(407,706,cs),
(190,706,o),
(39,522,o),
(39,280,cs),
(39,104,o),
(142,-14,o),
(308,-14,cs)
);
}
);
width = 665;
}
);
metricLeft = O;
unicode = 67;
}
{
glyphname = D;
kernLeft = KO_H;
kernRight = KO_D;
layers = (
{
anchors = (
{
name = bottom;
pos = (347,0);
},
{
name = center;
pos = (175,340);
},
{
name = top;
pos = (327,680);
}
);
layerId = m01;
shapes = (
{
closed = 1;
nodes = (
(326,0,ls),
(525,0,o),
(651,134,o),
(651,344,cs),
(651,549,o),
(526,680,o),
(329,680,cs),
(83,680,l),
(83,0,l)
);
},
{
closed = 1;
nodes = (
(177,615,l),
(168,607,l),
(317,607,ls),
(464,607,o),
(551,509,o),
(551,342,cs),
(551,174,o),
(465,74,o),
(319,74,cs),
(168,74,l),
(177,67,l)
);
}
);
width = 694;
},
{
anchors = (
{
name = bottom;
pos = (346,0);
},
{
name = center;
pos = (173,346);
},
{
name = top;
pos = (326,692);
}
);
layerId = "E9FB66CC-5D7A-47B2-9A25-A0E8EEF5BB81";
shapes = (
{
closed = 1;
nodes = (
(332,0,ls),
(527,0,o),
(660,141,o),
(660,348,cs),
(660,552,o),
(529,692,o),
(336,692,cs),
(72,692,l),
(72,0,l)
);
},
{
closed = 1;
nodes = (
(214,592,l),
(206,584,l),
(326,584,ls),
(437,584,o),
(508,492,o),
(508,348,cs),
(508,202,o),
(437,110,o),
(324,110,cs),
(206,110,l),
(214,102,l)
);
}
);
width = 692;
},
{
anchors = (
{
name = bottom;
pos = (291,0);
},
{
name = center;
pos = (184,340);
},
{
name = top;
pos = (378,680);
}
);
layerId = "980A8AF2-BF11-492D-9410-496A94B21BD3";
shapes = (
{
closed = 1;
nodes = (
(288,0,ls),
(500,0,o),
(651,171,o),
(651,408,cs),
(651,576,o),
(547,680,o),
(379,680,cs),
(141,680,l),
(48,0,l)
);
},
{
closed = 1;
nodes = (
(227,615,l),
(216,607,l),
(358,607,ls),
(481,607,o),
(550,531,o),
(550,401,cs),
(550,207,o),
(442,74,o),
(288,74,cs),
(143,74,l),
(153,67,l)
);
}
);
width = 679;
},
{
anchors = (
{
name = bottom;
pos = (308,0);
},
{
name = center;
pos = (186,346);
},
{
name = top;
pos = (383,692);
}
);
layerId = "829AF10C-3E33-4291-B5B6-8F7CF12D6A62";
shapes = (
{
closed = 1;
nodes = (
(307,0,ls),
(517,0,o),
(668,178,o),
(668,410,cs),
(668,579,o),
(568,692,o),
(401,692,cs),
(131,692,l),
(36,0,l)
);
},
{
closed = 1;
nodes = (
(260,592,l),
(252,584,l),
(369,584,ls),
(460,584,o),
(516,515,o),
(516,402,cs),
(516,234,o),
(423,110,o),
(302,110,cs),
(186,110,l),
(193,102,l)
);
}
);
width = 686;
}
);
metricLeft = H;
metricRight = O;
unicode = 68;
}
{
glyphname = E;
kernLeft = KO_H;
kernRight = KO_E;
layers = (
{
anchors = (
{
name = ogonek;
pos = (535,8);
},
{
name = top;
pos = (315,680);
}
);
layerId = m01;
shapes = (
{
closed = 1;
nodes = (
(543,0,l),
(543,74,l),
(169,74,l),
(177,66,l),
(177,614,l),
(169,606,l),
(537,606,l),
(537,680,l),
(83,680,l),
(83,0,l)
);
},
{
closed = 1;
nodes = (
(503,314,l),
(503,387,l),
(169,387,l),
(169,314,l)
);
}
);
width = 578;
},
{
anchors = (
{
name = ogonek;
pos = (546,8);
},
{
name = top;
pos = (312,692);
}
);
layerId = "E9FB66CC-5D7A-47B2-9A25-A0E8EEF5BB81";
shapes = (
{
closed = 1;
nodes = (
(554,0,l),
(554,108,l),
(208,108,l),
(216,100,l),
(216,593,l),
(208,585,l),
(548,585,l),
(548,692,l),
(72,692,l),
(72,0,l)
);
},
{
closed = 1;
nodes = (
(518,303,l),
(518,409,l),
(208,409,l),
(208,303,l)
);
}
);
width = 592;
},
{
anchors = (
{
name = ogonek;
pos = (488,8);
},
{
name = top;
pos = (366,680);
}
);
layerId = "980A8AF2-BF11-492D-9410-496A94B21BD3";
shapes = (
{
closed = 1;
nodes = (
(495,0,l),
(505,74,l),
(144,74,l),
(152,66,l),
(227,614,l),
(217,606,l),
(572,606,l),
(583,680,l),
(141,680,l),
(48,0,l)
);
},
{
closed = 1;
nodes = (
(499,314,l),
(509,387,l),
(187,387,l),
(177,314,l)
);
}
);
width = 567;
},
{
anchors = (
{
name = ogonek;
pos = (502,8);
},
{
name = top;
pos = (366,692);
}
);
layerId = "829AF10C-3E33-4291-B5B6-8F7CF12D6A62";
shapes = (
{
closed = 1;
nodes = (
(509,0,l),
(524,108,l),
(187,108,l),
(195,100,l),
(263,593,l),
(253,585,l),
(584,585,l),
(599,692,l),
(131,692,l),
(36,0,l)
);
},
{
closed = 1;
nodes = (
(516,303,l),
(530,409,l),
(228,409,l),
(214,303,l)
);
}
);
width = 585;
}
);
metricLeft = H;
unicode = 69;
userData = {
KernOnName = E;
};
}
{
glyphname = F;
kernLeft = KO_H;
kernRight = KO_F;
layers = (
{
layerId = m01;
shapes = (
{
closed = 1;
nodes = (
(177,0,l),
(177,613,l),
(169,606,l),
(525,606,l),
(525,680,l),
(83,680,l),
(83,0,l)
);
},
{
closed = 1;
nodes = (
(469,312,l),
(469,386,l),
(169,386,l),
(169,312,l)
);
}
);
width = 544;
},
{
layerId = "E9FB66CC-5D7A-47B2-9A25-A0E8EEF5BB81";
shapes = (
{
closed = 1;
nodes = (
(216,0,l),
(216,592,l),
(208,584,l),
(542,584,l),
(542,692,l),
(72,692,l),
(72,0,l)
);
},
{
closed = 1;
nodes = (
(490,296,l),
(490,404,l),
(208,404,l),
(208,296,l)
);
}
);
width = 556;
},
{
layerId = "980A8AF2-BF11-492D-9410-496A94B21BD3";
shapes = (
{
closed = 1;
nodes = (
(142,0,l),
(226,613,l),
(217,606,l),
(560,606,l),
(571,680,l),
(141,680,l),
(48,0,l)
);
},
{
closed = 1;
nodes = (
(466,312,l),
(476,386,l),
(187,386,l),
(177,312,l)
);
}
);
width = 532;
},
{
layerId = "829AF10C-3E33-4291-B5B6-8F7CF12D6A62";
shapes = (
{
closed = 1;
nodes = (
(180,0,l),
(262,592,l),
(253,584,l),
(578,584,l),
(593,692,l),
(131,692,l),
(36,0,l)
);
},
{
closed = 1;
nodes = (
(488,296,l),
(503,404,l),
(228,404,l),
(213,296,l)
);
}
);
width = 548;
}
);
metricLeft = H;
unicode = 70;
}
{
glyphname = G;
kernLeft = KO_O;
kernRight = KO_G;
layers = (
{
anchors = (
{
name = bottom;
pos = (364,0);
},
{
name = top;
pos = (356,692);
}
);
background = {
shapes = (
{
ref = C;
}
);
};
layerId = "E9FB66CC-5D7A-47B2-9A25-A0E8EEF5BB81";
shapes = (
{
closed = 1;
nodes = (
(471,-14,o),
(584,19,o),
(644,72,c),
(644,380,l),
(340,380,l),
(340,280,l),
(519,280,l),
(519,143,l),
(476,112,o),
(428,96,o),
(379,96,cs),
(279,96,o),
(182,160,o),
(182,358,cs),
(182,508,o),
(248,600,o),
(350,600,cs),
(427,600,o),
(486,548,o),
(500,460,c),
(644,498,l),
(616,622,o),
(498,706,o),
(354,706,cs),
(162,706,o),
(32,562,o),
(32,347,cs),
(32,132,o),
(160,-14,o),
(370,-14,cs)
);
}
);
width = 696;
},
{
anchors = (
{
name = bottom;
pos = (382,0);
},
{
name = top;
pos = (355,680);
}
);
background = {
shapes = (
{
pos = (1,0);
ref = C;
}
);
};
layerId = m01;
shapes = (
{
closed = 1;
nodes = (
(468,-14,o),
(573,19,o),
(631,77,c),
(631,347,l),
(344,347,l),
(344,273,l),
(545,273,l),
(545,103,l),
(509,77,o),
(436,62,o),
(379,62,cs),
(223,62,o),
(142,175,o),
(142,347,cs),
(142,516,o),
(227,620,o),
(355,620,cs),
(449,620,o),
(517,564,o),
(533,472,c),
(627,494,l),
(603,614,o),
(493,694,o),
(357,694,cs),
(170,694,o),
(43,552,o),
(43,342,cs),
(43,131,o),
(167,-14,o),
(369,-14,cs)
);
}
);
width = 692;
},
{
anchors = (
{
name = bottom;
pos = (353,0);
},
{
name = top;
pos = (350,681);
}
);
associatedMasterId = m01;
layerId = "A05A0C6D-B89F-452D-B225-53014C68BD15";
name = "15 apr 23, 16:59";
shapes = (
{
closed = 1;
nodes = (
(480,-12,o),
(585,23,o),
(632,86,c),
(632,356,l),
(345,356,l),
(345,282,l),
(550,282,l),
(550,117,l),
(520,85,o),
(460,64,o),
(394,64,cs),
(240,64,o),
(143,174,o),
(143,351,cs),
(143,515,o),
(224,619,o),
(353,619,cs),
(445,619,o),
(516,565,o),
(536,471,c),
(626,494,l),
(598,616,o),
(488,693,o),
(355,693,cs),
(171,693,o),
(44,546,o),
(44,342,cs),
(44,132,o),
(180,-12,o),
(375,-12,cs)
);
}
);
width = 693;
},
{
anchors = (
{
name = bottom;
pos = (340,0);
},
{
name = top;
pos = (410,680);
}
);
layerId = "980A8AF2-BF11-492D-9410-496A94B21BD3";
shapes = (
{
closed = 1;
nodes = (
(436,-14,o),
(527,18,o),
(593,75,c),
(631,350,l),
(342,350,l),
(331,276,l),
(534,276,l),
(510,108,l),
(472,79,o),
(402,62,o),
(347,62,cs),
(216,62,o),
(151,146,o),
(151,287,cs),
(151,476,o),
(258,620,o),
(402,620,cs),
(488,620,o),
(552,569,o),
(555,472,c),
(651,494,l),
(644,614,o),
(547,694,o),
(413,694,cs),
(188,694,o),
(51,511,o),
(51,285,cs),
(51,100,o),
(161,-14,o),
(337,-14,cs)
);
}
);
width = 681;
},
{
anchors = (
{
name = bottom;
pos = (353,0);
},
{
name = top;
pos = (350,681);
}
);
associatedMasterId = "980A8AF2-BF11-492D-9410-496A94B21BD3";
layerId = "F5455403-6E5C-4048-9A05-774548284C91";
name = "15 apr 23, 16:59";
shapes = (
{
closed = 1;
nodes = (
(480,-12,o),
(585,23,o),
(632,86,c),
(632,356,l),
(345,356,l),
(345,282,l),
(550,282,l),
(550,117,l),
(520,85,o),
(460,64,o),
(394,64,cs),
(240,64,o),
(143,174,o),
(143,351,cs),
(143,515,o),
(224,619,o),
(353,619,cs),
(445,619,o),
(516,565,o),
(536,471,c),
(626,494,l),
(598,616,o),
(488,693,o),
(355,693,cs),
(171,693,o),
(44,546,o),
(44,342,cs),
(44,132,o),
(180,-12,o),
(375,-12,cs)
);
}
);
width = 693;
},
{
anchors = (
{
name = bottom;
pos = (319,0);
},
{
name = top;
pos = (408,692);
}
);
layerId = "829AF10C-3E33-4291-B5B6-8F7CF12D6A62";
shapes = (
{
closed = 1;
nodes = (
(436,-14,o),
(537,16,o),
(605,72,c),
(647,380,l),
(339,380,l),
(325,280,l),
(508,280,l),
(488,138,l),
(458,110,o),
(412,98,o),
(368,98,cs),
(254,98,o),
(188,179,o),
(188,311,cs),
(188,471,o),
(275,600,o),
(388,600,cs),
(460,600,o),
(513,548,o),
(514,460,c),
(660,498,l),
(649,622,o),
(545,706,o),
(407,706,cs),
(193,706,o),
(41,532,o),
(41,298,cs),
(41,113,o),
(156,-14,o),
(347,-14,cs)
);
}
);
width = 685;
}
);
metricLeft = O;
note = "Versione senza gamba?";
unicode = 71;
userData = {
KernOnName = G;
};
}
{
glyphname = H;
kernLeft = KO_H;
kernRight = KO_H;
layers = (
{
anchors = (
{
name = bottom;
pos = (348,0);
},
{
name = center;
pos = (348,510);
},
{
name = top;
pos = (348,680);
},
{
name = topleft;
pos = (23,680);
}
);
layerId = m01;
shapes = (
{
closed = 1;
nodes = (
(613,0,l),
(613,680,l),
(519,680,l),
(519,0,l)
);
},
{
closed = 1;
nodes = (
(177,0,l),
(177,680,l),
(83,680,l),
(83,0,l)
);
},
{
closed = 1;
nodes = (
(527,320,l),
(527,396,l),
(169,396,l),
(169,320,l)
);
}
);
width = 696;
},
{
anchors = (
{
name = bottom;
pos = (354,0);
},
{
name = center;
pos = (354,519);
},
{
name = top;
pos = (354,692);
},
{
name = topleft;
pos = (20,692);
}
);
layerId = "E9FB66CC-5D7A-47B2-9A25-A0E8EEF5BB81";
shapes = (
{
closed = 1;
nodes = (
(636,0,l),
(636,692,l),
(492,692,l),
(492,0,l)
);
},
{
closed = 1;
nodes = (
(216,0,l),
(216,692,l),
(72,692,l),
(72,0,l)
);
},
{
closed = 1;
nodes = (
(500,306,l),
(500,414,l),
(208,414,l),
(208,306,l)
);
}
);
width = 708;
},
{
anchors = (
{
name = bottom;
pos = (305,0);
},
{
name = center;
pos = (376,510);
},
{
name = top;
pos = (399,680);
},
{
name = topleft;
pos = (83,680);
}
);
layerId = "980A8AF2-BF11-492D-9410-496A94B21BD3";
shapes = (
{
closed = 1;
nodes = (
(564,0,l),
(657,680,l),
(563,680,l),
(470,0,l)
);
},
{
closed = 1;
nodes = (
(142,0,l),
(235,680,l),
(141,680,l),
(48,0,l)
);
},
{
closed = 1;
nodes = (
(521,320,l),
(532,396,l),
(189,396,l),
(178,320,l)
);
}
);
width = 684;
},
{
anchors = (
{
name = bottom;
pos = (312,0);
},
{
name = center;
pos = (385,519);
},
{
name = top;
pos = (408,692);
},
{
name = topleft;
pos = (80,692);
}
);
layerId = "829AF10C-3E33-4291-B5B6-8F7CF12D6A62";
shapes = (
{
closed = 1;
nodes = (
(591,0,l),
(685,692,l),
(541,692,l),
(447,0,l)
);
},
{
closed = 1;
nodes = (
(180,0,l),
(275,692,l),
(131,692,l),
(36,0,l)
);
},
{
closed = 1;
nodes = (
(496,306,l),
(511,414,l),
(229,414,l),
(214,306,l)
);
}
);
width = 701;
}
);
metricRight = "=|";
unicode = 72;
userData = {
KernOnName = H;
KernOnSpecialSpacing = {
};
};
}
{
glyphname = I;
kernLeft = KO_H;
kernRight = KO_H;
layers = (
{
anchors = (
{
name = ogonek;
pos = (169,8);
},
{
name = top;
pos = (130,680);
}
);
layerId = m01;
shapes = (
{
closed = 1;
nodes = (
(177,0,l),
(177,680,l),
(83,680,l),
(83,0,l)
);
}
);
width = 260;
},
{
anchors = (
{
name = ogonek;
pos = (206,8);
},
{
name = top;
pos = (143,692);
}
);
layerId = "E9FB66CC-5D7A-47B2-9A25-A0E8EEF5BB81";
shapes = (
{
closed = 1;
nodes = (
(214,0,l),
(214,692,l),
(72,692,l),
(72,0,l)
);
}
);
width = 286;
},
{
anchors = (
{
name = ogonek;
pos = (135,8);
},
{
name = top;
pos = (188,680);
}
);
layerId = "980A8AF2-BF11-492D-9410-496A94B21BD3";
shapes = (
{
closed = 1;
nodes = (
(142,0,l),
(235,680,l),
(141,680,l),
(48,0,l)
);
}
);
width = 262;
},
{
anchors = (
{
name = ogonek;
pos = (170,7);
},
{
name = top;
pos = (202,692);
}
);
layerId = "829AF10C-3E33-4291-B5B6-8F7CF12D6A62";
shapes = (
{
closed = 1;
nodes = (
(178,0,l),
(273,692,l),
(131,692,l),
(36,0,l)
);
}
);
width = 288;
}
);
metricLeft = H;
metricRight = H;
unicode = 73;
}
{
glyphname = J;
kernLeft = KO_J;
kernRight = KO_J;
layers = (
{
anchors = (
{
name = bottom;
pos = (261,0);
},
{
name = top;
pos = (391,680);
}
);
layerId = m01;
shapes = (
{
closed = 1;
nodes = (
(365,-14,o),
(447,68,o),
(447,198,cs),
(447,680,l),
(353,680,l),
(353,195,ls),
(353,113,o),
(311,64,o),
(239,64,cs),
(157,64,o),
(111,126,o),
(115,232,c),
(21,220,l),
(17,77,o),
(101,-14,o),
(236,-14,cs)
);
}
);
width = 522;
},
{
anchors = (
{
name = bottom;
pos = (274,0);
},
{
name = top;
pos = (414,692);
}
);
layerId = "E9FB66CC-5D7A-47B2-9A25-A0E8EEF5BB81";
shapes = (
{
closed = 1;
nodes = (
(396,-14,o),
(486,72,o),
(486,208,cs),
(486,692,l),
(342,692,l),
(342,212,ls),
(342,142,o),
(308,102,o),
(250,102,cs),
(180,102,o),
(144,160,o),
(152,260,c),
(16,228,l),
(12,76,o),
(104,-14,o),
(252,-14,cs)
);
}
);
width = 548;
},
{
anchors = (
{
name = bottom;
pos = (218,0);
},
{
name = top;
pos = (438,680);
}
);
layerId = "980A8AF2-BF11-492D-9410-496A94B21BD3";
shapes = (
{
closed = 1;
nodes = (
(307,-14,o),
(408,62,o),
(427,198,cs),
(494,680,l),
(400,680,l),
(332,195,ls),
(321,115,o),
(272,64,o),
(206,64,cs),
(127,64,o),
(92,126,o),
(110,232,c),
(15,221,l),
(-8,77,o),
(61,-14,o),
(193,-14,cs)
);
}
);
width = 512;
},
{
anchors = (
{
name = bottom;
pos = (234,0);
},
{
name = top;
pos = (467,692);
}
);
layerId = "829AF10C-3E33-4291-B5B6-8F7CF12D6A62";
shapes = (
{
closed = 1;
nodes = (
(343,-14,o),
(452,70,o),
(471,208,cs),
(539,692,l),
(395,692,l),
(328,212,ls),
(319,145,o),
(280,102,o),
(225,102,cs),
(159,102,o),
(130,160,o),
(147,260,c),
(12,243,l),
(-12,76,o),
(65,-14,o),
(211,-14,cs)
);
}
);
width = 542;
}
);
unicode = 74;
}
{
glyphname = K;
kernLeft = KO_H;
kernRight = KO_K;
layers = (
{
anchors = (
{
name = bottom;
pos = (339,0);
},
{
name = top;
pos = (327,680);
}
);
layerId = m01;
shapes = (
{
closed = 1;
nodes = (
(177,0,l),
(177,251,l),
(169,231,l),
(601,680,l),
(489,680,l),
(169,342,l),
(177,342,l),
(177,680,l),
(83,680,l),
(83,0,l)
);
},
{
closed = 1;
nodes = (
(623,0,l),
(323,402,l),
(263,340,l),
(509,0,l)
);
}
);
width = 632;
},
{
anchors = (
{
name = bottom;
pos = (363,0);
},
{
name = top;
pos = (348,692);
}
);
layerId = "E9FB66CC-5D7A-47B2-9A25-A0E8EEF5BB81";
shapes = (
{
closed = 1;
nodes = (
(216,0,l),
(216,232,l),
(208,208,l),
(648,692,l),
(486,692,l),
(208,372,l),
(216,372,l),
(216,692,l),
(72,692,l),
(72,0,l)
);
},
{
closed = 1;
nodes = (
(672,0,l),
(381,413,l),
(286,309,l),
(496,0,l)
);
}
);
width = 672;
},
{
anchors = (
{
name = bottom;
pos = (299,0);
},
{
name = top;
pos = (379,680);
}
);
layerId = "980A8AF2-BF11-492D-9410-496A94B21BD3";
shapes = (
{
closed = 1;
nodes = (
(142,0,l),
(176,251,l),
(166,231,l),
(647,680,l),
(535,680,l),
(181,342,l),
(189,342,l),
(235,680,l),
(141,680,l),
(48,0,l)
);
},
{
closed = 1;
nodes = (
(575,0,l),
(339,402,l),
(270,340,l),
(461,0,l)
);
}
);
width = 621;
},
{
anchors = (
{
name = bottom;
pos = (324,0);
},
{
name = top;
pos = (403,692);
}
);
layerId = "829AF10C-3E33-4291-B5B6-8F7CF12D6A62";
shapes = (
{
closed = 1;
nodes = (
(180,0,l),
(212,235,l),
(204,211,l),
(691,692,l),
(524,692,l),
(213,381,l),
(231,381,l),
(275,692,l),
(131,692,l),
(36,0,l)
);
},
{
closed = 1;
nodes = (
(624,0,l),
(397,413,l),
(293,309,l),
(455,0,l)
);
}
);
width = 662;
}
);
metricLeft = H;
unicode = 75;
userData = {
KernOnName = K;
};
}
{
glyphname = L;
kernLeft = KO_H;
kernRight = KO_L;
layers = (
{
anchors = (
{
name = bottom;
pos = (311,0);
},
{
name = top;
pos = (151,680);
},
{
name = topright;
pos = (219,532);
}
);
layerId = m01;
shapes = (
{
closed = 1;
nodes = (
(177,0,l),
(177,680,l),
(83,680,l),
(83,0,l)
);
},
{
closed = 1;
nodes = (
(513,0,l),
(513,80,l),
(169,80,l),
(169,0,l)
);
}
);
width = 524;
},
{
anchors = (
{
name = bottom;
pos = (312,0);
},
{
name = top;
pos = (164,692);
},
{
name = topright;
pos = (244,544);
}
);
layerId = "E9FB66CC-5D7A-47B2-9A25-A0E8EEF5BB81";
shapes = (
{
closed = 1;
nodes = (
(216,0,l),
(216,692,l),
(72,692,l),
(72,0,l)
);
},
{
closed = 1;
nodes = (
(524,0,l),
(524,114,l),
(208,114,l),
(208,0,l)
);
}
);
width = 539;
},
{
anchors = (
{
name = bottom;
pos = (270,0);
},
{
name = top;
pos = (208,680);
},
{
name = topright;
pos = (255,532);
}
);
layerId = "980A8AF2-BF11-492D-9410-496A94B21BD3";
shapes = (
{
closed = 1;
nodes = (
(142,0,l),
(235,680,l),
(141,680,l),
(48,0,l)
);
},
{
closed = 1;
nodes = (
(466,0,l),
(477,80,l),
(145,80,l),
(134,0,l)
);
}
);
width = 514;
},
{
anchors = (
{
name = bottom;
pos = (272,0);
},
{
name = top;
pos = (222,692);
},
{
name = topright;
pos = (281,544);
}
);
layerId = "829AF10C-3E33-4291-B5B6-8F7CF12D6A62";
shapes = (
{
closed = 1;
nodes = (
(180,0,l),
(275,692,l),
(131,692,l),
(36,0,l)
);
},
{
closed = 1;
nodes = (
(480,0,l),
(496,114,l),
(188,114,l),
(172,0,l)
);
}
);
width = 533;
}
);
metricLeft = H;
unicode = 76;
userData = {
KernOnName = L;
};
}
{
glyphname = M;
kernLeft = KO_H;
kernRight = KO_H;
layers = (
{
layerId = m01;
shapes = (
{
closed = 1;
nodes = (
(167,0,l),
(167,588,l),
(159,588,l),
(377,0,l),
(461,0,l),
(677,590,l),
(669,590,l),
(669,0,l),
(761,0,l),
(761,680,l),
(631,680,l),
(419,94,l),
(429,94,l),
(211,680,l),
(83,680,l),
(83,0,l)
);
}
);
width = 844;
},
{
layerId = "E9FB66CC-5D7A-47B2-9A25-A0E8EEF5BB81";
shapes = (
{
closed = 1;
nodes = (
(194,0,l),
(194,532,l),
(186,532,l),
(380,0,l),
(476,0,l),
(664,532,l),
(656,532,l),
(656,0,l),
(792,0,l),
(792,692,l),
(610,692,l),
(436,200,l),
(444,200,l),
(266,692,l),
(72,692,l),
(72,0,l)
);
}
);
width = 864;
},
{
layerId = "980A8AF2-BF11-492D-9410-496A94B21BD3";
shapes = (
{
closed = 1;
nodes = (
(131,0,l),
(211,588,l),
(204,588,l),
(333,0,l),
(418,0,l),
(706,590,l),
(695,590,l),
(615,0,l),
(707,0,l),
(800,680,l),
(671,680,l),
(387,94,l),
(398,94,l),
(269,680,l),
(141,680,l),
(48,0,l)
);
}
);
width = 827;
},
{
layerId = "829AF10C-3E33-4291-B5B6-8F7CF12D6A62";
shapes = (
{
closed = 1;
nodes = (
(157,0,l),
(230,543,l),
(221,543,l),
(336,0,l),
(438,0,l),
(694,543,l),
(678,543,l),
(605,0,l),
(741,0,l),
(836,692,l),
(657,692,l),
(422,200,l),
(426,200,l),
(320,692,l),
(131,692,l),
(36,0,l)
);
}
);
width = 851;
}
);
metricLeft = H;
metricRight = H;
unicode = 77;
}
{
glyphname = N;
kernLeft = KO_H;
kernRight = KO_H;
layers = (
{
anchors = (
{
name = bottom;
pos = (363,0);
},
{
name = top;
pos = (354,680);
}
);
layerId = m01;
shapes = (
{
closed = 1;
nodes = (
(169,0,l),
(169,590,l),
(161,590,l),
(507,0,l),
(621,0,l),
(621,680,l),
(535,680,l),
(535,106,l),
(543,106,l),
(205,680,l),
(83,680,l),
(83,0,l)
);
}
);
width = 704;
},
{
anchors = (
{
name = bottom;
pos = (366,0);
},
{
name = top;
pos = (358,692);
}
);
layerId = "E9FB66CC-5D7A-47B2-9A25-A0E8EEF5BB81";
shapes = (
{
closed = 1;
nodes = (
(202,0,l),
(202,508,l),
(194,508,l),
(492,0,l),
(644,0,l),
(644,692,l),
(514,692,l),
(514,204,l),
(522,204,l),
(236,692,l),
(72,692,l),
(72,0,l)
);
}
);
width = 716;
},
{
anchors = (
{
name = bottom;
pos = (364,0);
},
{
name = top;
pos = (360,681);
}
);
associatedMasterId = m01;
layerId = "71E572D0-3921-4148-95E2-FFE2620C6ACC";
name = "15 apr 23, 17:24";
shapes = (
{
closed = 1;
nodes = (
(175,0,l),
(175,563,l),
(520,0,l),
(627,0,l),
(627,681,l),
(541,681,l),
(541,132,l),
(205,681,l),
(89,681,l),
(89,0,l)
);
}
);
width = 716;
},
{
anchors = (
{
name = bottom;
pos = (320,0);
},
{
name = top;
pos = (404,680);
}
);
layerId = "980A8AF2-BF11-492D-9410-496A94B21BD3";
shapes = (
{
closed = 1;
nodes = (
(134,0,l),
(214,590,l),
(208,590,l),
(460,0,l),
(571,0,l),
(665,680,l),
(579,680,l),
(501,106,l),
(507,106,l),
(260,680,l),
(141,680,l),
(48,0,l)
);
}
);
width = 691;
},
{
anchors = (
{
name = bottom;
pos = (364,0);
},
{
name = top;
pos = (360,681);
}
);
associatedMasterId = "980A8AF2-BF11-492D-9410-496A94B21BD3";
layerId = "9FAA7CAF-C3D6-4086-A702-D42C4DA7C4E5";
name = "15 apr 23, 17:24";
shapes = (
{
closed = 1;
nodes = (
(175,0,l),
(175,563,l),
(520,0,l),
(627,0,l),
(627,681,l),
(541,681,l),
(541,132,l),
(205,681,l),
(89,681,l),
(89,0,l)
);
}
);
width = 716;
},
{
anchors = (
{
name = bottom;
pos = (324,0);
},
{
name = top;
pos = (411,692);
}
);
layerId = "829AF10C-3E33-4291-B5B6-8F7CF12D6A62";
shapes = (
{
closed = 1;
nodes = (
(168,0,l),
(237,508,l),
(230,508,l),
(448,0,l),
(597,0,l),
(693,692,l),
(561,692,l),
(495,201,l),
(501,201,l),
(289,692,l),
(131,692,l),
(36,0,l)
);
}
);
width = 707;
}
);
metricLeft = H;
metricRight = H;
unicode = 78;
}
{
glyphname = O;
kernLeft = KO_O;
kernRight = KO_O;
layers = (
{
anchors = (
{
name = center;
pos = (361,335);
},
{
name = top;
pos = (359,680);
}
);
layerId = m01;
shapes = (
{
closed = 1;
nodes = (
(547,-14,o),
(675,130,o),
(675,340,cs),
(675,551,o),
(547,694,o),
(359,694,cs),
(171,694,o),
(43,551,o),
(43,340,cs),
(43,130,o),
(171,-14,o),
(359,-14,cs)
);
},
{
closed = 1;
nodes = (
(227,62,o),
(143,171,o),
(143,341,cs),
(143,512,o),
(227,620,o),
(359,620,cs),
(491,620,o),
(575,512,o),
(575,341,cs),
(575,171,o),
(491,62,o),
(359,62,cs)
);
}
);
width = 718;
},
{
anchors = (
{
name = center;
pos = (359,346);
},
{
name = top;
pos = (359,692);
}
);
layerId = "E9FB66CC-5D7A-47B2-9A25-A0E8EEF5BB81";
shapes = (
{
closed = 1;
nodes = (
(555,-14,o),
(686,130,o),
(686,346,cs),
(686,562,o),
(555,706,o),
(359,706,cs),
(163,706,o),
(32,562,o),
(32,346,cs),
(32,130,o),
(163,-14,o),
(359,-14,cs)
);
},
{
closed = 1;
nodes = (
(252,96,o),
(184,194,o),
(184,347,cs),
(184,500,o),
(252,598,o),
(359,598,cs),
(466,598,o),
(534,500,o),
(534,347,cs),
(534,194,o),
(466,96,o),
(359,96,cs)
);
}
);
width = 718;
},
{
anchors = (
{
name = center;
pos = (362,335);
},
{
name = top;
pos = (408,680);
}
);
layerId = "980A8AF2-BF11-492D-9410-496A94B21BD3";
shapes = (
{
closed = 1;
nodes = (
(515,-14,o),
(672,171,o),
(672,407,cs),
(672,580,o),
(571,694,o),
(410,694,cs),
(206,694,o),
(49,510,o),
(49,273,cs),
(49,100,o),
(150,-14,o),
(312,-14,cs)
);
},
{
closed = 1;
nodes = (
(211,65,o),
(146,148,o),
(148,281,cs),
(151,476,o),
(262,622,o),
(404,619,cs),
(511,617,o),
(575,534,o),
(573,401,cs),
(570,204,o),
(459,60,o),
(318,63,cs)
);
}
);
width = 700;
},
{
anchors = (
{
name = center;
pos = (364,346);
},
{
name = top;
pos = (412,692);
}
);
layerId = "829AF10C-3E33-4291-B5B6-8F7CF12D6A62";
shapes = (
{
closed = 1;
nodes = (
(537,-14,o),
(689,171,o),
(689,415,cs),
(689,591,o),
(584,706,o),
(414,706,cs),
(190,706,o),
(38,521,o),
(38,277,cs),
(38,100,o),
(143,-14,o),
(313,-14,cs)
);
},
{
closed = 1;
nodes = (
(241,97,o),
(189,166,o),
(189,281,cs),
(189,460,o),
(285,597,o),
(400,597,cs),
(487,597,o),
(538,527,o),
(538,413,cs),
(538,234,o),
(442,97,o),
(327,97,cs)
);
}
);
width = 706;
}
);
metricRight = "=|";
unicode = 79;
userData = {
KernOnName = O;
};
}
{
glyphname = P;
kernLeft = KO_H;
kernRight = KO_P;
layers = (
{
layerId = m01;
shapes = (
{
closed = 1;
nodes = (
(177,0,l),
(177,614,l),
(169,606,l),
(351,606,ls),
(433,606,o),
(481,560,o),
(481,482,cs),
(481,402,o),
(431,354,o),
(347,354,cs),
(169,354,l),
(169,280,l),
(335,280,ls),
(484,280,o),
(579,359,o),
(579,484,cs),
(579,604,o),
(486,680,o),
(339,680,cs),
(83,680,l),
(83,0,l)
);
}
);
width = 610;
},
{
layerId = "E9FB66CC-5D7A-47B2-9A25-A0E8EEF5BB81";
shapes = (
{
closed = 1;
nodes = (
(216,0,l),
(216,592,l),
(208,584,l),
(336,584,ls),
(403,584,o),
(442,546,o),
(442,482,cs),
(442,417,o),
(402,378,o),
(334,378,cs),
(208,378,l),
(208,270,l),
(340,270,ls),
(494,270,o),
(592,353,o),
(592,484,cs),
(592,611,o),
(496,692,o),
(344,692,cs),
(72,692,l),
(72,0,l)
);
}
);
width = 612;
},
{
associatedMasterId = m01;
layerId = "DBC19135-4BDE-4507-9A9E-AE0B796A5218";
name = "15 apr 23, 17:25";
shapes = (
{
closed = 1;
nodes = (
(183,0,l),
(183,615,l),
(175,607,l),
(348,607,ls),
(425,607,o),
(473,562,o),
(473,487,cs),
(473,409,o),
(425,362,o),
(346,362,cs),
(175,362,l),
(175,288,l),
(335,288,ls),
(476,288,o),
(570,367,o),
(570,487,cs),
(570,604,o),
(478,681,o),
(339,681,cs),
(89,681,l),
(89,0,l)
);
}
);
width = 593;
},
{
layerId = "980A8AF2-BF11-492D-9410-496A94B21BD3";
shapes = (
{
closed = 1;
nodes = (
(142,0,l),
(226,614,l),
(217,606,l),
(390,606,ls),
(458,606,o),
(499,569,o),
(499,506,cs),
(499,415,o),
(440,354,o),
(352,354,cs),
(183,354,l),
(172,280,l),
(331,280,ls),
(487,280,o),
(598,377,o),
(598,514,cs),
(598,616,o),
(519,680,o),
(390,680,cs),
(141,680,l),
(48,0,l)
);
}
);
width = 597;
},
{
associatedMasterId = "980A8AF2-BF11-492D-9410-496A94B21BD3";
layerId = "C17D8C22-CF7E-408B-9DC0-AEE8B490F511";
name = "15 apr 23, 17:25";
shapes = (
{
closed = 1;
nodes = (
(183,0,l),
(183,615,l),
(175,607,l),
(348,607,ls),
(425,607,o),
(473,562,o),
(473,487,cs),
(473,409,o),
(425,362,o),
(346,362,cs),
(175,362,l),
(175,288,l),
(335,288,ls),
(476,288,o),
(570,367,o),
(570,487,cs),
(570,604,o),
(478,681,o),
(339,681,cs),
(89,681,l),
(89,0,l)
);
}
);
width = 593;
},
{
layerId = "829AF10C-3E33-4291-B5B6-8F7CF12D6A62";
shapes = (
{
closed = 1;
nodes = (
(180,0,l),
(262,592,l),
(253,584,l),
(375,584,ls),
(430,584,o),
(464,553,o),
(464,502,cs),
(464,427,o),
(415,378,o),
(344,378,cs),
(224,378,l),
(209,270,l),
(337,270,ls),
(499,270,o),
(615,372,o),
(615,517,cs),
(615,624,o),
(533,692,o),
(398,692,cs),
(131,692,l),
(36,0,l)
);
}
);
width = 603;
}
);
metricLeft = H;
unicode = 80;
}
{
glyphname = Q;
kernLeft = KO_O;
kernRight = KO_O;
layers = (
{
background = {
shapes = (
{
ref = O;
}
);
};
layerId = m01;
shapes = (
{
closed = 1;
nodes = (
(675,-89,l),
(649,-24,o),
(587,26,o),
(515,38,c),
(515,30,l),
(613,79,o),
(675,202,o),
(675,348,cs),
(675,560,o),
(552,694,o),
(358,694,cs),
(165,694,o),
(43,557,o),
(43,342,cs),
(43,127,o),
(166,-12,o),
(359,-12,cs),
(381,-12,ls),
(474,-12,o),
(549,-58,o),
(580,-136,c)
);
},
{
closed = 1;
nodes = (
(223,62,o),
(143,166,o),
(143,341,cs),
(143,516,o),
(223,620,o),
(359,620,cs),
(495,620,o),
(575,516,o),
(575,341,cs),
(575,166,o),
(495,62,o),
(359,62,cs)
);
}
);
width = 718;
},
{
background = {
anchors = (
{
name = top;
pos = (359,692);
}
);
shapes = (
{
ref = O;
}
);
};
layerId = "E9FB66CC-5D7A-47B2-9A25-A0E8EEF5BB81";
shapes = (
{
closed = 1;
nodes = (
(686,-76,l),
(658,-12,o),
(590,38,o),
(520,48,c),
(520,40,l),
(624,92,o),
(686,208,o),
(686,350,cs),
(686,562,o),
(553,706,o),
(359,706,cs),
(165,706,o),
(32,560,o),
(32,347,cs),
(32,134,o),
(165,-12,o),
(359,-12,cs),
(364,-12,ls),
(452,-12,o),
(518,-66,o),
(536,-152,c)
);
},
{
closed = 1;
nodes = (
(252,96,o),
(184,194,o),
(184,347,cs),
(184,500,o),
(252,598,o),
(359,598,cs),
(466,598,o),
(534,500,o),
(534,347,cs),
(534,194,o),
(466,96,o),
(359,96,cs)
);
}
);
width = 718;
},
{
associatedMasterId = "E9FB66CC-5D7A-47B2-9A25-A0E8EEF5BB81";
background = {
shapes = (
{
closed = 1;
nodes = (
(549,-12,o),
(679,129,o),
(679,340,cs),
(679,552,o),
(549,693,o),
(353,693,cs),
(159,693,o),
(29,552,o),
(29,340,cs),
(29,129,o),
(159,-12,o),
(353,-12,cs)
);
},
{
closed = 1;
nodes = (
(246,98,o),
(180,190,o),
(180,341,cs),
(180,493,o),
(246,586,o),
(353,586,cs),
(461,586,o),
(528,493,o),
(528,341,cs),
(528,190,o),
(461,98,o),
(353,98,cs)
);
}
);
};
layerId = "5E3D4344-40ED-437A-9499-867750331F68";
name = "6 Jun 23, 16:44";
shapes = (
{
closed = 1;
nodes = (
(678,-78,l),
(650,-19,o),
(581,34,o),
(516,50,c),
(516,39,l),
(619,90,o),
(677,206,o),
(677,346,cs),
(677,553,o),
(549,693,o),
(353,693,cs),
(159,693,o),
(30,552,o),
(30,340,cs),
(30,129,o),
(158,-12,o),
(353,-12,cs),
(354,-12,ls),
(443,-12,o),
(513,-66,o),
(540,-152,c)
);
},
{
closed = 1;
nodes = (
(246,98,o),
(180,190,o),
(180,341,cs),
(180,493,o),
(246,586,o),
(353,586,cs),
(461,586,o),
(528,493,o),
(528,341,cs),
(528,190,o),
(461,98,o),
(353,98,cs)
);
}
);
width = 708;
},
{
background = {
shapes = (
{
ref = O;
}
);
};
layerId = "980A8AF2-BF11-492D-9410-496A94B21BD3";
shapes = (
{
closed = 1;
nodes = (
(609,-89,l),
(592,-23,o),
(538,26,o),
(471,38,c),
(470,30,l),
(589,87,o),
(673,251,o),
(673,417,cs),
(673,588,o),
(574,694,o),
(409,694,cs),
(201,694,o),
(49,515,o),
(49,271,cs),
(49,97,o),
(148,-12,o),
(312,-12,cs),
(333,-12,ls),
(422,-12,o),
(488,-58,o),
(507,-136,c)
);
},
{
closed = 1;
nodes = (
(212,62,o),
(149,139,o),
(149,272,cs),
(149,475,o),
(252,620,o),
(399,620,cs),
(509,620,o),
(572,543,o),
(572,410,cs),
(572,208,o),
(470,62,o),
(323,62,cs)
);
}
);
width = 702;
},
{
background = {
shapes = (
{
pos = (1,0);
ref = O;
}
);
};
layerId = "829AF10C-3E33-4291-B5B6-8F7CF12D6A62";
shapes = (
{
closed = 1;
nodes = (
(626,-96,l),
(607,-11,o),
(548,38,o),
(482,48,c),
(485,38,l),
(610,98,o),
(690,251,o),
(690,416,cs),
(690,591,o),
(582,706,o),
(414,706,cs),
(192,706,o),
(39,520,o),
(39,281,cs),
(39,105,o),
(149,-12,o),
(317,-12,cs),
(322,-12,ls),
(406,-12,o),
(442,-66,o),
(466,-152,c)
);
},
{
closed = 1;
nodes = (
(243,96,o),
(191,168,o),
(191,284,cs),
(191,460,o),
(282,598,o),
(399,598,cs),
(487,598,o),
(537,524,o),
(537,410,cs),
(537,234,o),
(447,96,o),
(330,96,cs)
);
}
);
width = 710;
},
{
associatedMasterId = "829AF10C-3E33-4291-B5B6-8F7CF12D6A62";
background = {
shapes = (
{
closed = 1;
nodes = (
(549,-12,o),
(679,129,o),
(679,340,cs),
(679,552,o),
(549,693,o),
(353,693,cs),
(159,693,o),
(29,552,o),
(29,340,cs),
(29,129,o),
(159,-12,o),
(353,-12,cs)
);
},
{
closed = 1;
nodes = (
(246,98,o),
(180,190,o),
(180,341,cs),
(180,493,o),
(246,586,o),
(353,586,cs),
(461,586,o),
(528,493,o),
(528,341,cs),
(528,190,o),
(461,98,o),
(353,98,cs)
);
}
);
};
layerId = "FE63C83A-51CA-49E8-BE1A-82B226310F13";
name = "6 Jun 23, 16:44";
shapes = (
{
closed = 1;
nodes = (
(678,-78,l),
(650,-19,o),
(581,34,o),
(516,50,c),
(516,39,l),
(619,90,o),
(677,206,o),
(677,346,cs),
(677,553,o),
(549,693,o),
(353,693,cs),
(159,693,o),
(30,552,o),
(30,340,cs),
(30,129,o),
(158,-12,o),
(353,-12,cs),
(354,-12,ls),
(443,-12,o),
(513,-66,o),
(540,-152,c)
);
},
{
closed = 1;
nodes = (
(246,98,o),
(180,190,o),
(180,341,cs),
(180,493,o),
(246,586,o),
(353,586,cs),
(461,586,o),
(528,493,o),
(528,341,cs),
(528,190,o),
(461,98,o),
(353,98,cs)
);
}
);
width = 708;
}
);
metricLeft = O;
metricRight = O;
unicode = 81;
}
{
glyphname = R;
kernLeft = KO_H;
kernRight = KO_R;
layers = (
{
anchors = (
{
name = bottom;
pos = (351,0);
},
{
name = top;
pos = (321,680);
}
);
layerId = m01;
shapes = (
{
closed = 1;
nodes = (
(177,0,l),
(177,614,l),
(169,606,l),
(351,606,ls),
(429,606,o),
(475,564,o),
(475,494,cs),
(475,421,o),
(427,378,o),
(347,378,cs),
(169,378,l),
(169,304,l),
(299,304,ls),
(351,304,o),
(395,276,o),
(415,228,cs),
(509,0,l),
(619,0,l),
(495,260,ls),
(475,302,o),
(441,324,o),
(407,324,c),
(407,316,l),
(507,328,o),
(573,394,o),
(573,494,cs),
(573,608,o),
(488,680,o),
(353,680,cs),
(83,680,l),
(83,0,l)
);
}
);
width = 640;
},
{
anchors = (
{
name = bottom;
pos = (366,0);
},
{
name = top;
pos = (334,692);
}
);
layerId = "E9FB66CC-5D7A-47B2-9A25-A0E8EEF5BB81";
shapes = (
{
closed = 1;
nodes = (
(216,0,l),
(216,593,l),
(208,585,l),
(351,585,ls),
(414,585,o),
(452,551,o),
(452,494,cs),
(452,435,o),
(414,400,o),
(350,400,cs),
(208,400,l),
(208,294,l),
(324,294,ls),
(365,294,o),
(398,271,o),
(410,236,cs),
(488,0,l),
(660,0,l),
(540,272,ls),
(525,306,o),
(494,328,o),
(460,328,c),
(460,321,l),
(548,339,o),
(602,409,o),
(602,500,cs),
(602,617,o),
(514,692,o),
(376,692,cs),
(72,692,l),
(72,0,l)
);
}
);
width = 672;
},
{
anchors = (
{
name = bottom;
pos = (309,0);
},
{
name = top;
pos = (373,680);
}
);
layerId = "980A8AF2-BF11-492D-9410-496A94B21BD3";
shapes = (
{
closed = 1;
nodes = (
(142,0,l),
(226,614,l),
(217,606,l),
(390,606,ls),
(457,606,o),
(496,572,o),
(496,514,cs),
(496,433,o),
(439,378,o),
(356,378,cs),
(186,378,l),
(176,304,l),
(301,304,ls),
(347,304,o),
(390,276,o),
(402,228,cs),
(460,0,l),
(570,0,l),
(486,260,ls),
(473,301,o),
(443,324,o),
(411,324,c),
(409,316,l),
(526,331,o),
(595,420,o),
(595,524,cs),
(595,620,o),
(523,680,o),
(405,680,cs),
(141,680,l),
(48,0,l)
);
}
);
width = 628;
},
{
anchors = (
{
name = bottom;
pos = (325,0);
},
{
name = top;
pos = (389,692);
}
);
layerId = "829AF10C-3E33-4291-B5B6-8F7CF12D6A62";
shapes = (
{
closed = 1;
nodes = (
(180,0,l),
(262,593,l),
(253,585,l),
(389,585,ls),
(444,585,o),
(477,557,o),
(477,510,cs),
(477,445,o),
(430,400,o),
(364,400,cs),
(227,400,l),
(212,294,l),
(322,294,ls),
(359,294,o),
(389,270,o),
(397,236,cs),
(452,0,l),
(614,0,l),
(534,272,ls),
(525,304,o),
(496,328,o),
(465,328,c),
(464,321,l),
(558,340,o),
(628,425,o),
(628,530,cs),
(628,630,o),
(553,692,o),
(431,692,cs),
(131,692,l),
(36,0,l)
);
}
);
width = 664;
}
);
metricLeft = H;
unicode = 82;
userData = {
KernOnName = R;
};
}
{
glyphname = S;
kernLeft = KO_S;
kernRight = KO_S;
layers = (
{
anchors = (
{
name = bottom;
pos = (320,0);
},
{
name = top;
pos = (320,692);
}
);
layerId = "E9FB66CC-5D7A-47B2-9A25-A0E8EEF5BB81";
shapes = (
{
closed = 1;
nodes = (
(494,-14,o),
(599,59,o),
(599,193,cs),
(599,486,o),
(200,346,o),
(200,515,cs),
(200,570,o),
(243,605,o),
(317,605,cs),
(389,605,o),
(441,569,o),
(447,506,c),
(587,556,l),
(552,652,o),
(451,706,o),
(323,706,cs),
(163,706,o),
(58,635,o),
(58,505,cs),
(58,228,o),
(456,367,o),
(456,186,cs),
(456,124,o),
(410,87,o),
(331,87,cs),
(250,87,o),
(194,132,o),
(178,214,c),
(42,164,l),
(74,52,o),
(180,-14,o),
(329,-14,cs)
);
}
);
width = 634;
},
{
anchors = (
{
name = bottom;
pos = (317,0);
},
{
name = top;
pos = (301,681);
}
);
associatedMasterId = m01;
layerId = "7B12349E-CF51-40D1-983E-E94D7E9052BF";
name = "20 Apr 23, 21:32";
shapes = (
{
closed = 1;
nodes = (
(467,-12,o),
(565,62,o),
(565,171,cs),
(565,405,o),
(155,346,o),
(155,517,cs),
(155,580,o),
(208,620,o),
(290,620,cs),
(380,620,o),
(440,572,o),
(453,487,c),
(551,510,l),
(531,619,o),
(424,693,o),
(288,693,cs),
(153,693,o),
(60,627,o),
(60,517,cs),
(60,288,o),
(467,348,o),
(467,169,cs),
(467,103,o),
(414,62,o),
(321,62,cs),
(212,62,o),
(142,119,o),
(132,221,c),
(33,198,l),
(52,70,o),
(164,-12,o),
(319,-12,cs)
);
}
);
width = 604;
},
{
anchors = (
{
name = bottom;
pos = (314,0);
},
{
name = top;
pos = (295,680);
}
);
layerId = m01;
name = Regular;
shapes = (
{
closed = 1;
nodes = (
(464,-14,o),
(567,68,o),
(565,193,cs),
(561,457,o),
(160,332,o),
(158,510,cs),
(157,576,o),
(213,620,o),
(300,620,cs),
(381,620,o),
(441,576,o),
(459,506,c),
(553,539,l),
(527,637,o),
(430,694,o),
(308,694,cs),
(161,694,o),
(66,618,o),
(67,501,cs),
(70,246,o),
(470,372,o),
(473,183,cs),
(474,109,o),
(413,62,o),
(317,62,cs),
(227,62,o),
(159,111,o),
(140,194,c),
(46,162,l),
(71,55,o),
(179,-14,o),
(311,-14,cs)
);
}
);
width = 606;
},
{
anchors = (
{
name = bottom;
pos = (317,0);
},
{
name = top;
pos = (301,681);
}
);
associatedMasterId = "980A8AF2-BF11-492D-9410-496A94B21BD3";
layerId = "55B31003-57D5-41C9-807E-A87AABF730C6";
name = "20 Apr 23, 21:32";
shapes = (
{
closed = 1;
nodes = (
(467,-12,o),
(565,62,o),
(565,171,cs),
(565,405,o),
(155,346,o),
(155,517,cs),
(155,580,o),
(208,620,o),
(290,620,cs),
(380,620,o),
(440,572,o),
(453,487,c),
(551,510,l),
(531,619,o),
(424,693,o),
(288,693,cs),
(153,693,o),
(60,627,o),
(60,517,cs),
(60,288,o),
(467,348,o),
(467,169,cs),
(467,103,o),
(414,62,o),
(321,62,cs),
(212,62,o),
(142,119,o),
(132,221,c),
(33,198,l),
(52,70,o),
(164,-12,o),
(319,-12,cs)
);
}
);
width = 604;
},
{
anchors = (
{
name = bottom;
pos = (266,0);
},
{
name = top;
pos = (355,680);
}
);
layerId = "980A8AF2-BF11-492D-9410-496A94B21BD3";
name = Regular;
shapes = (
{
closed = 1;
nodes = (
(423,-14,o),
(537,81,o),
(537,207,cs),
(537,434,o),
(192,343,o),
(192,507,cs),
(192,575,o),
(255,620,o),
(350,620,cs),
(425,620,o),
(474,576,o),
(480,506,c),
(574,529,l),
(564,637,o),
(476,694,o),
(360,694,cs),
(204,694,o),
(100,605,o),
(100,486,cs),
(100,265,o),
(443,359,o),
(443,187,cs),
(443,110,o),
(372,62,o),
(270,62,cs),
(186,62,o),
(132,108,o),
(125,194,c),
(32,172,l),
(40,55,o),
(135,-14,o),
(261,-14,cs)
);
}
);
width = 588;
},
{
anchors = (
{
name = bottom;
pos = (279,0);
},
{
name = top;
pos = (388,692);
}
);
layerId = "829AF10C-3E33-4291-B5B6-8F7CF12D6A62";
shapes = (
{
closed = 1;
nodes = (
(462,-14,o),
(576,77,o),
(576,224,cs),
(576,457,o),
(236,365,o),
(236,504,cs),
(236,565,o),
(293,605,o),
(368,605,cs),
(435,605,o),
(473,567,o),
(478,502,c),
(621,542,l),
(602,650,o),
(510,706,o),
(383,706,cs),
(217,706,o),
(93,622,o),
(93,481,cs),
(93,252,o),
(432,348,o),
(432,201,cs),
(432,132,o),
(374,87,o),
(292,87,cs),
(214,87,o),
(165,135,o),
(163,216,c),
(23,176,l),
(37,54,o),
(139,-14,o),
(286,-14,cs)
);
}
);
width = 625;
}
);
note = "Falls to the right";
unicode = 83;
}
{
glyphname = T;
kernLeft = KO_T;
kernRight = KO_T;
layers = (
{
anchors = (
{
name = bottom;
pos = (283,0);
},
{
name = center;
pos = (281,372);
},
{
name = top;
pos = (281,680);
}
);
layerId = m01;
shapes = (
{
closed = 1;
nodes = (
(328,0,l),
(328,614,l),
(234,614,l),
(234,0,l)
);
},
{
closed = 1;
nodes = (
(551,606,l),
(551,680,l),
(11,680,l),
(11,606,l)
);
}
);
width = 562;
},
{
anchors = (
{
name = bottom;
pos = (283,0);
},
{
name = center;
pos = (283,364);
},
{
name = top;
pos = (283,692);
}
);
layerId = "E9FB66CC-5D7A-47B2-9A25-A0E8EEF5BB81";
shapes = (
{
closed = 1;
nodes = (
(355,0,l),
(355,592,l),
(211,592,l),
(211,0,l)
);
},
{
closed = 1;
nodes = (
(560,584,l),
(560,692,l),
(6,692,l),
(6,584,l)
);
}
);
width = 566;
},
{
anchors = (
{
name = bottom;
pos = (240,0);
},
{
name = center;
pos = (289,372);
},
{
name = top;
pos = (331,680);
}
);
layerId = "980A8AF2-BF11-492D-9410-496A94B21BD3";
shapes = (
{
closed = 1;
nodes = (
(286,0,l),
(369,614,l),
(275,614,l),
(192,0,l)
);
},
{
closed = 1;
nodes = (
(583,606,l),
(593,680,l),
(69,680,l),
(59,606,l)
);
}
);
width = 546;
},
{
anchors = (
{
name = bottom;
pos = (241,0);
},
{
name = center;
pos = (291,364);
},
{
name = top;
pos = (336,692);
}
);
layerId = "829AF10C-3E33-4291-B5B6-8F7CF12D6A62";
shapes = (
{
closed = 1;
nodes = (
(314,0,l),
(394,592,l),
(251,592,l),
(170,0,l)
);
},
{
closed = 1;
nodes = (
(593,584,l),
(608,692,l),
(65,692,l),
(50,584,l)
);
}
);
width = 555;
}
);
unicode = 84;
userData = {
KernOnName = T;
};
}
{
glyphname = U;
kernLeft = KO_U;
kernRight = KO_U;
layers = (
{
anchors = (
{
name = ogonek;
pos = (445,11);
},
{
name = top;
pos = (343,680);
}
);
layerId = m01;
shapes = (
{
closed = 1;
nodes = (
(509,-14,o),
(615,90,o),
(615,254,cs),
(615,680,l),
(527,680,l),
(527,248,ls),
(527,134,o),
(459,66,o),
(345,66,cs),
(232,66,o),
(165,134,o),
(165,248,cs),
(165,680,l),
(71,680,l),
(71,254,ls),
(71,90,o),
(177,-14,o),
(343,-14,cs)
);
}
);
width = 686;
},
{
anchors = (
{
name = ogonek;
pos = (448,8);
},
{
name = top;
pos = (343,692);
}
);
layerId = "E9FB66CC-5D7A-47B2-9A25-A0E8EEF5BB81";
shapes = (
{
closed = 1;
nodes = (
(514,-14,o),
(624,91,o),
(624,256,cs),
(624,692,l),
(490,692,l),
(490,252,ls),
(490,159,o),
(437,104,o),
(347,104,cs),
(257,104,o),
(204,159,o),
(204,252,cs),
(204,692,l),
(60,692,l),
(60,256,ls),
(60,91,o),
(170,-14,o),
(342,-14,cs)
);
}
);
width = 684;
},
{
anchors = (
{
name = ogonek;
pos = (401,11);
},
{
name = top;
pos = (394,680);
}
);
layerId = "980A8AF2-BF11-492D-9410-496A94B21BD3";
shapes = (
{
closed = 1;
nodes = (
(454,-14,o),
(578,90,o),
(600,254,cs),
(658,680,l),
(570,680,l),
(512,258,ls),
(496,142,o),
(413,66,o),
(312,66,cs),
(201,66,o),
(148,132,o),
(164,247,cs),
(223,680,l),
(129,680,l),
(71,254,ls),
(49,90,o),
(138,-14,o),
(298,-14,cs)
);
}
);
width = 673;
},
{
anchors = (
{
name = ogonek;
pos = (405,8);
},
{
name = top;
pos = (397,692);
}
);
layerId = "829AF10C-3E33-4291-B5B6-8F7CF12D6A62";
shapes = (
{
closed = 1;
nodes = (
(460,-14,o),
(591,91,o),
(613,256,cs),
(672,692,l),
(538,692,l),
(478,252,ls),
(465,156,o),
(397,104,o),
(320,104,cs),
(237,104,o),
(189,159,o),
(202,252,cs),
(263,692,l),
(119,692,l),
(59,256,ls),
(36,91,o),
(131,-14,o),
(298,-14,cs)
);
}
);
width = 675;
}
);
metricRight = "=|";
unicode = 85;
}
{
glyphname = V;
kernLeft = KO_V;
kernRight = KO_V;
layers = (
{
layerId = m01;
shapes = (
{
closed = 1;
nodes = (
(359,0,l),
(601,680,l),
(508,680,l),
(308,100,l),
(319,100,l),
(115,680,l),
(13,680,l),
(259,0,l)
);
}
);
width = 614;
},
{
layerId = "E9FB66CC-5D7A-47B2-9A25-A0E8EEF5BB81";
shapes = (
{
closed = 1;
nodes = (
(400,0,l),
(634,692,l),
(493,692,l),
(321,160,l),
(334,160,l),
(156,692,l),
(6,692,l),
(244,0,l)
);
}
);
width = 640;
},
{
layerId = "980A8AF2-BF11-492D-9410-496A94B21BD3";
shapes = (
{
closed = 1;
nodes = (
(316,0,l),
(643,680,l),
(547,680,l),
(275,100,l),
(283,100,l),
(166,680,l),
(71,680,l),
(216,0,l)
);
}
);
width = 598;
},
{
layerId = "829AF10C-3E33-4291-B5B6-8F7CF12D6A62";
shapes = (
{
closed = 1;
nodes = (
(359,0,l),
(682,692,l),
(538,692,l),
(297,160,l),
(310,160,l),
(214,692,l),
(69,692,l),
(203,0,l)
);
}
);
width = 629;
}
);
unicode = 86;
userData = {
KernOnName = V;
};
}
{
glyphname = W;
kernLeft = KO_W;
kernRight = KO_W;
layers = (
{
anchors = (
{
name = bottom;
pos = (442,0);
},
{
name = top;
pos = (442,680);
}
);
layerId = m01;
shapes = (
{
closed = 1;
nodes = (
(305,0,l),
(451,596,l),
(443,596,l),
(585,0,l),
(693,0,l),
(872,680,l),
(781,680,l),
(639,84,l),
(648,84,l),
(502,680,l),
(395,680,l),
(253,84,l),
(262,84,l),
(112,680,l),
(17,680,l),
(202,0,l)
);
}
);
width = 884;
},
{
anchors = (
{
name = bottom;
pos = (455,0);
},
{
name = top;
pos = (455,692);
}
);
layerId = "E9FB66CC-5D7A-47B2-9A25-A0E8EEF5BB81";
shapes = (
{
closed = 1;
nodes = (
(344,0,l),
(462,524,l),
(454,524,l),
(574,0,l),
(730,0,l),
(905,692,l),
(776,692,l),
(656,170,l),
(664,170,l),
(540,692,l),
(388,692,l),
(274,172,l),
(282,172,l),
(154,692,l),
(6,692,l),
(188,0,l)
);
}
);
width = 909;
},
{
anchors = (
{
name = bottom;
pos = (395,0);
},
{
name = top;
pos = (487,680);
}
);
layerId = "980A8AF2-BF11-492D-9410-496A94B21BD3";
shapes = (
{
closed = 1;
nodes = (
(265,0,l),
(484,596,l),
(477,596,l),
(532,0,l),
(640,0,l),
(907,680,l),
(814,680,l),
(597,86,l),
(607,86,l),
(547,680,l),
(436,680,l),
(222,86,l),
(233,86,l),
(165,680,l),
(71,680,l),
(161,0,l)
);
}
);
width = 860;
},
{
anchors = (
{
name = bottom;
pos = (411,0);
},
{
name = top;
pos = (505,692);
}
);
layerId = "829AF10C-3E33-4291-B5B6-8F7CF12D6A62";
shapes = (
{
closed = 1;
nodes = (
(303,0,l),
(488,524,l),
(481,524,l),
(526,0,l),
(682,0,l),
(948,692,l),
(819,692,l),
(632,170,l),
(640,170,l),
(591,692,l),
(439,692,l),
(258,172,l),
(266,172,l),
(213,692,l),
(65,692,l),
(147,0,l)
);
}
);
width = 893;
}
);
unicode = 87;
userData = {
KernOnName = W;
};
}
{
glyphname = X;
kernLeft = KO_X;
kernRight = KO_X;
layers = (
{
layerId = m01;
shapes = (
{
closed = 1;
nodes = (
(591,0,l),
(131,680,l),
(23,680,l),
(481,0,l)
);
},
{
closed = 1;
nodes = (
(111,0,l),
(303,280,l),
(253,356,l),
(7,0,l)
);
},
{
closed = 1;
nodes = (
(585,680,l),
(483,680,l),
(301,416,l),
(351,340,l)
);
}
);
width = 598;
},
{
layerId = "E9FB66CC-5D7A-47B2-9A25-A0E8EEF5BB81";
shapes = (
{
closed = 1;
nodes = (
(642,0,l),
(182,692,l),
(19,692,l),
(474,0,l)
);
},
{
closed = 1;
nodes = (
(145,0,l),
(318,257,l),
(249,361,l),
(4,0,l)
);
},
{
closed = 1;
nodes = (
(620,692,l),
(479,692,l),
(324,461,l),
(393,355,l)
);
}
);
width = 646;
},
{
layerId = "980A8AF2-BF11-492D-9410-496A94B21BD3";
shapes = (
{
closed = 1;
nodes = (
(534,0,l),
(181,680,l),
(78,680,l),
(429,0,l)
);
},
{
closed = 1;
nodes = (
(75,0,l),
(298,280,l),
(257,356,l),
(-30,0,l)
);
},
{
closed = 1;
nodes = (
(625,680,l),
(521,680,l),
(311,416,l),
(353,340,l)
);
}
);
width = 578;
},
{
layerId = "829AF10C-3E33-4291-B5B6-8F7CF12D6A62";
shapes = (
{
closed = 1;
nodes = (
(588,0,l),
(232,692,l),
(78,692,l),
(429,0,l)
);
},
{
closed = 1;
nodes = (
(109,0,l),
(313,257,l),
(249,361,l),
(-41,0,l)
);
},
{
closed = 1;
nodes = (
(667,692,l),
(516,692,l),
(338,461,l),
(400,355,l)
);
}
);
width = 623;
}
);
metricRight = "=|";
unicode = 88;
}
{
glyphname = Y;
kernLeft = KO_Y;
kernRight = KO_Y;
layers = (
{
anchors = (
{
name = top;
pos = (295,680);
}
);
layerId = m01;
shapes = (
{
closed = 1;
nodes = (
(343,0,l),
(343,270,l),
(573,680,l),
(475,680,l),
(297,350,l),
(305,350,l),
(113,680,l),
(9,680,l),
(249,272,l),
(249,0,l)
);
}
);
width = 582;
},
{
anchors = (
{
name = top;
pos = (311,692);
}
);
layerId = "E9FB66CC-5D7A-47B2-9A25-A0E8EEF5BB81";
shapes = (
{
closed = 1;
nodes = (
(380,0,l),
(380,272,l),
(610,692,l),
(474,692,l),
(316,386,l),
(324,386,l),
(162,692,l),
(0,692,l),
(238,273,l),
(238,0,l)
);
}
);
width = 610;
},
{
anchors = (
{
name = top;
pos = (346,680);
}
);
layerId = "980A8AF2-BF11-492D-9410-496A94B21BD3";
shapes = (
{
closed = 1;
nodes = (
(300,0,l),
(338,270,l),
(616,680,l),
(517,680,l),
(302,350,l),
(309,350,l),
(169,680,l),
(67,680,l),
(244,272,l),
(207,0,l)
);
}
);
width = 567;
},
{
anchors = (
{
name = top;
pos = (365,692);
}
);
layerId = "829AF10C-3E33-4291-B5B6-8F7CF12D6A62";
shapes = (
{
closed = 1;
nodes = (
(338,0,l),
(377,272,l),
(656,692,l),
(514,692,l),
(313,380,l),
(330,380,l),
(212,692,l),
(59,692,l),
(234,273,l),
(197,0,l)
);
}
);
width = 597;
}
);
unicode = 89;
}
{
glyphname = Z;
kernLeft = KO_Z;
kernRight = KO_Z;
layers = (
{
anchors = (
{
name = bottom;
pos = (271,0);
},
{
name = center;
pos = (271,340);
},
{
name = top;
pos = (267,680);
}
);
layerId = m01;
shapes = (
{
closed = 1;
nodes = (
(517,0,l),
(517,74,l),
(127,74,l),
(131,66,l),
(515,622,l),
(515,680,l),
(35,680,l),
(35,606,l),
(413,606,l),
(409,614,l),
(25,60,l),
(25,0,l)
);
}
);
width = 542;
},
{
anchors = (
{
name = bottom;
pos = (285,0);
},
{
name = center;
pos = (285,346);
},
{
name = top;
pos = (283,692);
}
);
layerId = "E9FB66CC-5D7A-47B2-9A25-A0E8EEF5BB81";
shapes = (
{
closed = 1;
nodes = (
(545,0,l),
(545,108,l),
(188,108,l),
(192,100,l),
(543,608,l),
(543,692,l),
(36,692,l),
(36,585,l),
(381,585,l),
(377,593,l),
(24,86,l),
(24,0,l)
);
}
);
width = 569;
},
{
anchors = (
{
name = bottom;
pos = (227,0);
},
{
name = center;
pos = (274,340);
},
{
name = top;
pos = (317,680);
}
);
layerId = "980A8AF2-BF11-492D-9410-496A94B21BD3";
shapes = (
{
closed = 1;
nodes = (
(466,0,l),
(476,74,l),
(101,74,l),
(104,66,l),
(549,622,l),
(558,680,l),
(91,680,l),
(80,606,l),
(444,606,l),
(441,614,l),
(-4,60,l),
(-12,0,l)
);
}
);
width = 528;
},
{
anchors = (
{
name = bottom;
pos = (242,0);
},
{
name = center;
pos = (291,346);
},
{
name = top;
pos = (336,692);
}
);
layerId = "829AF10C-3E33-4291-B5B6-8F7CF12D6A62";
shapes = (
{
closed = 1;
nodes = (
(497,0,l),
(512,108,l),
(166,108,l),
(169,100,l),
(579,608,l),
(591,692,l),
(93,692,l),
(78,585,l),
(413,585,l),
(410,593,l),
(-2,86,l),
(-14,0,l)
);
}
);
width = 559;
}
);
metricRight = "=|";
unicode = 90;
userData = {
KernOnName = Z;
};
}
{
glyphname = bracketleft;
kernRight = KO_bracketleft;
layers = (
{
layerId = m01;
shapes = (
{
closed = 1;
nodes = (
(289,-218,l),
(289,-148,l),
(147,-148,l),
(155,-156,l),
(155,620,l),
(147,612,l),
(288,612,l),
(288,680,l),
(69,680,l),
(69,-218,l)
);
}
);
width = 299;
},
{
layerId = "E9FB66CC-5D7A-47B2-9A25-A0E8EEF5BB81";
shapes = (
{
closed = 1;
nodes = (
(298,-218,l),
(298,-128,l),
(184,-128,l),
(192,-136,l),
(192,610,l),
(184,603,l),
(297,603,l),
(297,692,l),
(60,692,l),
(60,-218,l)
);
}
);
width = 302;
},
{
layerId = "980A8AF2-BF11-492D-9410-496A94B21BD3";
shapes = (
{
closed = 1;
nodes = (
(221,-218,l),
(231,-148,l),
(89,-148,l),
(96,-156,l),
(205,620,l),
(196,612,l),
(337,612,l),
(346,680,l),
(127,680,l),
(1,-218,l)
);
}
);
width = 322;
},
{
layerId = "829AF10C-3E33-4291-B5B6-8F7CF12D6A62";
shapes = (
{
closed = 1;
nodes = (
(229,-218,l),
(242,-128,l),
(128,-128,l),
(135,-136,l),
(239,610,l),
(230,603,l),
(343,603,l),
(356,692,l),
(119,692,l),
(-9,-218,l)
);
}
);
width = 333;
}
);
metricLeft = l;
unicode = 91;
userData = {
KernOnName = bracketleft;
KernOnSpecialSpacing = {
L = NoKerning;
R = parenthesis;
};
};
}
{
glyphname = asciicircum;
kernLeft = KO_asciicircum;
kernRight = KO_asciicircum;
layers = (
{
layerId = m01;
shapes = (
{
closed = 1;
nodes = (
(124,280,l),
(278,632,l),
(270,632,l),
(424,280,l),
(504,280,l),
(308,712,l),
(240,712,l),
(40,280,l)
);
}
);
width = 544;
},
{
layerId = "E9FB66CC-5D7A-47B2-9A25-A0E8EEF5BB81";
shapes = (
{
closed = 1;
nodes = (
(154,260,l),
(308,644,l),
(240,644,l),
(394,260,l),
(520,260,l),
(324,724,l),
(230,724,l),
(30,260,l)
);
}
);
width = 550;
},
{
layerId = "980A8AF2-BF11-492D-9410-496A94B21BD3";
shapes = (
{
closed = 1;
nodes = (
(165,280,l),
(368,632,l),
(360,632,l),
(465,280,l),
(545,280,l),
(410,712,l),
(342,712,l),
(81,280,l)
);
}
);
width = 622;
},
{
layerId = "829AF10C-3E33-4291-B5B6-8F7CF12D6A62";
shapes = (
{
closed = 1;
nodes = (
(189,260,l),
(397,644,l),
(329,644,l),
(429,260,l),
(555,260,l),
(424,724,l),
(330,724,l),
(65,260,l)
);
}
);
width = 624;
}
);
metricRight = "=|";
unicode = 94;
userData = {
KernOnSpecialSpacing = {
L = math;
R = math;
};
};
}
{
glyphname = underscore;
kernLeft = KO_underscore;
kernRight = KO_underscore;
layers = (
{
layerId = m01;
shapes = (
{
closed = 1;
nodes = (
(486,-112,l),
(486,-48,l),
(0,-48,l),
(0,-112,l)
);
}
);
width = 486;
},
{
layerId = "E9FB66CC-5D7A-47B2-9A25-A0E8EEF5BB81";
shapes = (
{
closed = 1;
nodes = (
(462,-154,l),
(462,-48,l),
(0,-48,l),
(0,-154,l)
);
}
);
width = 462;
},
{
layerId = "980A8AF2-BF11-492D-9410-496A94B21BD3";
shapes = (
{
closed = 1;
nodes = (
(433,-112,l),
(442,-48,l),
(-44,-48,l),
(-53,-112,l)
);
}
);
width = 486;
},
{
layerId = "829AF10C-3E33-4291-B5B6-8F7CF12D6A62";
shapes = (
{
closed = 1;
nodes = (
(402,-154,l),
(417,-48,l),
(-45,-48,l),
(-60,-154,l)
);
}
);
width = 462;
}
);
metricRight = "=|";
metricWidth = enspace;
unicode = 95;
userData = {
KernOnSpecialSpacing = {
L = underscore;
R = underscore;
};
};
}
{
glyphname = a;
kernLeft = KO_a;
kernRight = KO_a;
layers = (
{
anchors = (
{
name = ogonek;
pos = (479,8);
},
{
name = top;
pos = (269,532);
}
);
layerId = m01;
shapes = (
{
closed = 1;
nodes = (
(308,-12,o),
(386,47,o),
(397,148,c),
(389,148,l),
(389,73,o),
(393,33,o),
(404,0,c),
(487,0,l),
(478,37,o),
(473,76,o),
(473,125,cs),
(473,358,ls),
(473,475,o),
(391,544,o),
(270,544,cs),
(163,544,o),
(73,484,o),
(50,408,c),
(130,372,l),
(146,430,o),
(199,474,o),
(270,474,cs),
(342,474,o),
(387,429,o),
(387,353,cs),
(387,274,ls),
(387,140,o),
(320,60,o),
(223,60,cs),
(167,60,o),
(131,93,o),
(131,146,cs),
(131,191,o),
(159,239,o),
(267,254,cs),
(395,272,l),
(395,332,l),
(223,308,ls),
(102,291,o),
(43,224,o),
(43,140,cs),
(43,50,o),
(110,-12,o),
(207,-12,cs)
);
}
);
width = 544;
},
{
anchors = (
{
name = ogonek;
pos = (512,8);
},
{
name = top;
pos = (285,533);
}
);
layerId = "E9FB66CC-5D7A-47B2-9A25-A0E8EEF5BB81";
shapes = (
{
closed = 1;
nodes = (
(301,-15,o),
(380,51,o),
(388,149,c),
(380,149,l),
(380,74,o),
(384,33,o),
(395,0,c),
(520,0,l),
(511,37,o),
(507,76,o),
(507,125,cs),
(507,350,ls),
(507,494,o),
(400,556,o),
(288,556,cs),
(162,556,o),
(79,507,o),
(42,413,c),
(157,372,l),
(177,435,o),
(220,471,o),
(280,471,cs),
(338,471,o),
(377,433,o),
(377,372,cs),
(377,288,ls),
(377,169,o),
(325,80,o),
(245,80,cs),
(198,80,o),
(168,109,o),
(168,154,cs),
(168,207,o),
(209,245,o),
(299,259,cs),
(384,272,l),
(384,348,l),
(265,331,ls),
(105,309,o),
(34,236,o),
(34,141,cs),
(34,48,o),
(103,-15,o),
(202,-15,cs)
);
}
);
width = 574;
},
{
anchors = (
{
name = ogonek;
pos = (431,8);
},
{
name = top;
pos = (298,532);
}
);
layerId = "980A8AF2-BF11-492D-9410-496A94B21BD3";
shapes = (
{
closed = 1;
nodes = (
(264,-12,o),
(345,47,o),
(369,148,c),
(362,148,l),
(350,73,o),
(351,27,o),
(355,0,c),
(438,0,l),
(435,40,o),
(436,74,o),
(443,125,cs),
(473,358,ls),
(490,487,o),
(396,545,o),
(294,545,cs),
(201,545,o),
(99,496,o),
(65,406,c),
(141,372,l),
(168,440,o),
(231,475,o),
(287,475,cs),
(346,475,o),
(397,435,o),
(387,353,cs),
(377,274,ls),
(360,140,o),
(282,60,o),
(190,60,cs),
(142,60,o),
(114,87,o),
(114,131,cs),
(114,195,o),
(163,240,o),
(260,254,cs),
(383,272,l),
(392,334,l),
(225,310,ls),
(101,292,o),
(27,216,o),
(27,116,cs),
(27,40,o),
(82,-12,o),
(167,-12,cs)
);
}
);
width = 532;
},
{
anchors = (
{
name = ogonek;
pos = (468,7);
},
{
name = top;
pos = (319,533);
}
);
layerId = "829AF10C-3E33-4291-B5B6-8F7CF12D6A62";
shapes = (
{
closed = 1;
nodes = (
(269,-15,o),
(358,51,o),
(380,149,c),
(363,149,l),
(351,74,o),
(353,25,o),
(356,0,c),
(481,0,l),
(478,37,o),
(479,70,o),
(486,125,cs),
(516,351,ls),
(534,492,o),
(460,560,o),
(321,560,cs),
(188,560,o),
(103,496,o),
(59,413,c),
(176,372,l),
(205,435,o),
(255,471,o),
(308,471,cs),
(363,471,o),
(400,433,o),
(391,372,cs),
(379,288,ls),
(362,169,o),
(298,80,o),
(222,80,cs),
(183,80,o),
(157,104,o),
(157,141,cs),
(157,202,o),
(211,244,o),
(300,258,cs),
(383,271,l),
(395,352,l),
(278,336,ls),
(117,314,o),
(24,230,o),
(24,116,cs),
(24,37,o),
(82,-15,o),
(169,-15,cs)
);
}
);
width = 569;
}
);
unicode = 97;
userData = {
KernOnName = a;
};
}
{
glyphname = b;
kernLeft = KO_l;
kernRight = KO_p;
layers = (
{
background = {
shapes = (
{
closed = 1;
nodes = (
(466,-12,o),
(557,100,o),
(557,267,cs),
(557,434,o),
(466,545,o),
(331,545,cs),
(230,545,o),
(152,483,o),
(137,389,c),
(152,389,l),
(152,713,l),
(66,713,l),
(66,0,l),
(150,0,l),
(150,148,l),
(135,148,l),
(150,52,o),
(229,-12,o),
(331,-12,cs)
);
}
);
};
layerId = m01;
shapes = (
{
closed = 1;
nodes = (
(466,-12,o),
(559,101,o),
(559,266,cs),
(559,431,o),
(468,544,o),
(335,544,cs),
(243,544,o),
(166,489,o),
(144,409,c),
(155,409,l),
(155,712,l),
(69,712,l),
(69,0,l),
(153,0,l),
(153,112,l),
(145,112,l),
(169,36,o),
(243,-12,o),
(331,-12,cs)
);
},
{
closed = 1;
nodes = (
(216,60,o),
(155,140,o),
(155,266,cs),
(155,392,o),
(216,472,o),
(313,472,cs),
(409,472,o),
(470,391,o),
(470,264,cs),
(470,139,o),
(409,60,o),
(313,60,cs)
);
}
);
width = 592;
},
{
layerId = "E9FB66CC-5D7A-47B2-9A25-A0E8EEF5BB81";
shapes = (
{
closed = 1;
nodes = (
(491,-14,o),
(580,102,o),
(580,273,cs),
(580,444,o),
(490,556,o),
(359,556,cs),
(271,556,o),
(199,507,o),
(182,430,c),
(190,430,l),
(190,713,l),
(60,713,l),
(60,0,l),
(188,0,l),
(188,104,l),
(180,104,l),
(199,33,o),
(272,-14,o),
(357,-14,cs)
);
},
{
closed = 1;
nodes = (
(238,78,o),
(190,153,o),
(190,272,cs),
(190,390,o),
(239,465,o),
(317,465,cs),
(394,465,o),
(443,390,o),
(443,272,cs),
(443,153,o),
(393,78,o),
(315,78,cs)
);
}
);
width = 606;
},
{
background = {
shapes = (
{
closed = 1;
nodes = (
(442,-12,o),
(533,100,o),
(533,267,cs),
(533,434,o),
(442,545,o),
(307,545,cs),
(206,545,o),
(128,483,o),
(113,389,c),
(128,389,l),
(128,713,l),
(42,713,l),
(42,0,l),
(126,0,l),
(126,148,l),
(111,148,l),
(126,52,o),
(205,-12,o),
(307,-12,cs)
);
}
);
};
layerId = "980A8AF2-BF11-492D-9410-496A94B21BD3";
shapes = (
{
closed = 1;
nodes = (
(435,-12,o),
(552,136,o),
(552,323,cs),
(552,457,o),
(481,544,o),
(368,544,cs),
(280,544,o),
(199,489,o),
(166,409,c),
(176,409,l),
(218,712,l),
(132,712,l),
(35,0,l),
(119,0,l),
(134,112,l),
(127,112,l),
(140,34,o),
(206,-12,o),
(289,-12,cs)
);
},
{
closed = 1;
nodes = (
(201,60,o),
(154,120,o),
(154,218,cs),
(154,363,o),
(232,472,o),
(336,472,cs),
(416,472,o),
(462,409,o),
(462,313,cs),
(462,168,o),
(384,60,o),
(280,60,cs)
);
}
);
width = 581;
},
{
layerId = "829AF10C-3E33-4291-B5B6-8F7CF12D6A62";
shapes = (
{
closed = 1;
nodes = (
(460,-14,o),
(577,139,o),
(577,335,cs),
(577,469,o),
(507,556,o),
(395,556,cs),
(311,556,o),
(233,507,o),
(205,430,c),
(213,430,l),
(252,713,l),
(122,713,l),
(24,0,l),
(152,0,l),
(166,104,l),
(159,104,l),
(167,35,o),
(231,-14,o),
(315,-14,cs)
);
},
{
closed = 1;
nodes = (
(223,78,o),
(187,132,o),
(187,219,cs),
(187,357,o),
(254,465,o),
(340,465,cs),
(403,465,o),
(439,410,o),
(439,323,cs),
(439,186,o),
(371,78,o),
(285,78,cs)
);
}
);
width = 599;
}
);
metricLeft = l;
metricRight = o;
unicode = 98;
userData = {
KernOnName = b;
};
}
{
glyphname = c;
kernLeft = KO_e;
kernRight = KO_c;
layers = (
{
anchors = (
{
name = bottom;
pos = (275,0);
},
{
name = top;
pos = (276,532);
}
);
layerId = m01;
shapes = (
{
closed = 1;
nodes = (
(399,-12,o),
(490,63,o),
(505,172,c),
(421,190,l),
(409,111,o),
(354,60,o),
(279,60,cs),
(184,60,o),
(123,141,o),
(123,268,cs),
(123,394,o),
(183,474,o),
(277,474,cs),
(348,474,o),
(402,427,o),
(415,352,c),
(499,376,l),
(479,476,o),
(392,544,o),
(279,544,cs),
(134,544,o),
(33,431,o),
(33,266,cs),
(33,101,o),
(134,-12,o),
(281,-12,cs)
);
}
);
width = 528;
},
{
anchors = (
{
name = bottom;
pos = (279,0);
},
{
name = top;
pos = (281,545);
}
);
layerId = "E9FB66CC-5D7A-47B2-9A25-A0E8EEF5BB81";
shapes = (
{
closed = 1;
nodes = (
(409,-15,o),
(506,63,o),
(521,175,c),
(391,208,l),
(384,128,o),
(343,78,o),
(285,78,cs),
(211,78,o),
(165,154,o),
(165,275,cs),
(165,393,o),
(210,469,o),
(283,469,cs),
(338,469,o),
(378,423,o),
(385,352,c),
(513,383,l),
(492,488,o),
(397,560,o),
(281,560,cs),
(129,560,o),
(26,444,o),
(26,273,cs),
(26,101,o),
(130,-15,o),
(283,-15,cs)
);
}
);
width = 536;
},
{
anchors = (
{
name = bottom;
pos = (233,0);
},
{
name = top;
pos = (306,532);
}
);
layerId = "980A8AF2-BF11-492D-9410-496A94B21BD3";
shapes = (
{
closed = 1;
nodes = (
(351,-12,o),
(450,63,o),
(480,172,c),
(398,190,l),
(376,111,o),
(315,60,o),
(245,60,cs),
(168,60,o),
(120,121,o),
(120,219,cs),
(120,365,o),
(198,474,o),
(299,474,cs),
(370,474,o),
(412,423,o),
(414,352,c),
(501,376,l),
(495,476,o),
(419,544,o),
(309,544,cs),
(152,544,o),
(30,399,o),
(30,214,cs),
(30,79,o),
(110,-12,o),
(237,-12,cs)
);
}
);
width = 516;
},
{
anchors = (
{
name = bottom;
pos = (239,0);
},
{
name = top;
pos = (315,545);
}
);
layerId = "829AF10C-3E33-4291-B5B6-8F7CF12D6A62";
shapes = (
{
closed = 1;
nodes = (
(362,-15,o),
(470,64,o),
(499,175,c),
(374,208,l),
(357,128,o),
(309,78,o),
(255,78,cs),
(195,78,o),
(162,133,o),
(162,219,cs),
(162,359,o),
(226,469,o),
(306,469,cs),
(354,469,o),
(391,429,o),
(387,352,c),
(519,383,l),
(513,488,o),
(430,560,o),
(317,560,cs),
(151,560,o),
(23,410,o),
(23,218,cs),
(23,78,o),
(107,-15,o),
(240,-15,cs)
);
}
);
width = 528;
}
);
metricLeft = o;
unicode = 99;
userData = {
KernOnName = c;
};
}
{
glyphname = d;
kernLeft = KO_d;
kernRight = KO_l;
layers = (
{
anchors = (
{
name = bottom;
pos = (297,0);
},
{
name = center;
pos = (444,570);
},
{
name = top;
pos = (297,532);
},
{
name = topright;
pos = (525,532);
}
);
layerId = m01;
shapes = (
{
closed = 1;
nodes = (
(359,-12,o),
(433,41,o),
(449,123,c),
(441,123,l),
(441,0,l),
(525,0,l),
(525,712,l),
(439,712,l),
(439,420,l),
(447,420,l),
(423,496,o),
(353,544,o),
(263,544,cs),
(126,544,o),
(33,432,o),
(33,268,cs),
(33,102,o),
(125,-12,o),
(265,-12,cs)
);
},
{
closed = 1;
nodes = (
(183,62,o),
(122,142,o),
(122,267,cs),
(122,392,o),
(184,472,o),
(281,472,cs),
(378,472,o),
(439,393,o),
(439,268,cs),
(439,142,o),
(377,62,o),
(280,62,cs)
);
}
);
width = 594;
},
{
anchors = (
{
name = bottom;
pos = (304,0);
},
{
name = center;
pos = (455,570);
},
{
name = top;
pos = (304,544);
},
{
name = topright;
pos = (547,545);
}
);
layerId = "E9FB66CC-5D7A-47B2-9A25-A0E8EEF5BB81";
shapes = (
{
closed = 1;
nodes = (
(338,-14,o),
(409,38,o),
(426,115,c),
(419,115,l),
(419,0,l),
(547,0,l),
(547,713,l),
(417,713,l),
(417,443,l),
(424,443,l),
(406,513,o),
(336,556,o),
(251,556,cs),
(117,556,o),
(26,444,o),
(26,273,cs),
(26,102,o),
(116,-14,o),
(249,-14,cs)
);
},
{
closed = 1;
nodes = (
(212,82,o),
(164,156,o),
(164,274,cs),
(164,393,o),
(213,467,o),
(291,467,cs),
(368,467,o),
(417,393,o),
(417,274,cs),
(417,156,o),
(367,82,o),
(289,82,cs)
);
}
);
width = 607;
},
{
anchors = (
{
name = bottom;
pos = (255,0);
},
{
name = center;
pos = (475,570);
},
{
name = top;
pos = (326,532);
},
{
name = topright;
pos = (548,532);
}
);
layerId = "980A8AF2-BF11-492D-9410-496A94B21BD3";
shapes = (
{
closed = 1;
nodes = (
(310,-12,o),
(390,41,o),
(416,123,c),
(409,123,l),
(393,0,l),
(477,0,l),
(574,712,l),
(488,712,l),
(448,420,l),
(456,420,l),
(442,496,o),
(381,544,o),
(294,544,cs),
(146,544,o),
(30,398,o),
(30,211,cs),
(30,76,o),
(102,-12,o),
(220,-12,cs)
);
},
{
closed = 1;
nodes = (
(166,62,o),
(120,124,o),
(120,220,cs),
(120,364,o),
(199,472,o),
(303,472,cs),
(383,472,o),
(430,412,o),
(430,315,cs),
(430,171,o),
(351,62,o),
(247,62,cs)
);
}
);
width = 583;
},
{
anchors = (
{
name = bottom;
pos = (262,0);
},
{
name = center;
pos = (488,570);
},
{
name = top;
pos = (337,544);
},
{
name = topright;
pos = (576,545);
}
);
layerId = "829AF10C-3E33-4291-B5B6-8F7CF12D6A62";
shapes = (
{
closed = 1;
nodes = (
(290,-14,o),
(369,39,o),
(394,115,c),
(388,115,l),
(373,0,l),
(501,0,l),
(599,713,l),
(469,713,l),
(431,443,l),
(439,443,l),
(430,513,o),
(369,556,o),
(285,556,cs),
(136,556,o),
(22,403,o),
(22,211,cs),
(22,75,o),
(92,-14,o),
(204,-14,cs)
);
},
{
closed = 1;
nodes = (
(197,82,o),
(161,136,o),
(161,222,cs),
(161,360,o),
(227,467,o),
(313,467,cs),
(375,467,o),
(411,414,o),
(411,326,cs),
(411,189,o),
(345,82,o),
(260,82,cs)
);
}
);
width = 599;
}
);
metricLeft = o;
unicode = 100;
userData = {
KernOnName = d;
};
}
{
glyphname = e;
kernLeft = KO_e;
kernRight = KO_e;
layers = (
{
anchors = (
{
name = ogonek;
pos = (360,11);
},
{
name = top;
pos = (275,532);
}
);
layerId = m01;
shapes = (
{
closed = 1;
nodes = (
(397,-12,o),
(485,50,o),
(509,154,c),
(427,176,l),
(412,106,o),
(357,60,o),
(284,60,cs),
(185,60,o),
(122,142,o),
(122,270,cs),
(122,395,o),
(183,474,o),
(279,474,cs),
(364,474,o),
(421,409,o),
(423,308,c),
(431,316,l),
(114,316,l),
(114,248,l),
(509,248,l),
(525,428,o),
(426,544,o),
(277,544,cs),
(132,544,o),
(33,432,o),
(33,268,cs),
(33,102,o),
(135,-12,o),
(285,-12,cs)
);
}
);
width = 546;
},
{
anchors = (
{
name = ogonek;
pos = (378,11);
},
{
name = top;
pos = (283,545);
}
);
layerId = "E9FB66CC-5D7A-47B2-9A25-A0E8EEF5BB81";
shapes = (
{
closed = 1;
nodes = (
(407,-15,o),
(504,51,o),
(528,149,c),
(411,190,l),
(398,122,o),
(353,78,o),
(294,78,cs),
(214,78,o),
(164,155,o),
(164,277,cs),
(164,395,o),
(211,471,o),
(285,471,cs),
(349,471,o),
(393,413,o),
(393,322,c),
(400,329,l),
(156,329,l),
(156,247,l),
(528,247,l),
(543,445,o),
(446,560,o),
(283,560,cs),
(128,560,o),
(26,447,o),
(26,275,cs),
(26,101,o),
(132,-15,o),
(290,-15,cs)
);
}
);
width = 558;
},
{
anchors = (
{
name = ogonek;
pos = (318,11);
},
{
name = top;
pos = (305,532);
}
);
layerId = "980A8AF2-BF11-492D-9410-496A94B21BD3";
shapes = (
{
closed = 1;
nodes = (
(355,-12,o),
(443,50,o),
(481,154,c),
(403,176,l),
(378,106,o),
(323,60,o),
(252,60,cs),
(170,60,o),
(120,122,o),
(120,222,cs),
(120,366,o),
(195,474,o),
(299,474,cs),
(379,474,o),
(428,409,o),
(405,308,c),
(425,316,l),
(122,316,l),
(113,248,l),
(494,248,l),
(534,428,o),
(449,544,o),
(305,544,cs),
(147,544,o),
(30,398,o),
(30,216,cs),
(30,79,o),
(118,-12,o),
(246,-12,cs)
);
}
);
width = 533;
},
{
anchors = (
{
name = ogonek;
pos = (337,11);
},
{
name = top;
pos = (316,545);
}
);
layerId = "829AF10C-3E33-4291-B5B6-8F7CF12D6A62";
shapes = (
{
closed = 1;
nodes = (
(365,-15,o),
(464,48,o),
(502,149,c),
(392,190,l),
(368,118,o),
(314,78,o),
(261,78,cs),
(197,78,o),
(161,133,o),
(161,223,cs),
(161,362,o),
(223,471,o),
(310,471,cs),
(372,471,o),
(403,417,o),
(383,322,c),
(399,329,l),
(165,329,l),
(154,247,l),
(516,247,l),
(558,442,o),
(477,560,o),
(315,560,cs),
(145,560,o),
(23,411,o),
(23,220,cs),
(23,77,o),
(117,-15,o),
(253,-15,cs)
);
}
);
width = 549;
}
);
metricLeft = o;
unicode = 101;
userData = {
KernOnName = e;
};
}
{
glyphname = f;
kernLeft = KO_f;
kernRight = KO_f;
layers = (
{
layerId = m01;
shapes = (
{
closed = 1;
nodes = (
(169,0,l),
(169,584,ls),
(169,644,o),
(212,666,o),
(286,644,c),
(299,712,l),
(163,750,o),
(83,701,o),
(83,582,cs),
(83,0,l)
);
},
{
closed = 1;
nodes = (
(269,466,l),
(269,532,l),
(9,532,l),
(9,466,l)
);
}
);
width = 292;
},
{
layerId = "E9FB66CC-5D7A-47B2-9A25-A0E8EEF5BB81";
shapes = (
{
closed = 1;
nodes = (
(215,0,l),
(215,577,ls),
(215,633,o),
(251,653,o),
(330,636,c),
(345,726,l),
(181,763,o),
(84,707,o),
(84,573,cs),
(84,0,l)
);
},
{
closed = 1;
nodes = (
(324,461,l),
(324,545,l),
(10,545,l),
(10,461,l)
);
}
);
width = 345;
},
{
layerId = "980A8AF2-BF11-492D-9410-496A94B21BD3";
shapes = (
{
closed = 1;
nodes = (
(132,0,l),
(211,584,ls),
(219,643,o),
(264,666,o),
(332,644,c),
(354,712,l),
(226,750,o),
(140,701,o),
(124,582,cs),
(46,0,l)
);
},
{
closed = 1;
nodes = (
(292,466,l),
(301,532,l),
(46,532,l),
(37,466,l)
);
}
);
width = 284;
},
{
layerId = "829AF10C-3E33-4291-B5B6-8F7CF12D6A62";
shapes = (
{
closed = 1;
nodes = (
(177,0,l),
(256,577,ls),
(263,631,o),
(303,653,o),
(377,636,c),
(403,726,l),
(248,763,o),
(145,707,o),
(126,573,cs),
(46,0,l)
);
},
{
closed = 1;
nodes = (
(348,461,l),
(360,545,l),
(49,545,l),
(37,461,l)
);
}
);
width = 339;
}
);
note = "Controlla curva";
unicode = 102;
userData = {
KernOnName = f;
};
}
{
glyphname = g;
kernLeft = KO_g;
kernRight = KO_g;
layers = (
{
anchors = (
{
name = top;
pos = (286,532);
}
);
layerId = m01;
name = Regular;
shapes = (
{
closed = 1;
nodes = (
(429,-230,o),
(523,-149,o),
(523,-20,cs),
(523,532,l),
(439,532,l),
(439,418,l),
(447,418,l),
(425,494,o),
(351,544,o),
(263,544,cs),
(131,544,o),
(35,434,o),
(35,272,cs),
(35,110,o),
(128,0,o),
(263,0,cs),
(358,0,o),
(431,55,o),
(445,136,c),
(437,136,l),
(437,-30,ls),
(437,-112,o),
(382,-158,o),
(283,-158,cs),
(196,-158,o),
(138,-121,o),
(117,-61,c),
(42,-89,l),
(71,-176,o),
(165,-230,o),
(283,-230,cs)
);
},
{
closed = 1;
nodes = (
(186,71,o),
(125,149,o),
(125,272,cs),
(125,394,o),
(186,472,o),
(281,472,cs),
(376,472,o),
(437,394,o),
(437,272,cs),
(437,149,o),
(376,71,o),
(281,71,cs)
);
}
);
width = 587;
},
{
anchors = (
{
name = top;
pos = (296,545);
}
);
layerId = "E9FB66CC-5D7A-47B2-9A25-A0E8EEF5BB81";
shapes = (
{
closed = 1;
nodes = (
(441,-233,o),
(541,-153,o),
(541,7,cs),
(541,545,l),
(413,545,l),
(413,443,l),
(420,443,l),
(404,513,o),
(333,560,o),
(249,560,cs),
(119,560,o),
(28,446,o),
(28,279,cs),
(28,113,o),
(120,0,o),
(247,0,cs),
(333,0,o),
(403,51,o),
(419,127,c),
(411,127,l),
(411,-7,ls),
(411,-93,o),
(368,-141,o),
(296,-141,cs),
(232,-141,o),
(184,-105,o),
(169,-45,c),
(39,-93,l),
(73,-179,o),
(169,-233,o),
(292,-233,cs)
);
},
{
closed = 1;
nodes = (
(213,93,o),
(166,166,o),
(166,281,cs),
(166,396,o),
(214,469,o),
(289,469,cs),
(364,469,o),
(411,396,o),
(411,281,cs),
(411,166,o),
(363,93,o),
(287,93,cs)
);
}
);
width = 595;
},
{
anchors = (
{
name = top;
pos = (315,532);
}
);
layerId = "980A8AF2-BF11-492D-9410-496A94B21BD3";
name = Regular;
shapes = (
{
closed = 1;
nodes = (
(347,-230,o),
(452,-151,o),
(470,-20,cs),
(545,532,l),
(461,532,l),
(446,418,l),
(453,418,l),
(442,494,o),
(377,544,o),
(293,544,cs),
(148,544,o),
(32,398,o),
(32,218,cs),
(32,87,o),
(104,0,o),
(219,0,cs),
(308,0,o),
(388,55,o),
(413,136,c),
(405,136,l),
(382,-30,ls),
(371,-112,o),
(311,-158,o),
(218,-158,cs),
(139,-158,o),
(85,-123,o),
(73,-61,c),
(-7,-89,l),
(10,-176,o),
(93,-230,o),
(208,-230,cs)
);
},
{
closed = 1;
nodes = (
(168,71,o),
(122,132,o),
(122,226,cs),
(122,367,o),
(200,472,o),
(302,472,cs),
(380,472,o),
(427,412,o),
(427,317,cs),
(427,178,o),
(350,71,o),
(246,71,cs)
);
}
);
width = 574;
},
{
anchors = (
{
name = top;
pos = (330,545);
}
);
layerId = "829AF10C-3E33-4291-B5B6-8F7CF12D6A62";
shapes = (
{
closed = 1;
nodes = (
(362,-233,o),
(473,-153,o),
(495,7,cs),
(570,545,l),
(442,545,l),
(428,443,l),
(434,443,l),
(428,513,o),
(365,560,o),
(284,560,cs),
(141,560,o),
(25,408,o),
(25,221,cs),
(25,88,o),
(97,0,o),
(205,0,cs),
(287,0,o),
(363,51,o),
(390,127,c),
(382,127,l),
(363,-7,ls),
(352,-87,o),
(305,-141,o),
(235,-141,cs),
(176,-141,o),
(132,-105,o),
(127,-45,c),
(-11,-93,l),
(11,-179,o),
(98,-233,o),
(218,-233,cs)
);
},
{
closed = 1;
nodes = (
(198,93,o),
(164,148,o),
(164,230,cs),
(164,365,o),
(230,469,o),
(312,469,cs),
(372,469,o),
(407,416,o),
(407,332,cs),
(407,199,o),
(342,93,o),
(257,93,cs)
);
}
);
width = 586;
}
);
metricRight = idotless;
unicode = 103;
userData = {
KernOnName = g;
};
}
{
glyphname = h;
kernLeft = KO_l;
kernRight = KO_h;
layers = (
{
anchors = (
{
name = bottom;
pos = (286,0);
},
{
name = center;
pos = (145,570);
},
{
name = top;
pos = (286,712);
}
);
layerId = m01;
shapes = (
{
closed = 1;
nodes = (
(155,0,l),
(155,240,ls),
(155,388,o),
(211,470,o),
(305,470,cs),
(379,470,o),
(425,419,o),
(425,328,cs),
(425,0,l),
(511,0,l),
(511,356,ls),
(511,468,o),
(437,544,o),
(331,544,cs),
(233,544,o),
(159,480,o),
(147,388,c),
(155,388,l),
(155,712,l),
(69,712,l),
(69,0,l)
);
}
);
width = 572;
},
{
anchors = (
{
name = bottom;
pos = (297,0);
},
{
name = center;
pos = (148,570);
},
{
name = top;
pos = (297,712);
}
);
layerId = "E9FB66CC-5D7A-47B2-9A25-A0E8EEF5BB81";
shapes = (
{
closed = 1;
nodes = (
(190,0,l),
(190,260,ls),
(190,391,o),
(237,467,o),
(318,467,cs),
(379,467,o),
(415,422,o),
(415,348,cs),
(415,0,l),
(545,0,l),
(545,368,ls),
(545,486,o),
(476,560,o),
(368,560,cs),
(272,560,o),
(199,499,o),
(182,409,c),
(190,409,l),
(190,713,l),
(60,713,l),
(60,0,l)
);
}
);
width = 593;
},
{
anchors = (
{
name = bottom;
pos = (246,0);
},
{
name = center;
pos = (187,570);
},
{
name = top;
pos = (343,712);
}
);
layerId = "980A8AF2-BF11-492D-9410-496A94B21BD3";
shapes = (
{
closed = 1;
nodes = (
(121,0,l),
(154,240,ls),
(174,388,o),
(239,470,o),
(329,470,cs),
(394,470,o),
(438,424,o),
(425,328,cs),
(380,0,l),
(466,0,l),
(515,356,ls),
(530,468,o),
(467,544,o),
(366,544,cs),
(275,544,o),
(192,484,o),
(167,388,c),
(174,388,l),
(218,712,l),
(132,712,l),
(35,0,l)
);
}
);
width = 564;
},
{
anchors = (
{
name = bottom;
pos = (257,0);
},
{
name = center;
pos = (189,570);
},
{
name = top;
pos = (355,712);
}
);
layerId = "829AF10C-3E33-4291-B5B6-8F7CF12D6A62";
shapes = (
{
closed = 1;
nodes = (
(154,0,l),
(190,260,ls),
(208,393,o),
(270,467,o),
(343,467,cs),
(404,467,o),
(430,417,o),
(420,348,cs),
(371,0,l),
(501,0,l),
(553,368,ls),
(570,491,o),
(505,560,o),
(406,560,cs),
(312,560,o),
(232,499,o),
(202,409,c),
(210,409,l),
(252,713,l),
(122,713,l),
(24,0,l)
);
}
);
width = 588;
}
);
metricLeft = l;
metricRight = n;
unicode = 104;
}
{
glyphname = k;
kernLeft = KO_l;
kernRight = KO_k;
layers = (
{
anchors = (
{
name = bottom;
pos = (291,0);
}
);
layerId = m01;
shapes = (
{
closed = 1;
nodes = (
(155,0,l),
(155,196,l),
(147,180,l),
(501,532,l),
(399,532,l),
(147,280,l),
(155,280,l),
(155,712,l),
(69,712,l),
(69,0,l)
);
},
{
closed = 1;
nodes = (
(519,0,l),
(289,332,l),
(233,276,l),
(417,0,l)
);
}
);
width = 518;
},
{
anchors = (
{
name = bottom;
pos = (300,0);
}
);
layerId = "E9FB66CC-5D7A-47B2-9A25-A0E8EEF5BB81";
shapes = (
{
closed = 1;
nodes = (
(190,0,l),
(190,177,l),
(182,163,l),
(538,545,l),
(398,545,l),
(182,315,l),
(190,315,l),
(190,713,l),
(60,713,l),
(60,0,l)
);
},
{
closed = 1;
nodes = (
(562,0,l),
(335,346,l),
(249,251,l),
(406,0,l)
);
}
);
width = 553;
},
{
anchors = (
{
name = bottom;
pos = (252,0);
}
);
layerId = "980A8AF2-BF11-492D-9410-496A94B21BD3";
shapes = (
{
closed = 1;
nodes = (
(121,0,l),
(148,196,l),
(137,180,l),
(529,532,l),
(418,532,l),
(141,280,l),
(159,280,l),
(218,712,l),
(132,712,l),
(35,0,l)
);
},
{
closed = 1;
nodes = (
(474,0,l),
(297,332,l),
(233,276,l),
(372,0,l)
);
}
);
width = 510;
},
{
anchors = (
{
name = bottom;
pos = (261,0);
}
);
layerId = "829AF10C-3E33-4291-B5B6-8F7CF12D6A62";
shapes = (
{
closed = 1;
nodes = (
(154,0,l),
(178,177,l),
(168,163,l),
(570,545,l),
(417,545,l),
(175,315,l),
(197,315,l),
(252,713,l),
(122,713,l),
(24,0,l)
);
},
{
closed = 1;
nodes = (
(518,0,l),
(345,346,l),
(245,251,l),
(362,0,l)
);
}
);
width = 547;
}
);
metricLeft = l;
unicode = 107;
userData = {
KernOnName = k;
};
}
{
glyphname = l;
kernLeft = KO_l;
kernRight = KO_l;
layers = (
{
anchors = (
{
name = bottom;
pos = (112,0);
},
{
name = top;
pos = (115,692);
},
{
name = topright;
pos = (155,532);
}
);
layerId = m01;
shapes = (
{
closed = 1;
nodes = (
(155,0,l),
(155,712,l),
(69,712,l),
(69,0,l)
);
}
);
width = 224;
},
{
anchors = (
{
name = bottom;
pos = (125,0);
},
{
name = top;
pos = (127,692);
},
{
name = topright;
pos = (190,545);
}
);
layerId = "E9FB66CC-5D7A-47B2-9A25-A0E8EEF5BB81";
shapes = (
{
closed = 1;
nodes = (
(190,0,l),
(190,713,l),
(60,713,l),
(60,0,l)
);
}
);
width = 250;
},
{
anchors = (
{
name = bottom;
pos = (78,0);
},
{
name = top;
pos = (175,692);
},
{
name = topright;
pos = (193,532);
}
);
layerId = "980A8AF2-BF11-492D-9410-496A94B21BD3";
shapes = (
{
closed = 1;
nodes = (
(121,0,l),
(218,712,l),
(132,712,l),
(35,0,l)
);
}
);
width = 227;
},
{
anchors = (
{
name = bottom;
pos = (89,0);
},
{
name = top;
pos = (186,692);
},
{
name = topright;
pos = (229,545);
}
);
layerId = "829AF10C-3E33-4291-B5B6-8F7CF12D6A62";
shapes = (
{
closed = 1;
nodes = (
(154,0,l),
(252,713,l),
(122,713,l),
(24,0,l)
);
}
);
width = 252;
}
);
unicode = 108;
userData = {
KernOnName = l;
};
}
{
glyphname = m;
kernLeft = KO_n;
kernRight = KO_n;
layers = (
{
layerId = m01;
shapes = (
{
closed = 1;
nodes = (
(150,0,l),
(150,260,ls),
(150,392,o),
(198,470,o),
(280,470,cs),
(345,470,o),
(383,422,o),
(383,340,cs),
(383,0,l),
(468,0,l),
(468,258,ls),
(468,391,o),
(517,470,o),
(600,470,cs),
(665,470,o),
(703,422,o),
(703,340,cs),
(703,0,l),
(788,0,l),
(788,352,ls),
(788,468,o),
(722,544,o),
(620,544,cs),
(532,544,o),
(465,486,o),
(453,400,c),
(461,400,l),
(453,484,o),
(391,544,o),
(304,544,cs),
(218,544,o),
(150,486,o),
(140,400,c),
(148,400,l),
(148,532,l),
(64,532,l),
(64,0,l)
);
}
);
width = 849;
},
{
layerId = "E9FB66CC-5D7A-47B2-9A25-A0E8EEF5BB81";
shapes = (
{
closed = 1;
nodes = (
(184,0,l),
(184,305,ls),
(184,408,o),
(222,469,o),
(287,469,cs),
(337,469,o),
(367,432,o),
(367,368,cs),
(367,0,l),
(497,0,l),
(497,305,ls),
(497,408,o),
(535,469,o),
(599,469,cs),
(650,469,o),
(680,432,o),
(680,368,cs),
(680,0,l),
(809,0,l),
(809,368,ls),
(809,486,o),
(744,560,o),
(642,560,cs),
(553,560,o),
(488,504,o),
(477,417,c),
(486,417,l),
(477,504,o),
(418,560,o),
(333,560,cs),
(247,560,o),
(186,504,o),
(175,417,c),
(182,417,l),
(182,545,l),
(54,545,l),
(54,0,l)
);
}
);
width = 857;
},
{
layerId = "980A8AF2-BF11-492D-9410-496A94B21BD3";
shapes = (
{
closed = 1;
nodes = (
(115,0,l),
(152,240,ls),
(172,381,o),
(224,470,o),
(304,470,cs),
(364,470,o),
(395,422,o),
(384,340,cs),
(337,0,l),
(423,0,l),
(458,238,ls),
(478,383,o),
(533,470,o),
(613,470,cs),
(674,470,o),
(705,422,o),
(694,340,cs),
(648,0,l),
(733,0,l),
(780,352,ls),
(796,473,o),
(741,544,o),
(644,544,cs),
(559,544,o),
(486,486,o),
(462,400,c),
(470,400,l),
(474,484,o),
(421,544,o),
(337,544,cs),
(255,544,o),
(181,486,o),
(160,400,c),
(168,400,l),
(185,532,l),
(101,532,l),
(29,0,l)
);
}
);
width = 831;
},
{
layerId = "829AF10C-3E33-4291-B5B6-8F7CF12D6A62";
shapes = (
{
closed = 1;
nodes = (
(147,0,l),
(189,275,ls),
(206,395,o),
(247,469,o),
(311,469,cs),
(359,469,o),
(383,431,o),
(374,368,cs),
(322,0,l),
(453,0,l),
(495,275,ls),
(512,396,o),
(556,469,o),
(616,469,cs),
(668,469,o),
(688,428,o),
(680,368,cs),
(629,0,l),
(758,0,l),
(809,368,ls),
(825,486,o),
(770,560,o),
(672,560,cs),
(585,560,o),
(514,504,o),
(491,417,c),
(500,417,l),
(503,504,o),
(450,560,o),
(369,560,cs),
(286,560,o),
(219,504,o),
(196,417,c),
(203,417,l),
(220,545,l),
(92,545,l),
(17,0,l)
);
}
);
width = 844;
}
);
metricLeft = idotless;
metricRight = n;
unicode = 109;
}
{
glyphname = n;
kernLeft = KO_n;
kernRight = KO_n;
layers = (
{
anchors = (
{
name = bottom;
pos = (292,0);
},
{
name = top;
pos = (288,532);
}
);
layerId = m01;
shapes = (
{
closed = 1;
nodes = (
(150,0,l),
(150,240,ls),
(150,385,o),
(206,470,o),
(300,470,cs),
(375,470,o),
(420,417,o),
(420,328,cs),
(420,0,l),
(506,0,l),
(506,356,ls),
(506,468,o),
(432,544,o),
(326,544,cs),
(228,544,o),
(152,480,o),
(140,388,c),
(148,388,l),
(148,532,l),
(64,532,l),
(64,0,l)
);
}
);
width = 567;
},
{
anchors = (
{
name = bottom;
pos = (307,0);
},
{
name = top;
pos = (303,545);
}
);
layerId = "E9FB66CC-5D7A-47B2-9A25-A0E8EEF5BB81";
shapes = (
{
closed = 1;
nodes = (
(186,0,l),
(186,260,ls),
(186,390,o),
(233,467,o),
(313,467,cs),
(373,467,o),
(408,423,o),
(408,348,cs),
(408,0,l),
(540,0,l),
(540,368,ls),
(540,483,o),
(470,556,o),
(364,556,cs),
(268,556,o),
(194,496,o),
(176,408,c),
(184,408,l),
(184,544,l),
(54,544,l),
(54,0,l)
);
}
);
width = 588;
},
{
anchors = (
{
name = bottom;
pos = (251,0);
},
{
name = top;
pos = (321,532);
}
);
layerId = "980A8AF2-BF11-492D-9410-496A94B21BD3";
shapes = (
{
closed = 1;
nodes = (
(115,0,l),
(148,220,ls),
(170,377,o),
(233,470,o),
(323,470,cs),
(396,470,o),
(431,415,o),
(419,328,cs),
(374,0,l),
(460,0,l),
(509,356,ls),
(524,468,o),
(461,544,o),
(360,544,cs),
(269,544,o),
(184,484,o),
(159,388,c),
(167,388,l),
(186,532,l),
(101,532,l),
(29,0,l)
);
}
);
width = 558;
},
{
anchors = (
{
name = bottom;
pos = (267,0);
},
{
name = top;
pos = (339,545);
}
);
layerId = "829AF10C-3E33-4291-B5B6-8F7CF12D6A62";
shapes = (
{
closed = 1;
nodes = (
(150,0,l),
(186,230,ls),
(207,377,o),
(260,467,o),
(337,467,cs),
(391,467,o),
(424,426,o),
(413,348,cs),
(364,0,l),
(496,0,l),
(548,368,ls),
(564,483,o),
(504,556,o),
(401,556,cs),
(310,556,o),
(228,499,o),
(196,408,c),
(204,408,l),
(223,544,l),
(92,544,l),
(18,0,l)
);
}
);
width = 583;
}
);
metricLeft = idotless;
unicode = 110;
userData = {
KernOnName = n;
};
}
{
glyphname = o;
kernLeft = KO_e;
kernRight = KO_o;
layers = (
{
anchors = (
{
name = center;
pos = (281,264);
},
{
name = top;
pos = (280,532);
}
);
layerId = m01;
shapes = (
{
closed = 1;
nodes = (
(428,-12,o),
(529,101,o),
(529,266,cs),
(529,431,o),
(428,544,o),
(281,544,cs),
(134,544,o),
(33,431,o),
(33,266,cs),
(33,101,o),
(134,-12,o),
(281,-12,cs)
);
},
{
closed = 1;
nodes = (
(184,60,o),
(123,140,o),
(123,267,cs),
(123,394,o),
(184,474,o),
(281,474,cs),
(378,474,o),
(439,394,o),
(439,267,cs),
(439,140,o),
(378,60,o),
(281,60,cs)
);
}
);
width = 562;
},
{
anchors = (
{
name = center;
pos = (288,272);
},
{
name = top;
pos = (288,544);
}
);
layerId = "E9FB66CC-5D7A-47B2-9A25-A0E8EEF5BB81";
shapes = (
{
closed = 1;
nodes = (
(444,-12,o),
(550,104,o),
(550,273,cs),
(550,441,o),
(444,556,o),
(288,556,cs),
(132,556,o),
(26,441,o),
(26,273,cs),
(26,104,o),
(132,-12,o),
(288,-12,cs)
);
},
{
closed = 1;
nodes = (
(213,80,o),
(166,155,o),
(166,274,cs),
(166,391,o),
(213,466,o),
(288,466,cs),
(363,466,o),
(410,391,o),
(410,274,cs),
(410,155,o),
(363,80,o),
(288,80,cs)
);
}
);
width = 576;
},
{
anchors = (
{
name = center;
pos = (275,264);
},
{
name = top;
pos = (310,532);
}
);
layerId = "980A8AF2-BF11-492D-9410-496A94B21BD3";
shapes = (
{
closed = 1;
nodes = (
(396,-12,o),
(520,132,o),
(520,318,cs),
(520,453,o),
(440,544,o),
(313,544,cs),
(151,544,o),
(30,397,o),
(30,214,cs),
(30,78,o),
(111,-12,o),
(238,-12,cs)
);
},
{
closed = 1;
nodes = (
(167,61,o),
(119,120,o),
(119,215,cs),
(119,363,o),
(200,473,o),
(304,473,cs),
(384,473,o),
(431,414,o),
(431,319,cs),
(431,171,o),
(350,61,o),
(246,61,cs)
);
}
);
width = 550;
},
{
anchors = (
{
name = center;
pos = (284,272);
},
{
name = top;
pos = (321,544);
}
);
layerId = "829AF10C-3E33-4291-B5B6-8F7CF12D6A62";
shapes = (
{
closed = 1;
nodes = (
(417,-12,o),
(545,135,o),
(545,325,cs),
(545,464,o),
(456,556,o),
(325,556,cs),
(150,556,o),
(23,408,o),
(23,221,cs),
(23,81,o),
(112,-12,o),
(245,-12,cs)
);
},
{
closed = 1;
nodes = (
(196,81,o),
(160,136,o),
(162,222,cs),
(165,353,o),
(227,465,o),
(313,465,cs),
(374,465,o),
(408,410,o),
(406,324,cs),
(403,184,o),
(337,81,o),
(256,81,cs)
);
}
);
width = 568;
}
);
metricRight = "=|";
unicode = 111;
userData = {
KernOnName = o;
};
}
{
glyphname = p;
kernLeft = KO_p;
kernRight = KO_p;
layers = (
{
layerId = m01;
shapes = (
{
closed = 1;
nodes = (
(153,-218,l),
(153,112,l),
(145,112,l),
(169,36,o),
(241,-12,o),
(329,-12,cs),
(464,-12,o),
(557,101,o),
(557,266,cs),
(557,431,o),
(466,544,o),
(333,544,cs),
(241,544,o),
(165,492,o),
(143,412,c),
(151,412,l),
(151,532,l),
(67,532,l),
(67,-218,l)
);
},
{
closed = 1;
nodes = (
(214,60,o),
(153,140,o),
(153,266,cs),
(153,392,o),
(214,472,o),
(311,472,cs),
(407,472,o),
(468,391,o),
(468,264,cs),
(468,139,o),
(407,60,o),
(311,60,cs)
);
}
);
width = 590;
},
{
layerId = "E9FB66CC-5D7A-47B2-9A25-A0E8EEF5BB81";
shapes = (
{
closed = 1;
nodes = (
(190,-218,l),
(190,104,l),
(182,104,l),
(201,33,o),
(272,-15,o),
(357,-15,cs),
(491,-15,o),
(580,102,o),
(580,273,cs),
(580,444,o),
(490,556,o),
(359,556,cs),
(271,556,o),
(197,507,o),
(180,430,c),
(188,430,l),
(188,545,l),
(60,545,l),
(60,-218,l)
);
},
{
closed = 1;
nodes = (
(238,78,o),
(190,153,o),
(190,272,cs),
(190,390,o),
(239,465,o),
(317,465,cs),
(394,465,o),
(443,390,o),
(443,272,cs),
(443,153,o),
(393,78,o),
(315,78,cs)
);
}
);
width = 606;
},
{
layerId = "980A8AF2-BF11-492D-9410-496A94B21BD3";
shapes = (
{
closed = 1;
nodes = (
(88,-218,l),
(133,112,l),
(125,112,l),
(138,36,o),
(201,-12,o),
(286,-12,cs),
(433,-12,o),
(549,136,o),
(549,323,cs),
(549,456,o),
(478,544,o),
(366,544,cs),
(278,544,o),
(196,492,o),
(164,412,c),
(173,412,l),
(188,532,l),
(104,532,l),
(2,-218,l)
);
},
{
closed = 1;
nodes = (
(197,60,o),
(150,121,o),
(150,218,cs),
(150,363,o),
(229,472,o),
(333,472,cs),
(412,472,o),
(459,411,o),
(459,313,cs),
(459,170,o),
(382,60,o),
(277,60,cs)
);
}
);
width = 578;
},
{
layerId = "829AF10C-3E33-4291-B5B6-8F7CF12D6A62";
shapes = (
{
closed = 1;
nodes = (
(123,-218,l),
(167,104,l),
(159,104,l),
(168,33,o),
(232,-15,o),
(314,-15,cs),
(460,-15,o),
(576,140,o),
(576,335,cs),
(576,470,o),
(505,556,o),
(395,556,cs),
(311,556,o),
(229,507,o),
(202,430,c),
(211,430,l),
(226,545,l),
(98,545,l),
(-7,-218,l)
);
},
{
closed = 1;
nodes = (
(222,78,o),
(187,133,o),
(187,219,cs),
(187,357,o),
(253,465,o),
(339,465,cs),
(401,465,o),
(439,411,o),
(439,323,cs),
(439,188,o),
(371,78,o),
(284,78,cs)
);
}
);
width = 598;
}
);
metricRight = o;
unicode = 112;
userData = {
KernOnName = p;
};
}
{
glyphname = q;
kernLeft = KO_d;
kernRight = KO_q;
layers = (
{
layerId = m01;
shapes = (
{
closed = 1;
nodes = (
(524,-218,l),
(524,532,l),
(440,532,l),
(440,420,l),
(448,420,l),
(424,496,o),
(353,544,o),
(263,544,cs),
(126,544,o),
(33,432,o),
(33,268,cs),
(33,102,o),
(125,-12,o),
(265,-12,cs),
(359,-12,o),
(430,41,o),
(446,123,c),
(438,123,l),
(438,-218,l)
);
},
{
closed = 1;
nodes = (
(183,62,o),
(122,142,o),
(122,267,cs),
(122,392,o),
(183,472,o),
(280,472,cs),
(377,472,o),
(438,392,o),
(438,267,cs),
(438,142,o),
(377,62,o),
(280,62,cs)
);
}
);
width = 591;
},
{
layerId = "E9FB66CC-5D7A-47B2-9A25-A0E8EEF5BB81";
shapes = (
{
closed = 1;
nodes = (
(547,-218,l),
(547,545,l),
(419,545,l),
(419,441,l),
(426,441,l),
(407,512,o),
(335,556,o),
(249,556,cs),
(115,556,o),
(26,443,o),
(26,272,cs),
(26,101,o),
(116,-14,o),
(247,-14,cs),
(336,-14,o),
(407,38,o),
(424,115,c),
(417,115,l),
(417,-218,l)
);
},
{
closed = 1;
nodes = (
(212,82,o),
(164,156,o),
(164,274,cs),
(164,393,o),
(213,467,o),
(291,467,cs),
(368,467,o),
(417,393,o),
(417,274,cs),
(417,156,o),
(367,82,o),
(289,82,cs)
);
}
);
width = 607;
},
{
layerId = "980A8AF2-BF11-492D-9410-496A94B21BD3";
shapes = (
{
closed = 1;
nodes = (
(446,-218,l),
(547,532,l),
(463,532,l),
(449,420,l),
(457,420,l),
(443,496,o),
(382,544,o),
(294,544,cs),
(146,544,o),
(30,398,o),
(30,211,cs),
(30,76,o),
(102,-12,o),
(220,-12,cs),
(309,-12,o),
(387,41,o),
(414,123,c),
(406,123,l),
(360,-218,l)
);
},
{
closed = 1;
nodes = (
(166,62,o),
(120,124,o),
(120,220,cs),
(120,364,o),
(198,472,o),
(303,472,cs),
(382,472,o),
(429,411,o),
(429,314,cs),
(429,170,o),
(350,62,o),
(247,62,cs)
);
}
);
width = 581;
},
{
layerId = "829AF10C-3E33-4291-B5B6-8F7CF12D6A62";
shapes = (
{
closed = 1;
nodes = (
(472,-218,l),
(576,545,l),
(448,545,l),
(433,441,l),
(441,441,l),
(431,512,o),
(367,556,o),
(283,556,cs),
(136,556,o),
(22,404,o),
(22,210,cs),
(22,74,o),
(92,-14,o),
(202,-14,cs),
(286,-14,o),
(367,38,o),
(393,115,c),
(386,115,l),
(342,-218,l)
);
},
{
closed = 1;
nodes = (
(197,82,o),
(161,136,o),
(161,222,cs),
(161,361,o),
(228,467,o),
(314,467,cs),
(376,467,o),
(412,413,o),
(412,326,cs),
(412,189,o),
(345,82,o),
(260,82,cs)
);
}
);
width = 601;
}
);
metricLeft = o;
unicode = 113;
userData = {
KernOnName = q;
};
}
{
glyphname = r;
kernLeft = KO_n;
kernRight = KO_r;
layers = (
{
anchors = (
{
name = bottom;
pos = (109,0);
},
{
name = top;
pos = (211,532);
}
);
layerId = m01;
shapes = (
{
closed = 1;
nodes = (
(150,0,l),
(150,285,ls),
(150,400,o),
(196,464,o),
(278,464,cs),
(292,464,o),
(307,462,o),
(324,458,c),
(324,538,l),
(309,542,o),
(295,544,o),
(280,544,cs),
(197,544,o),
(143,485,o),
(140,378,c),
(148,378,l),
(148,532,l),
(64,532,l),
(64,0,l)
);
}
);
width = 359;
},
{
anchors = (
{
name = bottom;
pos = (121,0);
},
{
name = top;
pos = (226,545);
}
);
layerId = "E9FB66CC-5D7A-47B2-9A25-A0E8EEF5BB81";
shapes = (
{
closed = 1;
nodes = (
(184,0,l),
(184,287,ls),
(184,407,o),
(250,448,o),
(316,448,cs),
(332,448,o),
(349,446,o),
(365,443,c),
(365,550,l),
(351,553,o),
(337,555,o),
(323,555,cs),
(238,555,o),
(178,486,o),
(174,376,c),
(182,376,l),
(182,545,l),
(54,545,l),
(54,0,l)
);
}
);
width = 390;
},
{
anchors = (
{
name = bottom;
pos = (28,0);
},
{
name = top;
pos = (274,532);
}
);
layerId = "980A8AF2-BF11-492D-9410-496A94B21BD3";
shapes = (
{
closed = 1;
nodes = (
(113,0,l),
(153,285,ls),
(169,400,o),
(225,464,o),
(306,464,cs),
(320,464,o),
(335,462,o),
(351,458,c),
(363,538,l),
(348,542,o),
(334,544,o),
(319,544,cs),
(236,544,o),
(174,485,o),
(156,378,c),
(164,378,l),
(186,532,l),
(102,532,l),
(27,0,l)
);
}
);
width = 360;
},
{
anchors = (
{
name = bottom;
pos = (44,0);
},
{
name = top;
pos = (298,545);
}
);
layerId = "829AF10C-3E33-4291-B5B6-8F7CF12D6A62";
shapes = (
{
closed = 1;
nodes = (
(146,0,l),
(186,287,ls),
(203,407,o),
(274,448,o),
(341,448,cs),
(356,448,o),
(374,446,o),
(389,443,c),
(404,550,l),
(391,553,o),
(376,555,o),
(363,555,cs),
(279,555,o),
(208,486,o),
(189,376,c),
(197,376,l),
(221,545,l),
(93,545,l),
(16,0,l)
);
}
);
width = 390;
}
);
metricLeft = idotless;
unicode = 114;
userData = {
KernOnName = r;
};
}
{
glyphname = s;
kernLeft = KO_s;
kernRight = KO_s;
layers = (
{
anchors = (
{
name = bottom;
pos = (257,0);
},
{
name = top;
pos = (246,545);
}
);
layerId = "E9FB66CC-5D7A-47B2-9A25-A0E8EEF5BB81";
shapes = (
{
closed = 1;
nodes = (
(391,-15,o),
(482,54,o),
(482,156,cs),
(482,353,o),
(167,291,o),
(165,407,cs),
(164,446,o),
(198,471,o),
(249,471,cs),
(303,471,o),
(345,438,o),
(354,388,c),
(474,432,l),
(446,513,o),
(363,560,o),
(252,560,cs),
(120,560,o),
(33,496,o),
(33,391,cs),
(33,189,o),
(347,256,o),
(349,143,cs),
(349,106,o),
(314,75,o),
(257,75,cs),
(193,75,o),
(144,115,o),
(132,169,c),
(12,124,l),
(44,38,o),
(137,-15,o),
(255,-15,cs)
);
}
);
width = 506;
},
{
anchors = (
{
name = bottom;
pos = (243,0);
},
{
name = top;
pos = (235,532);
}
);
layerId = m01;
name = Regular;
shapes = (
{
closed = 1;
nodes = (
(369,-12,o),
(449,49,o),
(449,148,cs),
(450,352,o),
(127,270,o),
(126,397,cs),
(125,446,o),
(167,476,o),
(235,476,cs),
(297,476,o),
(344,444,o),
(357,393,c),
(436,422,l),
(409,508,o),
(321,544,o),
(236,544,cs),
(136,544,o),
(44,490,o),
(44,392,cs),
(44,195,o),
(364,272,o),
(365,147,cs),
(366,90,o),
(319,58,o),
(247,58,cs),
(174,58,o),
(122,96,o),
(111,159,c),
(25,137,l),
(46,48,o),
(133,-12,o),
(248,-12,cs)
);
}
);
width = 478;
},
{
anchors = (
{
name = bottom;
pos = (253,0);
},
{
name = top;
pos = (243,533);
}
);
associatedMasterId = "E9FB66CC-5D7A-47B2-9A25-A0E8EEF5BB81";
layerId = "76B3AA14-3812-495B-B802-9FB3B3115265";
name = "7 mag 23, 13:58";
shapes = (
{
closed = 1;
nodes = (
(392,-12,o),
(476,50,o),
(476,148,cs),
(476,342,o),
(164,303,o),
(164,401,cs),
(164,431,o),
(192,449,o),
(237,449,cs),
(296,449,o),
(338,419,o),
(344,369,c),
(467,405,l),
(440,494,o),
(356,545,o),
(239,545,cs),
(116,545,o),
(34,489,o),
(34,389,cs),
(34,188,o),
(346,226,o),
(346,132,cs),
(346,103,o),
(316,84,o),
(269,84,cs),
(204,84,o),
(158,118,o),
(152,171,c),
(20,144,l),
(34,50,o),
(125,-12,o),
(257,-12,cs)
);
}
);
width = 498;
},
{
anchors = (
{
name = bottom;
pos = (200,0);
},
{
name = top;
pos = (264,532);
}
);
layerId = "980A8AF2-BF11-492D-9410-496A94B21BD3";
name = Regular;
shapes = (
{
closed = 1;
nodes = (
(336,-12,o),
(423,61,o),
(423,167,cs),
(423,347,o),
(142,273,o),
(142,387,cs),
(142,441,o),
(188,476,o),
(257,476,cs),
(315,476,o),
(356,444,o),
(361,393,c),
(442,412,l),
(428,508,o),
(345,544,o),
(263,544,cs),
(143,544,o),
(54,469,o),
(54,370,cs),
(54,203,o),
(335,269,o),
(335,151,cs),
(335,95,o),
(284,58,o),
(212,58,cs),
(144,58,o),
(97,96,o),
(95,159,c),
(9,147,l),
(18,50,o),
(94,-12,o),
(208,-12,cs)
);
}
);
width = 467;
},
{
anchors = (
{
name = bottom;
pos = (218,0);
},
{
name = top;
pos = (290,545);
}
);
layerId = "829AF10C-3E33-4291-B5B6-8F7CF12D6A62";
shapes = (
{
closed = 1;
nodes = (
(368,-15,o),
(472,66,o),
(472,177,cs),
(472,353,o),
(182,305,o),
(182,405,cs),
(182,443,o),
(222,471,o),
(275,471,cs),
(330,471,o),
(362,435,o),
(363,388,c),
(489,422,l),
(476,513,o),
(397,560,o),
(289,560,cs),
(148,560,o),
(48,483,o),
(48,369,cs),
(48,198,o),
(335,253,o),
(335,146,cs),
(335,106,o),
(288,75,o),
(235,75,cs),
(175,75,o),
(133,115,o),
(129,169,c),
(2,134,l),
(21,38,o),
(107,-15,o),
(222,-15,cs)
);
}
);
width = 511;
},
{
anchors = (
{
name = bottom;
pos = (253,0);
},
{
name = top;
pos = (243,533);
}
);
associatedMasterId = "829AF10C-3E33-4291-B5B6-8F7CF12D6A62";
layerId = "023D8C7C-07D8-4641-B42F-A8CF93938774";
name = "7 mag 23, 13:58";
shapes = (
{
closed = 1;
nodes = (
(392,-12,o),
(476,50,o),
(476,148,cs),
(476,342,o),
(164,303,o),
(164,401,cs),
(164,431,o),
(192,449,o),
(237,449,cs),
(296,449,o),
(338,419,o),
(344,369,c),
(467,405,l),
(440,494,o),
(356,545,o),
(239,545,cs),
(116,545,o),
(34,489,o),
(34,389,cs),
(34,188,o),
(346,226,o),
(346,132,cs),
(346,103,o),
(316,84,o),
(269,84,cs),
(204,84,o),
(158,118,o),
(152,171,c),
(20,144,l),
(34,50,o),
(125,-12,o),
(257,-12,cs)
);
}
);
width = 498;
}
);
note = "Falls to the left";
unicode = 115;
}
{
glyphname = t;
kernLeft = KO_t;
kernRight = KO_t;
layers = (
{
anchors = (
{
name = bottom;
pos = (201,0);
},
{
name = center;
pos = (157,340);
},
{
name = topright;
pos = (189,544);
}
);
layerId = m01;
shapes = (
{
closed = 1;
nodes = (
(305,68,l),
(228,42,o),
(183,60,o),
(183,116,cs),
(183,688,l),
(99,636,l),
(99,522,l),
(97,522,l),
(97,108,ls),
(97,7,o),
(182,-35,o),
(315,0,c)
);
},
{
closed = 1;
nodes = (
(301,466,l),
(301,532,l),
(15,532,l),
(15,466,l)
);
}
);
width = 345;
},
{
anchors = (
{
name = bottom;
pos = (221,0);
},
{
name = center;
pos = (176,331);
},
{
name = topright;
pos = (228,560);
}
);
layerId = "E9FB66CC-5D7A-47B2-9A25-A0E8EEF5BB81";
shapes = (
{
closed = 1;
nodes = (
(342,104,l),
(268,73,o),
(223,92,o),
(223,155,cs),
(223,700,l),
(95,636,l),
(95,521,l),
(93,521,l),
(93,130,ls),
(93,5,o),
(193,-43,o),
(353,4,c)
);
},
{
closed = 1;
nodes = (
(349,460,l),
(349,544,l),
(5,544,l),
(5,460,l)
);
}
);
width = 373;
},
{
anchors = (
{
name = bottom;
pos = (152,0);
},
{
name = center;
pos = (155,340);
},
{
name = topright;
pos = (215,544);
}
);
layerId = "980A8AF2-BF11-492D-9410-496A94B21BD3";
shapes = (
{
closed = 1;
nodes = (
(273,68,l),
(195,42,o),
(154,60,o),
(161,116,cs),
(239,688,l),
(148,636,l),
(132,522,l),
(130,522,l),
(74,108,ls),
(61,7,o),
(138,-35,o),
(274,0,c)
);
},
{
closed = 1;
nodes = (
(323,466,l),
(332,532,l),
(52,532,l),
(43,466,l)
);
}
);
width = 341;
},
{
anchors = (
{
name = bottom;
pos = (180,0);
},
{
name = center;
pos = (174,331);
},
{
name = topright;
pos = (264,560);
}
);
layerId = "829AF10C-3E33-4291-B5B6-8F7CF12D6A62";
shapes = (
{
closed = 1;
nodes = (
(316,104,l),
(239,73,o),
(198,92,o),
(206,155,cs),
(282,700,l),
(145,636,l),
(129,521,l),
(127,521,l),
(73,130,ls),
(56,5,o),
(148,-43,o),
(313,4,c)
);
},
{
closed = 1;
nodes = (
(372,460,l),
(384,544,l),
(44,544,l),
(32,460,l)
);
}
);
width = 361;
}
);
note = "Controlla curva";
unicode = 116;
userData = {
KernOnName = t;
};
}
{
glyphname = u;
kernLeft = KO_u;
kernRight = KO_u;
layers = (
{
anchors = (
{
name = ogonek;
pos = (504,8);
},
{
name = top;
pos = (281,532);
}
);
layerId = m01;
shapes = (
{
closed = 1;
nodes = (
(347,-12,o),
(415,46,o),
(423,136,c),
(415,136,l),
(415,64,o),
(419,33,o),
(430,0,c),
(513,0,l),
(504,37,o),
(499,76,o),
(499,125,cs),
(499,532,l),
(413,532,l),
(413,272,ls),
(413,140,o),
(360,62,o),
(269,62,cs),
(192,62,o),
(147,118,o),
(147,212,cs),
(147,532,l),
(61,532,l),
(61,186,ls),
(61,65,o),
(133,-12,o),
(247,-12,cs)
);
}
);
width = 577;
},
{
anchors = (
{
name = ogonek;
pos = (532,8);
},
{
name = top;
pos = (288,545);
}
);
layerId = "E9FB66CC-5D7A-47B2-9A25-A0E8EEF5BB81";
shapes = (
{
closed = 1;
nodes = (
(337,-15,o),
(405,48,o),
(410,149,c),
(403,149,l),
(403,93,o),
(408,41,o),
(423,0,c),
(541,0,l),
(532,37,o),
(528,76,o),
(528,125,cs),
(528,545,l),
(398,545,l),
(398,255,ls),
(398,145,o),
(353,80,o),
(279,80,cs),
(216,80,o),
(179,126,o),
(179,203,cs),
(179,545,l),
(48,545,l),
(48,186,ls),
(48,63,o),
(121,-15,o),
(234,-15,cs)
);
}
);
width = 595;
},
{
anchors = (
{
name = ogonek;
pos = (457,8);
},
{
name = top;
pos = (312,532);
}
);
layerId = "980A8AF2-BF11-492D-9410-496A94B21BD3";
shapes = (
{
closed = 1;
nodes = (
(300,-12,o),
(374,46,o),
(394,136,c),
(386,136,l),
(377,64,o),
(377,36,o),
(382,0,c),
(466,0,l),
(461,45,o),
(463,80,o),
(469,125,cs),
(525,532,l),
(439,532,l),
(403,272,ls),
(385,140,o),
(321,62,o),
(237,62,cs),
(164,62,o),
(127,118,o),
(140,212,cs),
(184,532,l),
(98,532,l),
(50,186,ls),
(33,65,o),
(95,-12,o),
(203,-12,cs)
);
}
);
width = 567;
},
{
anchors = (
{
name = ogonek;
pos = (489,8);
},
{
name = top;
pos = (322,545);
}
);
layerId = "829AF10C-3E33-4291-B5B6-8F7CF12D6A62";
shapes = (
{
closed = 1;
nodes = (
(291,-15,o),
(368,48,o),
(386,149,c),
(379,149,l),
(372,95,o),
(371,41,o),
(378,0,c),
(497,0,l),
(493,38,o),
(494,72,o),
(501,125,cs),
(559,545,l),
(429,545,l),
(390,255,ls),
(375,145,o),
(320,80,o),
(250,80,cs),
(194,80,o),
(159,126,o),
(170,203,cs),
(217,545,l),
(86,545,l),
(37,186,ls),
(20,63,o),
(85,-15,o),
(192,-15,cs)
);
}
);
width = 589;
}
);
metricLeft = "=|n";
metricRight = idotless;
unicode = 117;
userData = {
KernOnName = u;
};
}
{
glyphname = v;
kernLeft = KO_v;
kernRight = KO_v;
layers = (
{
layerId = m01;
shapes = (
{
closed = 1;
nodes = (
(291,0,l),
(477,532,l),
(393,532,l),
(243,80,l),
(251,80,l),
(93,532,l),
(1,532,l),
(195,0,l)
);
}
);
width = 478;
},
{
layerId = "E9FB66CC-5D7A-47B2-9A25-A0E8EEF5BB81";
shapes = (
{
closed = 1;
nodes = (
(333,0,l),
(508,545,l),
(386,545,l),
(258,130,l),
(265,130,l),
(137,545,l),
(0,545,l),
(179,0,l)
);
}
);
width = 508;
},
{
layerId = "980A8AF2-BF11-492D-9410-496A94B21BD3";
shapes = (
{
closed = 1;
nodes = (
(249,0,l),
(501,532,l),
(415,532,l),
(208,80,l),
(217,80,l),
(127,532,l),
(38,532,l),
(152,0,l)
);
}
);
width = 465;
},
{
layerId = "829AF10C-3E33-4291-B5B6-8F7CF12D6A62";
shapes = (
{
closed = 1;
nodes = (
(291,0,l),
(537,545,l),
(412,545,l),
(230,130,l),
(238,130,l),
(171,545,l),
(38,545,l),
(136,0,l)
);
}
);
width = 499;
}
);
unicode = 118;
}
{
glyphname = w;
kernLeft = KO_w;
kernRight = KO_w;
layers = (
{
anchors = (
{
name = bottom;
pos = (356,0);
},
{
name = top;
pos = (356,532);
}
);
layerId = m01;
shapes = (
{
closed = 1;
nodes = (
(255,0,l),
(361,432,l),
(353,432,l),
(462,0,l),
(558,0,l),
(705,532,l),
(623,532,l),
(510,82,l),
(518,82,l),
(403,532,l),
(316,532,l),
(208,80,l),
(217,80,l),
(97,532,l),
(7,532,l),
(157,0,l)
);
}
);
width = 712;
},
{
anchors = (
{
name = bottom;
pos = (372,0);
},
{
name = top;
pos = (372,544);
}
);
layerId = "E9FB66CC-5D7A-47B2-9A25-A0E8EEF5BB81";
shapes = (
{
closed = 1;
nodes = (
(281,0,l),
(369,361,l),
(362,361,l),
(465,0,l),
(610,0,l),
(744,545,l),
(625,545,l),
(537,138,l),
(544,138,l),
(441,545,l),
(317,545,l),
(221,134,l),
(229,134,l),
(130,545,l),
(0,545,l),
(138,0,l)
);
}
);
width = 744;
},
{
anchors = (
{
name = bottom;
pos = (310,0);
},
{
name = top;
pos = (384,532);
}
);
layerId = "980A8AF2-BF11-492D-9410-496A94B21BD3";
shapes = (
{
closed = 1;
nodes = (
(213,0,l),
(372,432,l),
(365,432,l),
(414,0,l),
(510,0,l),
(720,532,l),
(635,532,l),
(471,82,l),
(479,82,l),
(427,532,l),
(342,532,l),
(178,80,l),
(184,80,l),
(131,532,l),
(44,532,l),
(116,0,l)
);
}
);
width = 690;
},
{
anchors = (
{
name = bottom;
pos = (327,0);
},
{
name = top;
pos = (404,544);
}
);
layerId = "829AF10C-3E33-4291-B5B6-8F7CF12D6A62";
shapes = (
{
closed = 1;
nodes = (
(239,0,l),
(373,361,l),
(367,361,l),
(419,0,l),
(564,0,l),
(769,545,l),
(640,545,l),
(501,138,l),
(507,138,l),
(462,545,l),
(344,545,l),
(195,134,l),
(201,134,l),
(162,545,l),
(38,545,l),
(97,0,l)
);
}
);
width = 731;
}
);
unicode = 119;
userData = {
KernOnName = w;
};
}
{
glyphname = x;
kernLeft = KO_x;
kernRight = KO_x;
layers = (
{
background = {
shapes = (
{
closed = 1;
nodes = (
(91,0,l),
(452,532,l),
(359,532,l),
(-2,0,l)
);
},
{
closed = 1;
nodes = (
(460,0,l),
(105,532,l),
(4,532,l),
(357,0,l)
);
}
);
};
layerId = m01;
shapes = (
{
closed = 1;
nodes = (
(95,0,l),
(231,206,l),
(223,206,l),
(361,0,l),
(463,0,l),
(273,280,l),
(273,264,l),
(457,532,l),
(363,532,l),
(231,336,l),
(239,336,l),
(109,532,l),
(7,532,l),
(189,260,l),
(189,276,l),
(1,0,l)
);
}
);
width = 466;
},
{
background = {
shapes = (
{
closed = 1;
nodes = (
(527,0,l),
(162,545,l),
(0,545,l),
(363,0,l)
);
},
{
closed = 1;
nodes = (
(134,0,l),
(508,545,l),
(374,545,l),
(0,0,l)
);
}
);
};
layerId = "E9FB66CC-5D7A-47B2-9A25-A0E8EEF5BB81";
shapes = (
{
closed = 1;
nodes = (
(139,0,l),
(260,177,l),
(253,177,l),
(367,0,l),
(527,0,l),
(328,294,l),
(328,279,l),
(508,545,l),
(369,545,l),
(258,380,l),
(265,380,l),
(156,545,l),
(0,545,l),
(192,262,l),
(192,277,l),
(0,0,l)
);
}
);
width = 527;
},
{
associatedMasterId = "E9FB66CC-5D7A-47B2-9A25-A0E8EEF5BB81";
layerId = "442051E3-370E-4C2A-A23B-5913F78A970B";
name = "26 feb 23, 17:52";
shapes = (
{
closed = 1;
nodes = (
(502,0,l),
(148,533,l),
(-7,533,l),
(344,0,l)
);
},
{
closed = 1;
nodes = (
(128,0,l),
(492,533,l),
(356,533,l),
(-9,0,l)
);
}
);
width = 492;
},
{
associatedMasterId = m01;
layerId = "86E0CBD2-1697-4290-A2B7-B035E8104321";
name = "8 mag 23, 21:31";
shapes = (
{
closed = 1;
nodes = (
(461,0,l),
(279,273,l),
(456,532,l),
(363,532,l),
(234,339,l),
(107,532,l),
(6,532,l),
(184,268,l),
(-2,0,l),
(93,0,l),
(229,201,l),
(359,0,l)
);
}
);
width = 461;
},
{
background = {
shapes = (
{
closed = 1;
nodes = (
(62,0,l),
(423,532,l),
(330,532,l),
(-31,0,l)
);
},
{
closed = 1;
nodes = (
(431,0,l),
(76,532,l),
(-25,532,l),
(328,0,l)
);
}
);
};
layerId = "980A8AF2-BF11-492D-9410-496A94B21BD3";
shapes = (
{
closed = 1;
nodes = (
(57,0,l),
(216,206,l),
(209,206,l),
(313,0,l),
(415,0,l),
(269,280,l),
(267,264,l),
(482,532,l),
(388,532,l),
(235,336,l),
(242,336,l),
(144,532,l),
(43,532,l),
(182,260,l),
(184,276,l),
(-36,0,l)
);
}
);
width = 455;
},
{
associatedMasterId = "980A8AF2-BF11-492D-9410-496A94B21BD3";
layerId = "EB507F59-EB3F-467C-AC94-8ECB5FC37F33";
name = "8 mag 23, 21:31";
shapes = (
{
closed = 1;
nodes = (
(461,0,l),
(279,273,l),
(456,532,l),
(363,532,l),
(234,339,l),
(107,532,l),
(6,532,l),
(184,268,l),
(-2,0,l),
(93,0,l),
(229,201,l),
(359,0,l)
);
}
);
width = 461;
},
{
background = {
shapes = (
{
closed = 1;
nodes = (
(497,0,l),
(132,545,l),
(-30,545,l),
(333,0,l)
);
},
{
closed = 1;
nodes = (
(104,0,l),
(478,545,l),
(344,545,l),
(-30,0,l)
);
}
);
};
layerId = "829AF10C-3E33-4291-B5B6-8F7CF12D6A62";
shapes = (
{
closed = 1;
nodes = (
(103,0,l),
(245,177,l),
(240,177,l),
(325,0,l),
(483,0,l),
(329,294,l),
(327,279,l),
(540,545,l),
(399,545,l),
(269,380,l),
(275,380,l),
(193,545,l),
(40,545,l),
(188,262,l),
(188,277,l),
(-38,0,l)
);
}
);
width = 521;
},
{
associatedMasterId = "829AF10C-3E33-4291-B5B6-8F7CF12D6A62";
layerId = "13015F71-893F-414C-976A-C7E0DA9314B8";
name = "26 feb 23, 17:52";
shapes = (
{
closed = 1;
nodes = (
(502,0,l),
(148,533,l),
(-7,533,l),
(344,0,l)
);
},
{
closed = 1;
nodes = (
(128,0,l),
(492,533,l),
(356,533,l),
(-9,0,l)
);
}
);
width = 492;
}
);
unicode = 120;
userData = {
KernOnName = x;
};
}
{
glyphname = y;
kernLeft = KO_y;
kernRight = KO_y;
layers = (
{
anchors = (
{
name = top;
pos = (246,532);
}
);
layerId = m01;
shapes = (
{
closed = 1;
nodes = (
(37,-221,o),
(70,-228,o),
(100,-228,cs),
(164,-228,o),
(211,-197,o),
(234,-137,cs),
(488,532,l),
(404,532,l),
(244,96,l),
(252,96,l),
(96,532,l),
(2,532,l),
(206,-12,l),
(206,8,l),
(166,-100,ls),
(153,-136,o),
(124,-155,o),
(86,-155,cs),
(64,-155,o),
(39,-148,o),
(12,-136,c),
(0,-208,l)
);
}
);
width = 489;
},
{
anchors = (
{
name = top;
pos = (264,545);
}
);
layerId = "E9FB66CC-5D7A-47B2-9A25-A0E8EEF5BB81";
shapes = (
{
closed = 1;
nodes = (
(50,-220,o),
(91,-229,o),
(129,-229,cs),
(214,-229,o),
(283,-184,o),
(309,-105,cs),
(522,545,l),
(397,545,l),
(270,129,l),
(282,129,l),
(143,545,l),
(5,545,l),
(209,-15,l),
(209,0,l),
(194,-46,ls),
(181,-92,o),
(149,-116,o),
(101,-116,cs),
(77,-116,o),
(50,-110,o),
(19,-98,c),
(8,-201,l)
);
}
);
width = 522;
},
{
anchors = (
{
name = top;
pos = (274,532);
}
);
layerId = "980A8AF2-BF11-492D-9410-496A94B21BD3";
shapes = (
{
closed = 1;
nodes = (
(-31,-222,o),
(2,-228,o),
(31,-228,cs),
(98,-228,o),
(148,-196,o),
(177,-137,cs),
(511,532,l),
(425,532,l),
(212,96,l),
(220,96,l),
(128,532,l),
(36,532,l),
(161,-12,l),
(163,8,l),
(111,-98,ls),
(93,-134,o),
(63,-153,o),
(26,-153,cs),
(4,-153,o),
(-20,-146,o),
(-45,-134,c),
(-66,-208,l)
);
}
);
width = 475;
},
{
anchors = (
{
name = top;
pos = (307,545);
}
);
layerId = "829AF10C-3E33-4291-B5B6-8F7CF12D6A62";
shapes = (
{
closed = 1;
nodes = (
(-12,-222,o),
(30,-229,o),
(66,-229,cs),
(149,-229,o),
(222,-191,o),
(260,-109,cs),
(567,545,l),
(437,545,l),
(255,132,l),
(263,132,l),
(177,545,l),
(43,545,l),
(175,-15,l),
(177,0,l),
(151,-56,ls),
(132,-98,o),
(96,-122,o),
(49,-122,cs),
(24,-122,o),
(-3,-117,o),
(-34,-104,c),
(-58,-205,l)
);
}
);
width = 529;
}
);
unicode = 121;
userData = {
KernOnName = y;
};
}
{
glyphname = z;
kernLeft = KO_z;
kernRight = KO_z;
layers = (
{
anchors = (
{
name = bottom;
pos = (221,0);
},
{
name = center;
pos = (221,266);
},
{
name = top;
pos = (222,532);
}
);
layerId = m01;
shapes = (
{
closed = 1;
nodes = (
(424,0,l),
(424,68,l),
(117,68,l),
(121,60,l),
(421,470,l),
(421,532,l),
(23,532,l),
(23,464,l),
(324,464,l),
(320,472,l),
(16,60,l),
(16,0,l)
);
}
);
width = 442;
},
{
anchors = (
{
name = bottom;
pos = (234,0);
},
{
name = center;
pos = (234,272);
},
{
name = top;
pos = (235,545);
}
);
layerId = "E9FB66CC-5D7A-47B2-9A25-A0E8EEF5BB81";
shapes = (
{
closed = 1;
nodes = (
(447,1,l),
(447,94,l),
(174,94,l),
(178,86,l),
(441,460,l),
(441,545,l),
(22,545,l),
(22,453,l),
(290,453,l),
(286,461,l),
(20,86,l),
(20,0,l)
);
}
);
width = 467;
},
{
anchors = (
{
name = bottom;
pos = (178,0);
},
{
name = center;
pos = (213,266);
},
{
name = top;
pos = (251,532);
}
);
layerId = "980A8AF2-BF11-492D-9410-496A94B21BD3";
shapes = (
{
closed = 1;
nodes = (
(375,0,l),
(385,68,l),
(90,68,l),
(92,60,l),
(433,470,l),
(442,532,l),
(56,532,l),
(45,464,l),
(335,464,l),
(332,472,l),
(-13,60,l),
(-21,0,l)
);
}
);
width = 431;
},
{
anchors = (
{
name = bottom;
pos = (193,0);
},
{
name = center;
pos = (229,272);
},
{
name = top;
pos = (268,545);
}
);
layerId = "829AF10C-3E33-4291-B5B6-8F7CF12D6A62";
shapes = (
{
closed = 1;
nodes = (
(401,1,l),
(414,94,l),
(149,94,l),
(152,86,l),
(458,460,l),
(470,545,l),
(60,545,l),
(46,453,l),
(306,453,l),
(303,461,l),
(-6,86,l),
(-18,0,l)
);
}
);
width = 459;
}
);
unicode = 122;
userData = {
KernOnName = z;
};
}
{
glyphname = braceleft;
kernRight = KO_braceleft;
layers = (
{
layerId = m01;
shapes = (
{
closed = 1;
nodes = (
(287,-164,l),
(215,-176,o),
(181,-152,o),
(183,-96,cs),
(193,144,ls),
(195,199,o),
(164,233,o),
(110,236,c),
(110,228,l),
(164,232,o),
(195,266,o),
(193,320,cs),
(183,562,ls),
(181,618,o),
(215,640,o),
(287,628,c),
(294,684,l),
(162,716,o),
(88,671,o),
(99,562,cs),
(121,336,ls),
(125,291,o),
(106,267,o),
(67,267,cs),
(25,267,l),
(25,198,l),
(67,198,ls),
(106,198,o),
(125,174,o),
(121,130,cs),
(99,-96,ls),
(88,-206,o),
(163,-252,o),
(297,-220,c)
);
}
);
width = 307;
},
{
layerId = "E9FB66CC-5D7A-47B2-9A25-A0E8EEF5BB81";
shapes = (
{
closed = 1;
nodes = (
(342,-131,l),
(270,-143,o),
(235,-119,o),
(238,-63,cs),
(248,144,ls),
(241,199,o),
(219,233,o),
(165,236,c),
(165,228,l),
(219,232,o),
(251,266,o),
(248,320,cs),
(236,529,ls),
(233,585,o),
(268,607,o),
(340,595,c),
(343,684,l),
(208,716,o),
(96,671,o),
(106,562,cs),
(126,336,ls),
(129,297,o),
(111,277,o),
(72,277,cs),
(30,277,l),
(30,188,l),
(72,188,ls),
(111,188,o),
(129,168,o),
(126,130,cs),
(108,-96,ls),
(99,-206,o),
(211,-252,o),
(348,-220,c)
);
}
);
width = 358;
},
{
associatedMasterId = m01;
layerId = "406D6BEA-E26C-4F52-AF6C-8A5C5C3F2CF3";
name = "15 apr 23, 19:03";
shapes = (
{
closed = 1;
nodes = (
(274,-150,l),
(198,-174,o),
(157,-152,o),
(166,-91,cs),
(193,123,ls),
(202,193,o),
(171,237,o),
(111,237,c),
(111,230,l),
(171,230,o),
(202,273,o),
(193,344,cs),
(166,556,ls),
(157,617,o),
(198,639,o),
(274,615,c),
(282,679,l),
(148,718,o),
(70,671,o),
(84,558,cs),
(111,340,ls),
(117,296,o),
(96,269,o),
(52,269,cs),
(25,269,l),
(25,194,l),
(52,194,ls),
(96,194,o),
(117,171,o),
(111,127,cs),
(84,-93,ls),
(70,-206,o),
(148,-255,o),
(282,-216,c)
);
}
);
width = 294;
},
{
layerId = "980A8AF2-BF11-492D-9410-496A94B21BD3";
shapes = (
{
closed = 1;
nodes = (
(255,-164,l),
(182,-176,o),
(151,-152,o),
(161,-96,cs),
(204,144,ls),
(214,198,o),
(188,233,o),
(134,236,c),
(133,228,l),
(184,232,o),
(223,262,o),
(229,320,cs),
(253,562,ls),
(259,618,o),
(296,640,o),
(366,628,c),
(381,684,l),
(254,716,o),
(174,671,o),
(169,562,cs),
(159,336,ls),
(157,291,o),
(134,267,o),
(96,267,cs),
(54,267,l),
(44,198,l),
(86,198,ls),
(126,198,o),
(140,173,o),
(130,130,cs),
(77,-96,ls),
(51,-206,o),
(119,-252,o),
(257,-220,c)
);
}
);
width = 356;
},
{
associatedMasterId = "980A8AF2-BF11-492D-9410-496A94B21BD3";
layerId = "1C9A10F1-E0BB-44EE-A0FE-F20019C163F8";
name = "15 apr 23, 19:03";
shapes = (
{
closed = 1;
nodes = (
(274,-150,l),
(198,-174,o),
(157,-152,o),
(166,-91,cs),
(193,123,ls),
(202,193,o),
(171,237,o),
(111,237,c),
(111,230,l),
(171,230,o),
(202,273,o),
(193,344,cs),
(166,556,ls),
(157,617,o),
(198,639,o),
(274,615,c),
(282,679,l),
(148,718,o),
(70,671,o),
(84,558,cs),
(111,340,ls),
(117,296,o),
(96,269,o),
(52,269,cs),
(25,269,l),
(25,194,l),
(52,194,ls),
(96,194,o),
(117,171,o),
(111,127,cs),
(84,-93,ls),
(70,-206,o),
(148,-255,o),
(282,-216,c)
);
}
);
width = 294;
},
{
layerId = "829AF10C-3E33-4291-B5B6-8F7CF12D6A62";
shapes = (
{
closed = 1;
nodes = (
(324,-131,l),
(250,-143,o),
(220,-119,o),
(230,-63,cs),
(267,144,ls),
(270,199,o),
(252,233,o),
(199,236,c),
(198,228,l),
(252,232,o),
(289,266,o),
(294,320,cs),
(311,529,ls),
(316,585,o),
(354,607,o),
(424,595,c),
(440,684,l),
(309,716,o),
(191,671,o),
(185,562,cs),
(174,336,ls),
(172,297,o),
(150,277,o),
(112,277,cs),
(70,277,l),
(57,188,l),
(99,188,ls),
(135,188,o),
(154,171,o),
(145,130,cs),
(95,-96,ls),
(71,-206,o),
(176,-252,o),
(318,-220,c)
);
}
);
width = 428;
}
);
unicode = 123;
userData = {
KernOnName = braceleft;
KernOnSpecialSpacing = {
R = parenthesis;
};
};
}
{
glyphname = bar;
layers = (
{
layerId = m01;
shapes = (
{
closed = 1;
nodes = (
(161,-230,l),
(161,694,l),
(83,694,l),
(83,-230,l)
);
}
);
width = 244;
},
{
layerId = "E9FB66CC-5D7A-47B2-9A25-A0E8EEF5BB81";
shapes = (
{
closed = 1;
nodes = (
(200,-230,l),
(200,706,l),
(72,706,l),
(72,-230,l)
);
}
);
width = 272;
},
{
layerId = "980A8AF2-BF11-492D-9410-496A94B21BD3";
shapes = (
{
closed = 1;
nodes = (
(91,-230,l),
(221,694,l),
(143,694,l),
(13,-230,l)
);
}
);
width = 244;
},
{
layerId = "829AF10C-3E33-4291-B5B6-8F7CF12D6A62";
shapes = (
{
closed = 1;
nodes = (
(129,-230,l),
(261,706,l),
(133,706,l),
(1,-230,l)
);
}
);
width = 272;
}
);
metricLeft = H;
metricRight = H;
unicode = 124;
userData = {
KernOnSpecialSpacing = {
L = NoKerning;
R = NoKerning;
};
};
}
{
glyphname = asciitilde;
kernLeft = KO_asciitilde;
kernRight = KO_asciitilde;
layers = (
{
layerId = m01;
shapes = (
{
closed = 1;
nodes = (
(447,218,o),
(500,266,o),
(512,341,c),
(444,361,l),
(438,320,o),
(410,294,o),
(372,294,cs),
(312,294,o),
(268,360,o),
(184,360,cs),
(113,360,o),
(60,312,o),
(48,236,c),
(116,216,l),
(122,258,o),
(150,284,o),
(188,284,cs),
(248,284,o),
(292,218,o),
(376,218,cs)
);
}
);
width = 560;
},
{
layerId = "E9FB66CC-5D7A-47B2-9A25-A0E8EEF5BB81";
shapes = (
{
closed = 1;
nodes = (
(476,218,o),
(541,266,o),
(555,373,c),
(464,396,l),
(458,353,o),
(429,326,o),
(389,326,cs),
(329,326,o),
(285,395,o),
(201,395,cs),
(114,395,o),
(50,347,o),
(35,241,c),
(133,218,l),
(139,260,o),
(167,286,o),
(205,286,cs),
(265,286,o),
(309,218,o),
(393,218,cs)
);
}
);
width = 590;
},
{
layerId = "980A8AF2-BF11-492D-9410-496A94B21BD3";
shapes = (
{
closed = 1;
nodes = (
(473,218,o),
(533,266,o),
(556,341,c),
(491,361,l),
(479,321,o),
(448,294,o),
(409,294,cs),
(349,294,o),
(314,360,o),
(230,360,cs),
(159,360,o),
(100,312,o),
(77,236,c),
(142,216,l),
(154,258,o),
(186,284,o),
(224,284,cs),
(284,284,o),
(318,218,o),
(402,218,cs)
);
}
);
width = 626;
},
{
layerId = "829AF10C-3E33-4291-B5B6-8F7CF12D6A62";
shapes = (
{
closed = 1;
nodes = (
(510,218,o),
(577,274,o),
(604,373,c),
(516,396,l),
(504,353,o),
(470,326,o),
(431,326,cs),
(371,326,o),
(337,395,o),
(253,395,cs),
(166,395,o),
(95,347,o),
(65,241,c),
(160,218,l),
(172,260,o),
(203,286,o),
(241,286,cs),
(301,286,o),
(336,218,o),
(420,218,cs)
);
}
);
width = 659;
}
);
metricRight = "=|";
unicode = 126;
userData = {
KernOnSpecialSpacing = {
L = math;
R = math;
};
};
}
{
glyphname = cent;
layers = (
{
layerId = m01;
shapes = (
{
alignment = -1;
pos = (22,24);
ref = c;
},
{
closed = 1;
nodes = (
(329,-108,l),
(329,668,l),
(257,668,l),
(257,-108,l)
);
}
);
width = 580;
},
{
layerId = "E9FB66CC-5D7A-47B2-9A25-A0E8EEF5BB81";
shapes = (
{
alignment = -1;
pos = (22,24);
ref = c;
},
{
closed = 1;
nodes = (
(355,-124,l),
(355,692,l),
(247,692,l),
(247,-124,l)
);
}
);
width = 583;
},
{
layerId = "980A8AF2-BF11-492D-9410-496A94B21BD3";
shapes = (
{
alignment = -1;
pos = (25,24);
ref = c;
},
{
closed = 1;
nodes = (
(277,-108,l),
(387,668,l),
(315,668,l),
(205,-108,l)
);
}
);
width = 568;
},
{
layerId = "829AF10C-3E33-4291-B5B6-8F7CF12D6A62";
shapes = (
{
alignment = -1;
pos = (25,24);
ref = c;
},
{
closed = 1;
nodes = (
(301,-124,l),
(415,692,l),
(307,692,l),
(193,-124,l)
);
}
);
width = 574;
}
);
unicode = 162;
userData = {
KernOnSpecialSpacing = {
L = symbols;
R = symbols;
};
};
}
{
glyphname = sterling;
layers = (
{
background = {
shapes = (
{
closed = 1;
nodes = (
(235,143,o),
(260,224,o),
(260,285,cs),
(260,391,o),
(183,435,o),
(183,513,cs),
(183,576,o),
(235,620,o),
(309,620,cs),
(387,620,o),
(424,571,o),
(445,527,c),
(527,568,l),
(504,624,o),
(430,694,o),
(307,694,cs),
(182,694,o),
(96,624,o),
(96,516,cs),
(96,412,o),
(172,383,o),
(172,292,cs),
(172,243,o),
(150,181,o),
(71,64,c),
(71,0,l),
(542,0,l),
(542,74,l),
(125,74,l),
(144,25,l)
);
},
{
closed = 1;
nodes = (
(408,287,l),
(408,358,l),
(67,358,l),
(67,287,l)
);
}
);
};
layerId = m01;
shapes = (
{
closed = 1;
nodes = (
(556,0,l),
(556,80,l),
(180,80,l),
(184,72,l),
(243,127,o),
(272,198,o),
(272,272,cs),
(272,380,o),
(218,440,o),
(218,516,cs),
(218,580,o),
(268,620,o),
(340,620,cs),
(404,620,o),
(458,588,o),
(478,528,c),
(558,568,l),
(535,624,o),
(462,694,o),
(339,694,cs),
(214,694,o),
(126,624,o),
(126,516,cs),
(126,412,o),
(192,382,o),
(192,276,cs),
(192,204,o),
(157,128,o),
(94,72,c),
(94,0,l)
);
},
{
closed = 1;
nodes = (
(492,288,l),
(492,358,l),
(80,358,l),
(80,288,l)
);
}
);
width = 620;
},
{
layerId = "E9FB66CC-5D7A-47B2-9A25-A0E8EEF5BB81";
shapes = (
{
closed = 1;
nodes = (
(556,0,l),
(556,117,l),
(145,117,l),
(173,71,l),
(231,123,o),
(269,194,o),
(269,272,cs),
(269,372,o),
(209,428,o),
(209,500,cs),
(209,562,o),
(257,592,o),
(315,592,cs),
(370,592,o),
(426,565,o),
(446,509,c),
(553,566,l),
(529,627,o),
(446,705,o),
(311,705,cs),
(177,705,o),
(80,625,o),
(82,504,cs),
(84,410,o),
(147,382,o),
(147,276,cs),
(147,214,o),
(109,146,o),
(46,93,c),
(46,0,l)
);
},
{
closed = 1;
nodes = (
(501,278,l),
(501,388,l),
(40,388,l),
(40,278,l)
);
}
);
width = 576;
},
{
associatedMasterId = m01;
layerId = "AE9E214B-FA22-44EF-B4BD-0087F90666F8";
name = "12 nov 23, 00:25";
shapes = (
{
closed = 1;
nodes = (
(205,143,o),
(230,224,o),
(230,285,cs),
(230,391,o),
(153,435,o),
(153,513,cs),
(153,576,o),
(205,620,o),
(279,620,cs),
(357,620,o),
(394,571,o),
(415,527,c),
(497,568,l),
(474,624,o),
(400,694,o),
(277,694,cs),
(152,694,o),
(66,624,o),
(66,516,cs),
(66,412,o),
(142,383,o),
(142,292,cs),
(142,243,o),
(120,181,o),
(41,64,c),
(41,0,l),
(512,0,l),
(512,74,l),
(95,74,l),
(114,25,l)
);
},
{
closed = 1;
nodes = (
(378,287,l),
(378,358,l),
(37,358,l),
(37,287,l)
);
}
);
width = 558;
},
{
background = {
shapes = (
{
closed = 1;
nodes = (
(198,143,o),
(223,224,o),
(223,285,cs),
(223,391,o),
(146,435,o),
(146,513,cs),
(146,576,o),
(198,620,o),
(272,620,cs),
(350,620,o),
(387,571,o),
(408,527,c),
(490,568,l),
(467,624,o),
(393,694,o),
(270,694,cs),
(145,694,o),
(59,624,o),
(59,516,cs),
(59,412,o),
(135,383,o),
(135,292,cs),
(135,243,o),
(113,181,o),
(34,64,c),
(34,0,l),
(505,0,l),
(505,74,l),
(88,74,l),
(107,25,l)
);
},
{
closed = 1;
nodes = (
(371,287,l),
(371,358,l),
(30,358,l),
(30,287,l)
);
}
);
};
layerId = "980A8AF2-BF11-492D-9410-496A94B21BD3";
shapes = (
{
closed = 1;
nodes = (
(519,0,l),
(530,80,l),
(154,80,l),
(157,72,l),
(234,135,o),
(276,223,o),
(276,316,cs),
(276,388,o),
(252,437,o),
(252,492,cs),
(252,579,o),
(318,620,o),
(390,620,cs),
(454,620,o),
(504,588,o),
(515,528,c),
(601,568,l),
(586,624,o),
(522,694,o),
(400,694,cs),
(259,694,o),
(159,607,o),
(159,485,cs),
(159,414,o),
(196,380,o),
(196,308,cs),
(196,225,o),
(147,135,o),
(67,72,c),
(57,0,l)
);
},
{
closed = 1;
nodes = (
(495,288,l),
(505,358,l),
(83,358,l),
(73,288,l)
);
}
);
width = 621;
},
{
associatedMasterId = "980A8AF2-BF11-492D-9410-496A94B21BD3";
layerId = "82231D95-ED21-4234-A052-2B3CF4BBE48F";
name = "12 nov 23, 00:25";
shapes = (
{
closed = 1;
nodes = (
(205,143,o),
(230,224,o),
(230,285,cs),
(230,391,o),
(153,435,o),
(153,513,cs),
(153,576,o),
(205,620,o),
(279,620,cs),
(357,620,o),
(394,571,o),
(415,527,c),
(497,568,l),
(474,624,o),
(400,694,o),
(277,694,cs),
(152,694,o),
(66,624,o),
(66,516,cs),
(66,412,o),
(142,383,o),
(142,292,cs),
(142,243,o),
(120,181,o),
(41,64,c),
(41,0,l),
(512,0,l),
(512,74,l),
(95,74,l),
(114,25,l)
);
},
{
closed = 1;
nodes = (
(378,287,l),
(378,358,l),
(37,358,l),
(37,287,l)
);
}
);
width = 558;
},
{
layerId = "829AF10C-3E33-4291-B5B6-8F7CF12D6A62";
shapes = (
{
closed = 1;
nodes = (
(518,0,l),
(534,117,l),
(123,117,l),
(145,71,l),
(225,135,o),
(272,221,o),
(272,306,cs),
(272,378,o),
(240,426,o),
(240,481,cs),
(240,548,o),
(288,592,o),
(360,592,cs),
(415,592,o),
(467,565,o),
(480,509,c),
(595,566,l),
(579,627,o),
(507,705,o),
(372,705,cs),
(226,705,o),
(113,608,o),
(113,481,cs),
(113,414,o),
(150,381,o),
(150,309,cs),
(150,222,o),
(94,148,o),
(21,93,c),
(8,0,l)
);
},
{
closed = 1;
nodes = (
(502,278,l),
(518,388,l),
(47,388,l),
(31,278,l)
);
}
);
width = 576;
}
);
unicode = 163;
userData = {
KernOnSpecialSpacing = {
L = symbols;
R = symbols;
};
};
}
{
glyphname = currency;
layers = (
{
layerId = m01;
shapes = (
{
closed = 1;
nodes = (
(419,114,o),
(494,185,o),
(494,290,cs),
(494,395,o),
(419,466,o),
(310,466,cs),
(201,466,o),
(126,395,o),
(126,290,cs),
(126,185,o),
(201,114,o),
(310,114,cs)
);
},
{
closed = 1;
nodes = (
(214,166,l),
(170,208,l),
(84,124,l),
(128,80,l)
);
},
{
closed = 1;
nodes = (
(214,412,l),
(128,498,l),
(84,454,l),
(170,372,l)
);
},
{
closed = 1;
nodes = (
(246,186,o),
(206,227,o),
(206,291,cs),
(206,355,o),
(246,396,o),
(310,396,cs),
(374,396,o),
(414,355,o),
(414,291,cs),
(414,227,o),
(374,186,o),
(310,186,cs)
);
},
{
closed = 1;
nodes = (
(536,124,l),
(450,208,l),
(406,166,l),
(492,80,l)
);
},
{
closed = 1;
nodes = (
(536,454,l),
(492,498,l),
(406,412,l),
(450,372,l)
);
}
);
width = 620;
},
{
layerId = "E9FB66CC-5D7A-47B2-9A25-A0E8EEF5BB81";
shapes = (
{
closed = 1;
nodes = (
(406,104,o),
(491,179,o),
(491,290,cs),
(491,401,o),
(406,476,o),
(287,476,cs),
(168,476,o),
(83,401,o),
(83,290,cs),
(83,179,o),
(168,104,o),
(287,104,cs)
);
},
{
closed = 1;
nodes = (
(216,158,l),
(138,232,l),
(27,124,l),
(104,47,l)
);
},
{
closed = 1;
nodes = (
(216,419,l),
(104,531,l),
(26,454,l),
(138,349,l)
);
},
{
closed = 1;
nodes = (
(231,206,o),
(203,235,o),
(203,291,cs),
(203,347,o),
(231,376,o),
(287,376,cs),
(343,376,o),
(371,347,o),
(371,291,cs),
(371,235,o),
(343,206,o),
(287,206,cs)
);
},
{
closed = 1;
nodes = (
(547,124,l),
(436,232,l),
(358,158,l),
(470,47,l)
);
},
{
closed = 1;
nodes = (
(548,454,l),
(470,531,l),
(358,419,l),
(436,349,l)
);
}
);
width = 574;
},
{
layerId = "980A8AF2-BF11-492D-9410-496A94B21BD3";
shapes = (
{
closed = 1;
nodes = (
(408,114,o),
(499,202,o),
(499,319,cs),
(499,408,o),
(436,466,o),
(338,466,cs),
(218,466,o),
(127,378,o),
(127,261,cs),
(127,172,o),
(191,114,o),
(289,114,cs)
);
},
{
closed = 1;
nodes = (
(200,166,l),
(162,208,l),
(64,124,l),
(102,80,l)
);
},
{
closed = 1;
nodes = (
(234,412,l),
(161,498,l),
(110,454,l),
(185,372,l)
);
},
{
closed = 1;
nodes = (
(242,186,o),
(208,219,o),
(208,271,cs),
(208,344,o),
(258,396,o),
(328,396,cs),
(385,396,o),
(419,363,o),
(419,311,cs),
(419,238,o),
(369,186,o),
(299,186,cs)
);
},
{
closed = 1;
nodes = (
(516,124,l),
(442,208,l),
(392,166,l),
(466,80,l)
);
},
{
closed = 1;
nodes = (
(562,454,l),
(525,498,l),
(426,412,l),
(465,372,l)
);
}
);
width = 620;
},
{
layerId = "829AF10C-3E33-4291-B5B6-8F7CF12D6A62";
shapes = (
{
closed = 1;
nodes = (
(396,104,o),
(496,197,o),
(496,319,cs),
(496,413,o),
(425,476,o),
(316,476,cs),
(185,476,o),
(84,383,o),
(84,261,cs),
(84,166,o),
(156,104,o),
(264,104,cs)
);
},
{
closed = 1;
nodes = (
(201,158,l),
(133,232,l),
(7,124,l),
(73,47,l)
);
},
{
closed = 1;
nodes = (
(237,419,l),
(141,531,l),
(52,454,l),
(150,349,l)
);
},
{
closed = 1;
nodes = (
(230,206,o),
(205,228,o),
(205,271,cs),
(205,337,o),
(241,376,o),
(302,376,cs),
(351,376,o),
(376,354,o),
(376,311,cs),
(376,245,o),
(340,206,o),
(279,206,cs)
);
},
{
closed = 1;
nodes = (
(527,124,l),
(431,232,l),
(343,158,l),
(439,47,l)
);
},
{
closed = 1;
nodes = (
(574,454,l),
(507,531,l),
(379,419,l),
(448,349,l)
);
}
);
width = 574;
}
);
metricRight = "=|";
unicode = 164;
}
{
glyphname = yen;
layers = (
{
layerId = m01;
shapes = (
{
pos = (26,0);
ref = Y;
},
{
closed = 1;
nodes = (
(537,274,l),
(537,338,l),
(106,338,l),
(106,274,l)
);
},
{
closed = 1;
nodes = (
(537,164,l),
(537,228,l),
(106,228,l),
(106,164,l)
);
}
);
width = 620;
},
{
layerId = "E9FB66CC-5D7A-47B2-9A25-A0E8EEF5BB81";
shapes = (
{
pos = (26,0);
ref = Y;
},
{
closed = 1;
nodes = (
(557,254,l),
(557,338,l),
(116,338,l),
(116,254,l)
);
},
{
closed = 1;
nodes = (
(557,130,l),
(557,214,l),
(116,214,l),
(116,130,l)
);
}
);
width = 661;
},
{
layerId = "980A8AF2-BF11-492D-9410-496A94B21BD3";
shapes = (
{
pos = (26,0);
ref = Y;
},
{
closed = 1;
nodes = (
(538,274,l),
(547,338,l),
(116,338,l),
(107,274,l)
);
},
{
closed = 1;
nodes = (
(523,164,l),
(532,228,l),
(101,228,l),
(92,164,l)
);
}
);
width = 605;
},
{
layerId = "829AF10C-3E33-4291-B5B6-8F7CF12D6A62";
shapes = (
{
pos = (26,0);
ref = Y;
},
{
closed = 1;
nodes = (
(557,254,l),
(569,338,l),
(128,338,l),
(116,254,l)
);
},
{
closed = 1;
nodes = (
(539,130,l),
(551,214,l),
(110,214,l),
(98,130,l)
);
}
);
width = 648;
}
);
unicode = 165;
userData = {
KernOnSpecialSpacing = {
L = symbols;
R = symbols;
};
};
}
{
glyphname = brokenbar;
layers = (
{
layerId = m01;
shapes = (
{
closed = 1;
nodes = (
(161,-230,l),
(161,142,l),
(83,142,l),
(83,-230,l)
);
},
{
closed = 1;
nodes = (
(161,342,l),
(161,694,l),
(83,694,l),
(83,342,l)
);
}
);
width = 244;
},
{
layerId = "E9FB66CC-5D7A-47B2-9A25-A0E8EEF5BB81";
shapes = (
{
closed = 1;
nodes = (
(200,336,l),
(200,706,l),
(72,706,l),
(72,336,l)
);
},
{
closed = 1;
nodes = (
(72,150,l),
(72,-230,l),
(200,-230,l),
(200,150,l)
);
}
);
width = 272;
},
{
layerId = "980A8AF2-BF11-492D-9410-496A94B21BD3";
shapes = (
{
closed = 1;
nodes = (
(92,-230,l),
(144,142,l),
(66,142,l),
(14,-230,l)
);
},
{
closed = 1;
nodes = (
(172,342,l),
(222,694,l),
(144,694,l),
(94,342,l)
);
}
);
width = 245;
},
{
layerId = "829AF10C-3E33-4291-B5B6-8F7CF12D6A62";
shapes = (
{
closed = 1;
nodes = (
(210,336,l),
(262,706,l),
(134,706,l),
(82,336,l)
);
},
{
closed = 1;
nodes = (
(55,150,l),
(2,-230,l),
(130,-230,l),
(183,150,l)
);
}
);
width = 273;
}
);
metricLeft = H;
metricRight = H;
unicode = 166;
}
{
glyphname = section;
layers = (
{
layerId = m01;
shapes = (
{
closed = 1;
nodes = (
(455,-233,o),
(551,-159,o),
(549,-48,cs),
(546,196,o),
(165,96,o),
(164,267,cs),
(163,314,o),
(196,349,o),
(251,361,c),
(251,421,l),
(144,406,o),
(78,341,o),
(79,251,cs),
(82,10,o),
(461,128,o),
(464,-54,cs),
(465,-121,o),
(408,-162,o),
(319,-162,cs),
(235,-162,o),
(172,-117,o),
(154,-40,c),
(67,-69,l),
(90,-169,o),
(191,-233,o),
(313,-233,cs)
);
},
{
closed = 1;
nodes = (
(483,65,o),
(559,124,o),
(557,223,cs),
(554,467,o),
(173,357,o),
(172,528,cs),
(171,587,o),
(223,627,o),
(304,627,cs),
(379,627,o),
(435,586,o),
(451,521,c),
(539,552,l),
(514,643,o),
(424,696,o),
(311,696,cs),
(174,696,o),
(86,626,o),
(87,522,cs),
(90,281,o),
(469,399,o),
(472,217,cs),
(473,160,o),
(432,132,o),
(366,122,c),
(366,51,l)
);
}
);
width = 634;
},
{
layerId = "E9FB66CC-5D7A-47B2-9A25-A0E8EEF5BB81";
shapes = (
{
closed = 1;
nodes = (
(460,-233,o),
(556,-159,o),
(556,-43,cs),
(556,248,o),
(185,112,o),
(185,279,cs),
(185,314,o),
(204,340,o),
(238,353,c),
(238,431,l),
(123,413,o),
(53,348,o),
(53,252,cs),
(53,-12,o),
(423,121,o),
(423,-47,cs),
(423,-105,o),
(380,-139,o),
(307,-139,cs),
(231,-139,o),
(179,-97,o),
(164,-21,c),
(38,-68,l),
(68,-172,o),
(168,-233,o),
(302,-233,cs)
);
},
{
closed = 1;
nodes = (
(475,53,o),
(564,122,o),
(564,228,cs),
(564,501,o),
(193,373,o),
(193,530,cs),
(193,581,o),
(233,613,o),
(302,613,cs),
(368,613,o),
(417,580,o),
(422,521,c),
(552,568,l),
(520,657,o),
(426,707,o),
(312,707,cs),
(158,707,o),
(61,636,o),
(61,523,cs),
(61,259,o),
(431,392,o),
(431,224,cs),
(431,175,o),
(392,145,o),
(325,142,c),
(327,48,l)
);
}
);
width = 588;
},
{
layerId = "980A8AF2-BF11-492D-9410-496A94B21BD3";
shapes = (
{
closed = 1;
nodes = (
(398,-233,o),
(507,-146,o),
(507,-22,cs),
(507,183,o),
(163,107,o),
(163,253,cs),
(163,308,o),
(203,348,o),
(264,361,c),
(273,421,l),
(155,405,o),
(75,329,o),
(75,225,cs),
(75,24,o),
(420,115,o),
(420,-40,cs),
(420,-113,o),
(356,-162,o),
(259,-162,cs),
(175,-162,o),
(118,-117,o),
(111,-40,c),
(20,-69,l),
(29,-169,o),
(121,-233,o),
(243,-233,cs)
);
},
{
closed = 1;
nodes = (
(473,67,o),
(553,141,o),
(553,249,cs),
(553,453,o),
(208,369,o),
(208,514,cs),
(208,581,o),
(268,627,o),
(355,627,cs),
(430,627,o),
(480,586,o),
(487,521,c),
(579,552,l),
(567,643,o),
(484,696,o),
(372,696,cs),
(224,696,o),
(121,614,o),
(121,496,cs),
(121,295,o),
(466,386,o),
(466,231,cs),
(466,172,o),
(427,134,o),
(346,122,c),
(336,51,l)
);
}
);
width = 634;
},
{
layerId = "829AF10C-3E33-4291-B5B6-8F7CF12D6A62";
shapes = (
{
closed = 1;
nodes = (
(389,-233,o),
(515,-158,o),
(515,-3,cs),
(515,228,o),
(185,127,o),
(185,265,cs),
(185,305,o),
(208,338,o),
(249,353,c),
(260,431,l),
(126,411,o),
(47,330,o),
(47,218,cs),
(47,6,o),
(379,107,o),
(379,-33,cs),
(379,-97,o),
(328,-139,o),
(249,-139,cs),
(173,-139,o),
(127,-97,o),
(123,-21,c),
(-10,-68,l),
(5,-172,o),
(98,-233,o),
(231,-233,cs)
);
},
{
closed = 1;
nodes = (
(441,53,o),
(560,121,o),
(560,264,cs),
(560,483,o),
(228,386,o),
(228,518,cs),
(228,575,o),
(276,613,o),
(350,613,cs),
(415,613,o),
(460,580,o),
(457,521,c),
(593,568,l),
(574,657,o),
(486,707,o),
(373,707,cs),
(203,707,o),
(94,622,o),
(94,489,cs),
(94,277,o),
(425,378,o),
(425,238,cs),
(425,179,o),
(377,145,o),
(307,142,c),
(295,48,l)
);
}
);
width = 588;
}
);
note = "Storto? Controlla attacchi interrotti";
unicode = 167;
userData = {
KernOnSpecialSpacing = {
R = symbols;
};
};
}
{
glyphname = copyright;
layers = (
{
layerId = m01;
shapes = (
{
closed = 1;
nodes = (
(608,-18,o),
(758,135,o),
(758,340,cs),
(758,545,o),
(608,698,o),
(402,698,cs),
(196,698,o),
(46,545,o),
(46,340,cs),
(46,135,o),
(196,-18,o),
(402,-18,cs)
);
},
{
closed = 1;
nodes = (
(237,46,o),
(124,163,o),
(124,340,cs),
(124,517,o),
(237,634,o),
(402,634,cs),
(567,634,o),
(680,517,o),
(680,340,cs),
(680,163,o),
(567,46,o),
(402,46,cs)
);
},
{
closed = 1;
nodes = (
(490,152,o),
(552,204,o),
(564,276,c),
(485,296,l),
(478,243,o),
(449,212,o),
(404,212,cs),
(349,212,o),
(314,260,o),
(314,342,cs),
(314,422,o),
(348,469,o),
(402,469,cs),
(445,469,o),
(475,439,o),
(481,388,c),
(560,408,l),
(550,478,o),
(484,528,o),
(404,528,cs),
(300,528,o),
(230,450,o),
(230,340,cs),
(230,230,o),
(300,152,o),
(406,152,cs)
);
}
);
width = 804;
},
{
layerId = "E9FB66CC-5D7A-47B2-9A25-A0E8EEF5BB81";
shapes = (
{
closed = 1;
nodes = (
(638,-44,o),
(798,120,o),
(798,340,cs),
(798,560,o),
(638,724,o),
(416,724,cs),
(194,724,o),
(34,560,o),
(34,340,cs),
(34,120,o),
(194,-44,o),
(416,-44,cs)
);
},
{
closed = 1;
nodes = (
(249,49,o),
(141,161,o),
(141,340,cs),
(141,519,o),
(249,631,o),
(416,631,cs),
(583,631,o),
(691,519,o),
(691,340,cs),
(691,161,o),
(583,49,o),
(416,49,cs)
);
},
{
closed = 1;
nodes = (
(517,137,o),
(587,200,o),
(595,287,c),
(488,298,l),
(482,249,o),
(462,219,o),
(418,219,cs),
(365,219,o),
(335,259,o),
(335,342,cs),
(335,424,o),
(364,463,o),
(416,463,cs),
(458,463,o),
(480,434,o),
(484,375,c),
(590,397,l),
(586,482,o),
(511,543,o),
(418,543,cs),
(304,543,o),
(229,458,o),
(229,340,cs),
(229,222,o),
(304,137,o),
(420,137,cs)
);
}
);
width = 832;
},
{
layerId = "980A8AF2-BF11-492D-9410-496A94B21BD3";
shapes = (
{
closed = 1;
nodes = (
(588,-18,o),
(773,168,o),
(773,396,cs),
(773,572,o),
(650,698,o),
(463,698,cs),
(238,698,o),
(53,512,o),
(53,284,cs),
(53,108,o),
(176,-18,o),
(363,-18,cs)
);
},
{
closed = 1;
nodes = (
(224,46,o),
(131,140,o),
(131,286,cs),
(131,484,o),
(270,634,o),
(454,634,cs),
(602,634,o),
(695,540,o),
(695,394,cs),
(695,196,o),
(556,46,o),
(372,46,cs)
);
},
{
closed = 1;
nodes = (
(474,152,o),
(544,204,o),
(566,276,c),
(490,296,l),
(475,243,o),
(442,212,o),
(397,212,cs),
(350,212,o),
(323,247,o),
(323,308,cs),
(323,401,o),
(369,469,o),
(431,469,cs),
(474,469,o),
(500,439,o),
(499,388,c),
(581,408,l),
(580,478,o),
(522,528,o),
(441,528,cs),
(328,528,o),
(239,431,o),
(239,306,cs),
(239,215,o),
(296,152,o),
(391,152,cs)
);
}
);
width = 805;
},
{
layerId = "829AF10C-3E33-4291-B5B6-8F7CF12D6A62";
shapes = (
{
closed = 1;
nodes = (
(614,-44,o),
(812,156,o),
(812,401,cs),
(812,589,o),
(680,724,o),
(479,724,cs),
(237,724,o),
(39,525,o),
(39,279,cs),
(39,91,o),
(170,-44,o),
(371,-44,cs)
);
},
{
closed = 1;
nodes = (
(236,49,o),
(146,138,o),
(146,284,cs),
(146,485,o),
(280,631,o),
(466,631,cs),
(615,631,o),
(704,542,o),
(704,396,cs),
(704,194,o),
(570,49,o),
(384,49,cs)
);
},
{
closed = 1;
nodes = (
(497,137,o),
(577,200,o),
(597,287,c),
(491,298,l),
(478,247,o),
(453,219,o),
(410,219,cs),
(366,219,o),
(342,247,o),
(342,304,cs),
(342,400,o),
(382,463,o),
(443,463,cs),
(482,463,o),
(503,437,o),
(498,375,c),
(607,397,l),
(615,482,o),
(549,543,o),
(456,543,cs),
(332,543,o),
(236,438,o),
(236,304,cs),
(236,205,o),
(297,137,o),
(401,137,cs)
);
}
);
width = 832;
}
);
unicode = 169;
userData = {
KernOnSpecialSpacing = {
R = symbols;
};
};
}
{
glyphname = ordfeminine;
layers = (
{
background = {
shapes = (
{
closed = 1;
nodes = (
(214,322,o),
(268,362,o),
(272,432,c),
(264,432,l),
(264,390,o),
(267,357,o),
(277,329,c),
(350,329,l),
(342,360,o),
(338,392,o),
(338,433,cs),
(338,568,ls),
(338,641,o),
(281,690,o),
(198,690,cs),
(124,690,o),
(59,650,o),
(38,592,c),
(100,564,l),
(111,607,o),
(147,634,o),
(192,634,cs),
(236,634,o),
(264,608,o),
(264,566,cs),
(264,512,ls),
(264,433,o),
(225,380,o),
(168,380,cs),
(132,380,o),
(106,401,o),
(106,432,cs),
(106,459,o),
(124,484,o),
(182,494,cs),
(272,509,l),
(272,556,l),
(152,536,ls),
(76,523,o),
(32,478,o),
(32,422,cs),
(32,364,o),
(80,322,o),
(148,322,cs)
);
}
);
};
layerId = m01;
shapes = (
{
closed = 1;
nodes = (
(195,321,o),
(246,362,o),
(253,427,c),
(247,427,l),
(247,379,o),
(250,351,o),
(257,330,c),
(326,330,l),
(320,354,o),
(317,384,o),
(317,411,cs),
(317,557,ls),
(317,644,o),
(263,689,o),
(177,689,cs),
(101,689,o),
(43,653,o),
(24,597,c),
(89,572,l),
(100,610,o),
(131,637,o),
(175,637,cs),
(218,637,o),
(246,610,o),
(246,566,cs),
(246,513,ls),
(246,431,o),
(206,376,o),
(148,376,cs),
(115,376,o),
(93,396,o),
(93,428,cs),
(93,462,o),
(118,488,o),
(181,497,cs),
(251,507,l),
(251,552,l),
(155,539,ls),
(62,526,o),
(19,480,o),
(19,421,cs),
(19,362,o),
(64,321,o),
(129,321,cs)
);
}
);
width = 392;
},
{
layerId = "E9FB66CC-5D7A-47B2-9A25-A0E8EEF5BB81";
shapes = (
{
closed = 1;
nodes = (
(199,318,o),
(253,370,o),
(257,435,c),
(251,435,l),
(251,383,o),
(254,353,o),
(262,330,c),
(368,330,l),
(362,356,o),
(360,386,o),
(360,418,cs),
(360,562,ls),
(360,681,o),
(302,729,o),
(196,729,cs),
(106,729,o),
(45,697,o),
(15,621,c),
(112,590,l),
(128,639,o),
(155,658,o),
(190,658,cs),
(224,658,o),
(249,635,o),
(249,599,cs),
(249,538,ls),
(249,462,o),
(219,395,o),
(171,395,cs),
(142,395,o),
(124,414,o),
(124,441,cs),
(124,479,o),
(154,503,o),
(213,513,cs),
(253,520,l),
(253,581,l),
(194,573,ls),
(64,555,o),
(9,501,o),
(9,429,cs),
(9,363,o),
(58,318,o),
(128,318,cs)
);
}
);
width = 492;
},
{
background = {
shapes = (
{
closed = 1;
nodes = (
(256,322,o),
(310,362,o),
(314,432,c),
(306,432,l),
(306,390,o),
(309,357,o),
(319,329,c),
(392,329,l),
(384,360,o),
(380,392,o),
(380,433,cs),
(380,568,ls),
(380,641,o),
(323,690,o),
(240,690,cs),
(166,690,o),
(101,650,o),
(80,592,c),
(142,564,l),
(153,607,o),
(189,634,o),
(234,634,cs),
(278,634,o),
(306,608,o),
(306,566,cs),
(306,512,ls),
(306,433,o),
(267,380,o),
(210,380,cs),
(174,380,o),
(148,401,o),
(148,432,cs),
(148,459,o),
(166,484,o),
(224,494,cs),
(314,509,l),
(314,556,l),
(194,536,ls),
(118,523,o),
(74,478,o),
(74,422,cs),
(74,364,o),
(122,322,o),
(190,322,cs)
);
}
);
};
layerId = "980A8AF2-BF11-492D-9410-496A94B21BD3";
shapes = (
{
closed = 1;
nodes = (
(236,321,o),
(293,362,o),
(308,427,c),
(302,427,l),
(296,379,o),
(295,353,o),
(300,330,c),
(369,330,l),
(366,355,o),
(366,380,o),
(370,411,cs),
(388,557,ls),
(399,644,o),
(350,689,o),
(264,689,cs),
(188,689,o),
(125,653,o),
(99,597,c),
(161,572,l),
(177,610,o),
(212,637,o),
(255,637,cs),
(298,637,o),
(324,610,o),
(318,566,cs),
(311,513,ls),
(301,431,o),
(253,376,o),
(196,376,cs),
(166,376,o),
(147,393,o),
(147,420,cs),
(147,462,o),
(181,488,o),
(244,497,cs),
(315,507,l),
(321,552,l),
(223,539,ls),
(126,526,o),
(72,475,o),
(72,408,cs),
(72,356,o),
(111,321,o),
(171,321,cs)
);
}
);
width = 425;
},
{
layerId = "829AF10C-3E33-4291-B5B6-8F7CF12D6A62";
shapes = (
{
closed = 1;
nodes = (
(281,318,o),
(342,370,o),
(354,435,c),
(348,435,l),
(341,383,o),
(341,352,o),
(346,330,c),
(452,330,l),
(449,352,o),
(451,385,o),
(455,418,cs),
(472,562,ls),
(486,681,o),
(435,729,o),
(329,729,cs),
(238,729,o),
(174,697,o),
(135,621,c),
(228,590,l),
(250,639,o),
(279,658,o),
(314,658,cs),
(347,658,o),
(371,635,o),
(366,599,cs),
(358,538,ls),
(349,465,o),
(312,395,o),
(263,395,cs),
(237,395,o),
(221,411,o),
(221,434,cs),
(221,475,o),
(256,502,o),
(319,513,cs),
(360,520,l),
(368,581,l),
(308,573,ls),
(179,556,o),
(104,500,o),
(104,414,cs),
(104,356,o),
(146,318,o),
(210,318,cs)
);
}
);
width = 527;
}
);
unicode = 170;
userData = {
KernOnSpecialSpacing = {
L = superiors;
R = superiors;
};
};
}
{
glyphname = guillemetleft;
kernLeft = KO_guillemetleft;
kernRight = KO_guillemetleft;
layers = (
{
layerId = m01;
shapes = (
{
closed = 1;
nodes = (
(272,140,l),
(77,258,l),
(77,250,l),
(270,368,l),
(270,456,l),
(26,292,l),
(26,214,l),
(272,50,l)
);
},
{
closed = 1;
nodes = (
(518,140,l),
(323,258,l),
(323,250,l),
(516,368,l),
(516,456,l),
(272,292,l),
(272,214,l),
(518,50,l)
);
}
);
width = 565;
},
{
layerId = "E9FB66CC-5D7A-47B2-9A25-A0E8EEF5BB81";
shapes = (
{
closed = 1;
nodes = (
(305,140,l),
(107,260,l),
(107,252,l),
(301,368,l),
(301,486,l),
(20,306,l),
(20,206,l),
(305,20,l)
);
},
{
closed = 1;
nodes = (
(592,140,l),
(394,260,l),
(394,252,l),
(588,368,l),
(588,486,l),
(307,306,l),
(307,206,l),
(592,20,l)
);
}
);
width = 629;
},
{
associatedMasterId = m01;
layerId = "01C0BB4E-B7BB-4613-8330-AFF58911504B";
name = "11 nov 23, 20:57";
shapes = (
{
closed = 1;
nodes = (
(272,139,l),
(77,260,l),
(77,249,l),
(270,367,l),
(270,456,l),
(26,294,l),
(26,216,l),
(272,50,l)
);
},
{
closed = 1;
nodes = (
(519,139,l),
(324,260,l),
(324,249,l),
(516,367,l),
(516,456,l),
(273,294,l),
(273,216,l),
(519,50,l)
);
}
);
width = 567;
},
{
layerId = "980A8AF2-BF11-492D-9410-496A94B21BD3";
shapes = (
{
closed = 1;
nodes = (
(295,140,l),
(116,258,l),
(115,250,l),
(325,368,l),
(337,456,l),
(70,292,l),
(59,214,l),
(282,50,l)
);
},
{
closed = 1;
nodes = (
(541,140,l),
(362,258,l),
(361,250,l),
(571,368,l),
(583,456,l),
(316,292,l),
(305,214,l),
(528,50,l)
);
}
);
width = 599;
},
{
associatedMasterId = "980A8AF2-BF11-492D-9410-496A94B21BD3";
layerId = "5C5A2EB3-A212-41DE-BB31-640977610644";
name = "11 nov 23, 20:57";
shapes = (
{
closed = 1;
nodes = (
(272,139,l),
(77,260,l),
(77,249,l),
(270,367,l),
(270,456,l),
(26,294,l),
(26,216,l),
(272,50,l)
);
},
{
closed = 1;
nodes = (
(519,139,l),
(324,260,l),
(324,249,l),
(516,367,l),
(516,456,l),
(273,294,l),
(273,216,l),
(519,50,l)
);
}
);
width = 567;
},
{
layerId = "829AF10C-3E33-4291-B5B6-8F7CF12D6A62";
shapes = (
{
closed = 1;
nodes = (
(330,140,l),
(149,260,l),
(147,252,l),
(358,368,l),
(374,486,l),
(68,306,l),
(54,206,l),
(313,20,l)
);
},
{
closed = 1;
nodes = (
(617,140,l),
(436,260,l),
(434,252,l),
(645,368,l),
(661,486,l),
(355,306,l),
(341,206,l),
(600,20,l)
);
}
);
width = 669;
}
);
metricLeft = guilsinglleft;
metricRight = guilsinglleft;
unicode = 171;
userData = {
KernOnSpecialSpacing = {
L = quotes;
R = quotes;
};
};
}
{
glyphname = logicalnot;
layers = (
{
layerId = m01;
shapes = (
{
closed = 1;
nodes = (
(500,144,l),
(500,320,l),
(56,320,l),
(56,250,l),
(432,250,l),
(424,258,l),
(424,144,l)
);
}
);
width = 560;
},
{
layerId = "E9FB66CC-5D7A-47B2-9A25-A0E8EEF5BB81";
shapes = (
{
closed = 1;
nodes = (
(512,104,l),
(512,320,l),
(38,320,l),
(38,220,l),
(444,220,l),
(386,258,l),
(386,104,l)
);
}
);
width = 562;
},
{
layerId = "980A8AF2-BF11-492D-9410-496A94B21BD3";
shapes = (
{
closed = 1;
nodes = (
(528,144,l),
(553,320,l),
(109,320,l),
(99,250,l),
(475,250,l),
(468,258,l),
(452,144,l)
);
}
);
width = 585;
},
{
layerId = "829AF10C-3E33-4291-B5B6-8F7CF12D6A62";
shapes = (
{
closed = 1;
nodes = (
(537,104,l),
(567,320,l),
(93,320,l),
(79,220,l),
(485,220,l),
(432,258,l),
(411,104,l)
);
}
);
width = 596;
}
);
metricLeft = minus;
unicode = 172;
}
